<?xml version="1.0" encoding="utf-8"?>
<svg xmlns="http://www.w3.org/2000/svg" xmlns:xlink="http://www.w3.org/1999/xlink" width="672" height="480" viewBox="0 0 2688 1920">
<defs>
  <clipPath id="clip970">
    <rect x="0" y="0" width="2688" height="1920"/>
  </clipPath>
</defs>
<path clip-path="url(#clip970)" d="
M0 1920 L2688 1920 L2688 0 L0 0  Z
  " fill="#ffffff" fill-rule="evenodd" fill-opacity="1"/>
<defs>
  <clipPath id="clip971">
    <rect x="537" y="0" width="1883" height="1883"/>
  </clipPath>
</defs>
<path clip-path="url(#clip970)" d="
M263.478 1734.12 L2640.76 1734.12 L2640.76 127.792 L263.478 127.792  Z
  " fill="#ffffff" fill-rule="evenodd" fill-opacity="1"/>
<defs>
  <clipPath id="clip972">
    <rect x="263" y="127" width="2378" height="1607"/>
  </clipPath>
</defs>
<polyline clip-path="url(#clip972)" style="stroke:#000000; stroke-linecap:butt; stroke-linejoin:round; stroke-width:2; stroke-opacity:0.1; fill:none" points="
  381.3,1734.12 381.3,127.792 
  "/>
<polyline clip-path="url(#clip972)" style="stroke:#000000; stroke-linecap:butt; stroke-linejoin:round; stroke-width:2; stroke-opacity:0.1; fill:none" points="
  738.239,1734.12 738.239,127.792 
  "/>
<polyline clip-path="url(#clip972)" style="stroke:#000000; stroke-linecap:butt; stroke-linejoin:round; stroke-width:2; stroke-opacity:0.1; fill:none" points="
  1095.18,1734.12 1095.18,127.792 
  "/>
<polyline clip-path="url(#clip972)" style="stroke:#000000; stroke-linecap:butt; stroke-linejoin:round; stroke-width:2; stroke-opacity:0.1; fill:none" points="
  1452.12,1734.12 1452.12,127.792 
  "/>
<polyline clip-path="url(#clip972)" style="stroke:#000000; stroke-linecap:butt; stroke-linejoin:round; stroke-width:2; stroke-opacity:0.1; fill:none" points="
  1809.06,1734.12 1809.06,127.792 
  "/>
<polyline clip-path="url(#clip972)" style="stroke:#000000; stroke-linecap:butt; stroke-linejoin:round; stroke-width:2; stroke-opacity:0.1; fill:none" points="
  2166,1734.12 2166,127.792 
  "/>
<polyline clip-path="url(#clip972)" style="stroke:#000000; stroke-linecap:butt; stroke-linejoin:round; stroke-width:2; stroke-opacity:0.1; fill:none" points="
  2522.93,1734.12 2522.93,127.792 
  "/>
<polyline clip-path="url(#clip970)" style="stroke:#000000; stroke-linecap:butt; stroke-linejoin:round; stroke-width:4; stroke-opacity:1; fill:none" points="
  263.478,1734.12 2640.76,1734.12 
  "/>
<polyline clip-path="url(#clip970)" style="stroke:#000000; stroke-linecap:butt; stroke-linejoin:round; stroke-width:4; stroke-opacity:1; fill:none" points="
  381.3,1734.12 381.3,1715.22 
  "/>
<polyline clip-path="url(#clip970)" style="stroke:#000000; stroke-linecap:butt; stroke-linejoin:round; stroke-width:4; stroke-opacity:1; fill:none" points="
  738.239,1734.12 738.239,1715.22 
  "/>
<polyline clip-path="url(#clip970)" style="stroke:#000000; stroke-linecap:butt; stroke-linejoin:round; stroke-width:4; stroke-opacity:1; fill:none" points="
  1095.18,1734.12 1095.18,1715.22 
  "/>
<polyline clip-path="url(#clip970)" style="stroke:#000000; stroke-linecap:butt; stroke-linejoin:round; stroke-width:4; stroke-opacity:1; fill:none" points="
  1452.12,1734.12 1452.12,1715.22 
  "/>
<polyline clip-path="url(#clip970)" style="stroke:#000000; stroke-linecap:butt; stroke-linejoin:round; stroke-width:4; stroke-opacity:1; fill:none" points="
  1809.06,1734.12 1809.06,1715.22 
  "/>
<polyline clip-path="url(#clip970)" style="stroke:#000000; stroke-linecap:butt; stroke-linejoin:round; stroke-width:4; stroke-opacity:1; fill:none" points="
  2166,1734.12 2166,1715.22 
  "/>
<polyline clip-path="url(#clip970)" style="stroke:#000000; stroke-linecap:butt; stroke-linejoin:round; stroke-width:4; stroke-opacity:1; fill:none" points="
  2522.93,1734.12 2522.93,1715.22 
  "/>
<path clip-path="url(#clip970)" d="M350.767 1781.99 L380.443 1781.99 L380.443 1785.93 L350.767 1785.93 L350.767 1781.99 Z" fill="#000000" fill-rule="evenodd" fill-opacity="1" /><path clip-path="url(#clip970)" d="M404.702 1780.19 Q408.059 1780.9 409.934 1783.17 Q411.832 1785.44 411.832 1788.77 Q411.832 1793.89 408.313 1796.69 Q404.795 1799.49 398.314 1799.49 Q396.138 1799.49 393.823 1799.05 Q391.531 1798.64 389.077 1797.78 L389.077 1793.27 Q391.022 1794.4 393.337 1794.98 Q395.651 1795.56 398.175 1795.56 Q402.573 1795.56 404.864 1793.82 Q407.179 1792.08 407.179 1788.77 Q407.179 1785.72 405.026 1784.01 Q402.897 1782.27 399.077 1782.27 L395.05 1782.27 L395.05 1778.43 L399.263 1778.43 Q402.712 1778.43 404.54 1777.06 Q406.369 1775.67 406.369 1773.08 Q406.369 1770.42 404.471 1769.01 Q402.596 1767.57 399.077 1767.57 Q397.156 1767.57 394.957 1767.99 Q392.758 1768.4 390.119 1769.28 L390.119 1765.12 Q392.781 1764.38 395.096 1764.01 Q397.434 1763.64 399.494 1763.64 Q404.818 1763.64 407.92 1766.07 Q411.022 1768.47 411.022 1772.59 Q411.022 1775.46 409.378 1777.46 Q407.735 1779.42 404.702 1780.19 Z" fill="#000000" fill-rule="evenodd" fill-opacity="1" /><path clip-path="url(#clip970)" d="M708.181 1781.99 L737.857 1781.99 L737.857 1785.93 L708.181 1785.93 L708.181 1781.99 Z" fill="#000000" fill-rule="evenodd" fill-opacity="1" /><path clip-path="url(#clip970)" d="M751.977 1794.89 L768.297 1794.89 L768.297 1798.82 L746.352 1798.82 L746.352 1794.89 Q749.014 1792.13 753.598 1787.5 Q758.204 1782.85 759.385 1781.51 Q761.63 1778.98 762.51 1777.25 Q763.412 1775.49 763.412 1773.8 Q763.412 1771.04 761.468 1769.31 Q759.547 1767.57 756.445 1767.57 Q754.246 1767.57 751.792 1768.34 Q749.361 1769.1 746.584 1770.65 L746.584 1765.93 Q749.408 1764.79 751.861 1764.21 Q754.315 1763.64 756.352 1763.64 Q761.723 1763.64 764.917 1766.32 Q768.111 1769.01 768.111 1773.5 Q768.111 1775.63 767.301 1777.55 Q766.514 1779.45 764.408 1782.04 Q763.829 1782.71 760.727 1785.93 Q757.625 1789.12 751.977 1794.89 Z" fill="#000000" fill-rule="evenodd" fill-opacity="1" /><path clip-path="url(#clip970)" d="M1064.94 1781.99 L1094.61 1781.99 L1094.61 1785.93 L1064.94 1785.93 L1064.94 1781.99 Z" fill="#000000" fill-rule="evenodd" fill-opacity="1" /><path clip-path="url(#clip970)" d="M1105.51 1794.89 L1113.15 1794.89 L1113.15 1768.52 L1104.84 1770.19 L1104.84 1765.93 L1113.11 1764.26 L1117.78 1764.26 L1117.78 1794.89 L1125.42 1794.89 L1125.42 1798.82 L1105.51 1798.82 L1105.51 1794.89 Z" fill="#000000" fill-rule="evenodd" fill-opacity="1" /><path clip-path="url(#clip970)" d="M1452.12 1767.34 Q1448.51 1767.34 1446.68 1770.9 Q1444.87 1774.45 1444.87 1781.58 Q1444.87 1788.68 1446.68 1792.25 Q1448.51 1795.79 1452.12 1795.79 Q1455.75 1795.79 1457.56 1792.25 Q1459.39 1788.68 1459.39 1781.58 Q1459.39 1774.45 1457.56 1770.9 Q1455.75 1767.34 1452.12 1767.34 M1452.12 1763.64 Q1457.93 1763.64 1460.98 1768.24 Q1464.06 1772.83 1464.06 1781.58 Q1464.06 1790.3 1460.98 1794.91 Q1457.93 1799.49 1452.12 1799.49 Q1446.31 1799.49 1443.23 1794.91 Q1440.17 1790.3 1440.17 1781.58 Q1440.17 1772.83 1443.23 1768.24 Q1446.31 1763.64 1452.12 1763.64 Z" fill="#000000" fill-rule="evenodd" fill-opacity="1" /><path clip-path="url(#clip970)" d="M1799.44 1794.89 L1807.08 1794.89 L1807.08 1768.52 L1798.77 1770.19 L1798.77 1765.93 L1807.03 1764.26 L1811.71 1764.26 L1811.71 1794.89 L1819.35 1794.89 L1819.35 1798.82 L1799.44 1798.82 L1799.44 1794.89 Z" fill="#000000" fill-rule="evenodd" fill-opacity="1" /><path clip-path="url(#clip970)" d="M2160.65 1794.89 L2176.97 1794.89 L2176.97 1798.82 L2155.02 1798.82 L2155.02 1794.89 Q2157.69 1792.13 2162.27 1787.5 Q2166.87 1782.85 2168.06 1781.51 Q2170.3 1778.98 2171.18 1777.25 Q2172.08 1775.49 2172.08 1773.8 Q2172.08 1771.04 2170.14 1769.31 Q2168.22 1767.57 2165.12 1767.57 Q2162.92 1767.57 2160.46 1768.34 Q2158.03 1769.1 2155.25 1770.65 L2155.25 1765.93 Q2158.08 1764.79 2160.53 1764.21 Q2162.99 1763.64 2165.02 1763.64 Q2170.39 1763.64 2173.59 1766.32 Q2176.78 1769.01 2176.78 1773.5 Q2176.78 1775.63 2175.97 1777.55 Q2175.19 1779.45 2173.08 1782.04 Q2172.5 1782.71 2169.4 1785.93 Q2166.3 1789.12 2160.65 1794.89 Z" fill="#000000" fill-rule="evenodd" fill-opacity="1" /><path clip-path="url(#clip970)" d="M2527.18 1780.19 Q2530.54 1780.9 2532.41 1783.17 Q2534.31 1785.44 2534.31 1788.77 Q2534.31 1793.89 2530.79 1796.69 Q2527.27 1799.49 2520.79 1799.49 Q2518.62 1799.49 2516.3 1799.05 Q2514.01 1798.64 2511.56 1797.78 L2511.56 1793.27 Q2513.5 1794.4 2515.82 1794.98 Q2518.13 1795.56 2520.65 1795.56 Q2525.05 1795.56 2527.34 1793.82 Q2529.66 1792.08 2529.66 1788.77 Q2529.66 1785.72 2527.51 1784.01 Q2525.38 1782.27 2521.56 1782.27 L2517.53 1782.27 L2517.53 1778.43 L2521.74 1778.43 Q2525.19 1778.43 2527.02 1777.06 Q2528.85 1775.67 2528.85 1773.08 Q2528.85 1770.42 2526.95 1769.01 Q2525.08 1767.57 2521.56 1767.57 Q2519.64 1767.57 2517.44 1767.99 Q2515.24 1768.4 2512.6 1769.28 L2512.6 1765.12 Q2515.26 1764.38 2517.58 1764.01 Q2519.91 1763.64 2521.97 1763.64 Q2527.3 1763.64 2530.4 1766.07 Q2533.5 1768.47 2533.5 1772.59 Q2533.5 1775.46 2531.86 1777.46 Q2530.21 1779.42 2527.18 1780.19 Z" fill="#000000" fill-rule="evenodd" fill-opacity="1" /><path clip-path="url(#clip970)" d="M1468.73 1847.65 L1455.84 1865 L1469.4 1883.3 L1462.49 1883.3 L1452.12 1869.3 L1441.74 1883.3 L1434.83 1883.3 L1448.68 1864.65 L1436.01 1847.65 L1442.92 1847.65 L1452.37 1860.35 L1461.82 1847.65 L1468.73 1847.65 Z" fill="#000000" fill-rule="evenodd" fill-opacity="1" /><polyline clip-path="url(#clip972)" style="stroke:#000000; stroke-linecap:butt; stroke-linejoin:round; stroke-width:2; stroke-opacity:0.1; fill:none" points="
  263.478,1688.66 2640.76,1688.66 
  "/>
<polyline clip-path="url(#clip972)" style="stroke:#000000; stroke-linecap:butt; stroke-linejoin:round; stroke-width:2; stroke-opacity:0.1; fill:none" points="
  263.478,1309.81 2640.76,1309.81 
  "/>
<polyline clip-path="url(#clip972)" style="stroke:#000000; stroke-linecap:butt; stroke-linejoin:round; stroke-width:2; stroke-opacity:0.1; fill:none" points="
  263.478,930.959 2640.76,930.959 
  "/>
<polyline clip-path="url(#clip972)" style="stroke:#000000; stroke-linecap:butt; stroke-linejoin:round; stroke-width:2; stroke-opacity:0.1; fill:none" points="
  263.478,552.106 2640.76,552.106 
  "/>
<polyline clip-path="url(#clip972)" style="stroke:#000000; stroke-linecap:butt; stroke-linejoin:round; stroke-width:2; stroke-opacity:0.1; fill:none" points="
  263.478,173.253 2640.76,173.253 
  "/>
<polyline clip-path="url(#clip970)" style="stroke:#000000; stroke-linecap:butt; stroke-linejoin:round; stroke-width:4; stroke-opacity:1; fill:none" points="
  263.478,1734.12 263.478,127.792 
  "/>
<polyline clip-path="url(#clip970)" style="stroke:#000000; stroke-linecap:butt; stroke-linejoin:round; stroke-width:4; stroke-opacity:1; fill:none" points="
  263.478,1688.66 282.376,1688.66 
  "/>
<polyline clip-path="url(#clip970)" style="stroke:#000000; stroke-linecap:butt; stroke-linejoin:round; stroke-width:4; stroke-opacity:1; fill:none" points="
  263.478,1309.81 282.376,1309.81 
  "/>
<polyline clip-path="url(#clip970)" style="stroke:#000000; stroke-linecap:butt; stroke-linejoin:round; stroke-width:4; stroke-opacity:1; fill:none" points="
  263.478,930.959 282.376,930.959 
  "/>
<polyline clip-path="url(#clip970)" style="stroke:#000000; stroke-linecap:butt; stroke-linejoin:round; stroke-width:4; stroke-opacity:1; fill:none" points="
  263.478,552.106 282.376,552.106 
  "/>
<polyline clip-path="url(#clip970)" style="stroke:#000000; stroke-linecap:butt; stroke-linejoin:round; stroke-width:4; stroke-opacity:1; fill:none" points="
  263.478,173.253 282.376,173.253 
  "/>
<path clip-path="url(#clip970)" d="M116.214 1689.12 L145.89 1689.12 L145.89 1693.05 L116.214 1693.05 L116.214 1689.12 Z" fill="#000000" fill-rule="evenodd" fill-opacity="1" /><path clip-path="url(#clip970)" d="M156.793 1702.01 L164.432 1702.01 L164.432 1675.64 L156.122 1677.31 L156.122 1673.05 L164.385 1671.38 L169.061 1671.38 L169.061 1702.01 L176.7 1702.01 L176.7 1705.94 L156.793 1705.94 L156.793 1702.01 Z" fill="#000000" fill-rule="evenodd" fill-opacity="1" /><path clip-path="url(#clip970)" d="M186.145 1700.06 L191.029 1700.06 L191.029 1705.94 L186.145 1705.94 L186.145 1700.06 Z" fill="#000000" fill-rule="evenodd" fill-opacity="1" /><path clip-path="url(#clip970)" d="M211.214 1674.46 Q207.603 1674.46 205.774 1678.03 Q203.969 1681.57 203.969 1688.7 Q203.969 1695.81 205.774 1699.37 Q207.603 1702.91 211.214 1702.91 Q214.848 1702.91 216.654 1699.37 Q218.482 1695.81 218.482 1688.7 Q218.482 1681.57 216.654 1678.03 Q214.848 1674.46 211.214 1674.46 M211.214 1670.76 Q217.024 1670.76 220.08 1675.37 Q223.158 1679.95 223.158 1688.7 Q223.158 1697.43 220.08 1702.03 Q217.024 1706.62 211.214 1706.62 Q205.404 1706.62 202.325 1702.03 Q199.27 1697.43 199.27 1688.7 Q199.27 1679.95 202.325 1675.37 Q205.404 1670.76 211.214 1670.76 Z" fill="#000000" fill-rule="evenodd" fill-opacity="1" /><path clip-path="url(#clip970)" d="M117.21 1310.26 L146.886 1310.26 L146.886 1314.2 L117.21 1314.2 L117.21 1310.26 Z" fill="#000000" fill-rule="evenodd" fill-opacity="1" /><path clip-path="url(#clip970)" d="M166.978 1295.61 Q163.367 1295.61 161.538 1299.18 Q159.733 1302.72 159.733 1309.85 Q159.733 1316.95 161.538 1320.52 Q163.367 1324.06 166.978 1324.06 Q170.612 1324.06 172.418 1320.52 Q174.247 1316.95 174.247 1309.85 Q174.247 1302.72 172.418 1299.18 Q170.612 1295.61 166.978 1295.61 M166.978 1291.91 Q172.788 1291.91 175.844 1296.51 Q178.922 1301.1 178.922 1309.85 Q178.922 1318.57 175.844 1323.18 Q172.788 1327.76 166.978 1327.76 Q161.168 1327.76 158.089 1323.18 Q155.034 1318.57 155.034 1309.85 Q155.034 1301.1 158.089 1296.51 Q161.168 1291.91 166.978 1291.91 Z" fill="#000000" fill-rule="evenodd" fill-opacity="1" /><path clip-path="url(#clip970)" d="M187.14 1321.21 L192.024 1321.21 L192.024 1327.09 L187.14 1327.09 L187.14 1321.21 Z" fill="#000000" fill-rule="evenodd" fill-opacity="1" /><path clip-path="url(#clip970)" d="M202.256 1292.53 L220.612 1292.53 L220.612 1296.47 L206.538 1296.47 L206.538 1304.94 Q207.557 1304.59 208.575 1304.43 Q209.594 1304.24 210.612 1304.24 Q216.399 1304.24 219.779 1307.42 Q223.158 1310.59 223.158 1316 Q223.158 1321.58 219.686 1324.68 Q216.214 1327.76 209.894 1327.76 Q207.719 1327.76 205.45 1327.39 Q203.205 1327.02 200.797 1326.28 L200.797 1321.58 Q202.881 1322.72 205.103 1323.27 Q207.325 1323.83 209.802 1323.83 Q213.807 1323.83 216.144 1321.72 Q218.482 1319.61 218.482 1316 Q218.482 1312.39 216.144 1310.29 Q213.807 1308.18 209.802 1308.18 Q207.927 1308.18 206.052 1308.6 Q204.2 1309.01 202.256 1309.89 L202.256 1292.53 Z" fill="#000000" fill-rule="evenodd" fill-opacity="1" /><path clip-path="url(#clip970)" d="M165.983 916.757 Q162.372 916.757 160.543 920.322 Q158.737 923.864 158.737 930.993 Q158.737 938.1 160.543 941.664 Q162.372 945.206 165.983 945.206 Q169.617 945.206 171.422 941.664 Q173.251 938.1 173.251 930.993 Q173.251 923.864 171.422 920.322 Q169.617 916.757 165.983 916.757 M165.983 913.054 Q171.793 913.054 174.848 917.66 Q177.927 922.243 177.927 930.993 Q177.927 939.72 174.848 944.327 Q171.793 948.91 165.983 948.91 Q160.173 948.91 157.094 944.327 Q154.038 939.72 154.038 930.993 Q154.038 922.243 157.094 917.66 Q160.173 913.054 165.983 913.054 Z" fill="#000000" fill-rule="evenodd" fill-opacity="1" /><path clip-path="url(#clip970)" d="M186.145 942.359 L191.029 942.359 L191.029 948.239 L186.145 948.239 L186.145 942.359 Z" fill="#000000" fill-rule="evenodd" fill-opacity="1" /><path clip-path="url(#clip970)" d="M211.214 916.757 Q207.603 916.757 205.774 920.322 Q203.969 923.864 203.969 930.993 Q203.969 938.1 205.774 941.664 Q207.603 945.206 211.214 945.206 Q214.848 945.206 216.654 941.664 Q218.482 938.1 218.482 930.993 Q218.482 923.864 216.654 920.322 Q214.848 916.757 211.214 916.757 M211.214 913.054 Q217.024 913.054 220.08 917.66 Q223.158 922.243 223.158 930.993 Q223.158 939.72 220.08 944.327 Q217.024 948.91 211.214 948.91 Q205.404 948.91 202.325 944.327 Q199.27 939.72 199.27 930.993 Q199.27 922.243 202.325 917.66 Q205.404 913.054 211.214 913.054 Z" fill="#000000" fill-rule="evenodd" fill-opacity="1" /><path clip-path="url(#clip970)" d="M166.978 537.904 Q163.367 537.904 161.538 541.469 Q159.733 545.011 159.733 552.14 Q159.733 559.247 161.538 562.811 Q163.367 566.353 166.978 566.353 Q170.612 566.353 172.418 562.811 Q174.247 559.247 174.247 552.14 Q174.247 545.011 172.418 541.469 Q170.612 537.904 166.978 537.904 M166.978 534.201 Q172.788 534.201 175.844 538.807 Q178.922 543.39 178.922 552.14 Q178.922 560.867 175.844 565.474 Q172.788 570.057 166.978 570.057 Q161.168 570.057 158.089 565.474 Q155.034 560.867 155.034 552.14 Q155.034 543.39 158.089 538.807 Q161.168 534.201 166.978 534.201 Z" fill="#000000" fill-rule="evenodd" fill-opacity="1" /><path clip-path="url(#clip970)" d="M187.14 563.506 L192.024 563.506 L192.024 569.386 L187.14 569.386 L187.14 563.506 Z" fill="#000000" fill-rule="evenodd" fill-opacity="1" /><path clip-path="url(#clip970)" d="M202.256 534.826 L220.612 534.826 L220.612 538.761 L206.538 538.761 L206.538 547.233 Q207.557 546.886 208.575 546.724 Q209.594 546.538 210.612 546.538 Q216.399 546.538 219.779 549.71 Q223.158 552.881 223.158 558.298 Q223.158 563.876 219.686 566.978 Q216.214 570.057 209.894 570.057 Q207.719 570.057 205.45 569.686 Q203.205 569.316 200.797 568.575 L200.797 563.876 Q202.881 565.011 205.103 565.566 Q207.325 566.122 209.802 566.122 Q213.807 566.122 216.144 564.015 Q218.482 561.909 218.482 558.298 Q218.482 554.687 216.144 552.58 Q213.807 550.474 209.802 550.474 Q207.927 550.474 206.052 550.89 Q204.2 551.307 202.256 552.187 L202.256 534.826 Z" fill="#000000" fill-rule="evenodd" fill-opacity="1" /><path clip-path="url(#clip970)" d="M156.793 186.597 L164.432 186.597 L164.432 160.232 L156.122 161.898 L156.122 157.639 L164.385 155.973 L169.061 155.973 L169.061 186.597 L176.7 186.597 L176.7 190.533 L156.793 190.533 L156.793 186.597 Z" fill="#000000" fill-rule="evenodd" fill-opacity="1" /><path clip-path="url(#clip970)" d="M186.145 184.653 L191.029 184.653 L191.029 190.533 L186.145 190.533 L186.145 184.653 Z" fill="#000000" fill-rule="evenodd" fill-opacity="1" /><path clip-path="url(#clip970)" d="M211.214 159.051 Q207.603 159.051 205.774 162.616 Q203.969 166.158 203.969 173.287 Q203.969 180.394 205.774 183.958 Q207.603 187.5 211.214 187.5 Q214.848 187.5 216.654 183.958 Q218.482 180.394 218.482 173.287 Q218.482 166.158 216.654 162.616 Q214.848 159.051 211.214 159.051 M211.214 155.348 Q217.024 155.348 220.08 159.954 Q223.158 164.537 223.158 173.287 Q223.158 182.014 220.08 186.62 Q217.024 191.204 211.214 191.204 Q205.404 191.204 202.325 186.62 Q199.27 182.014 199.27 173.287 Q199.27 164.537 202.325 159.954 Q205.404 155.348 211.214 155.348 Z" fill="#000000" fill-rule="evenodd" fill-opacity="1" /><path clip-path="url(#clip970)" d="M12.1132 1111.34 L16.983 1111.34 L16.983 1116.94 Q16.983 1120.1 18.2562 1121.34 Q19.5293 1122.55 22.8395 1122.55 L25.9905 1122.55 L25.9905 1112.9 L30.542 1112.9 L30.542 1122.55 L61.6384 1122.55 L61.6384 1128.43 L30.542 1128.43 L30.542 1134.04 L25.9905 1134.04 L25.9905 1128.43 L23.5079 1128.43 Q17.5559 1128.43 14.8505 1125.67 Q12.1132 1122.9 12.1132 1116.88 L12.1132 1111.34 Z" fill="#000000" fill-rule="evenodd" fill-opacity="1" /><path clip-path="url(#clip970)" d="M12.1769 1092.37 Q19.4975 1096.64 26.6589 1098.71 Q33.8203 1100.78 41.1727 1100.78 Q48.5251 1100.78 55.7502 1098.71 Q62.9434 1096.61 70.2321 1092.37 L70.2321 1097.47 Q62.7524 1102.24 55.5274 1104.63 Q48.3023 1106.98 41.1727 1106.98 Q34.0749 1106.98 26.8817 1104.63 Q19.6884 1102.27 12.1769 1097.47 L12.1769 1092.37 Z" fill="#000000" fill-rule="evenodd" fill-opacity="1" /><path clip-path="url(#clip970)" d="M25.9905 1051.38 L43.337 1064.27 L61.6384 1050.71 L61.6384 1057.62 L47.6339 1067.99 L61.6384 1078.37 L61.6384 1085.28 L42.9869 1071.43 L25.9905 1084.1 L25.9905 1077.19 L38.6901 1067.74 L25.9905 1058.28 L25.9905 1051.38 Z" fill="#000000" fill-rule="evenodd" fill-opacity="1" /><path clip-path="url(#clip970)" d="M12.1769 1043.36 L12.1769 1038.26 Q19.6884 1033.49 26.8817 1031.13 Q34.0749 1028.75 41.1727 1028.75 Q48.3023 1028.75 55.5274 1031.13 Q62.7524 1033.49 70.2321 1038.26 L70.2321 1043.36 Q62.9434 1039.12 55.7502 1037.05 Q48.5251 1034.95 41.1727 1034.95 Q33.8203 1034.95 26.6589 1037.05 Q19.4975 1039.12 12.1769 1043.36 Z" fill="#000000" fill-rule="evenodd" fill-opacity="1" /><path clip-path="url(#clip970)" d="M32.0379 995.519 L32.0379 954.715 L37.3851 954.715 L37.3851 995.519 L32.0379 995.519 M45.0239 995.519 L45.0239 954.715 L50.4348 954.715 L50.4348 995.519 L45.0239 995.519 Z" fill="#000000" fill-rule="evenodd" fill-opacity="1" /><path clip-path="url(#clip970)" d="M27.0408 898.219 L32.579 898.219 Q31.3059 900.702 30.6693 903.375 Q30.0327 906.049 30.0327 908.913 Q30.0327 913.274 31.3695 915.47 Q32.7063 917.634 35.3799 917.634 Q37.4169 917.634 38.5946 916.075 Q39.7404 914.515 40.7908 909.804 L41.2364 907.799 Q42.5732 901.561 45.0239 898.951 Q47.4429 896.309 51.8034 896.309 Q56.7687 896.309 59.6651 900.256 Q62.5615 904.171 62.5615 911.046 Q62.5615 913.91 61.9886 917.03 Q61.4475 920.117 60.3335 923.554 L54.2861 923.554 Q55.973 920.308 56.8323 917.157 Q57.6599 914.006 57.6599 910.918 Q57.6599 906.781 56.2594 904.553 Q54.8271 902.325 52.249 902.325 Q49.8619 902.325 48.5887 903.948 Q47.3156 905.539 46.1379 910.982 L45.6605 913.019 Q44.5147 918.462 42.1594 920.881 Q39.7722 923.3 35.6345 923.3 Q30.6056 923.3 27.8684 919.735 Q25.1311 916.17 25.1311 909.614 Q25.1311 906.367 25.6085 903.502 Q26.086 900.638 27.0408 898.219 Z" fill="#000000" fill-rule="evenodd" fill-opacity="1" /><path clip-path="url(#clip970)" d="M42.3504 856.492 L45.2149 856.492 L45.2149 883.419 Q51.2623 883.037 54.4452 879.79 Q57.5962 876.512 57.5962 870.687 Q57.5962 867.313 56.7687 864.162 Q55.9411 860.98 54.2861 857.86 L59.8242 857.86 Q61.161 861.011 61.8612 864.322 Q62.5615 867.632 62.5615 871.037 Q62.5615 879.567 57.5962 884.564 Q52.631 889.53 44.1646 889.53 Q35.4117 889.53 30.2873 884.819 Q25.1311 880.077 25.1311 872.056 Q25.1311 864.863 29.7781 860.693 Q34.3932 856.492 42.3504 856.492 M40.6316 862.348 Q35.8255 862.412 32.9609 865.054 Q30.0964 867.664 30.0964 871.992 Q30.0964 876.894 32.8654 879.854 Q35.6345 882.782 40.6634 883.228 L40.6316 862.348 Z" fill="#000000" fill-rule="evenodd" fill-opacity="1" /><path clip-path="url(#clip970)" d="M40.1224 817.247 L61.6384 817.247 L61.6384 823.104 L40.3133 823.104 Q35.2526 823.104 32.7381 825.077 Q30.2237 827.05 30.2237 830.997 Q30.2237 835.739 33.2474 838.477 Q36.2711 841.214 41.491 841.214 L61.6384 841.214 L61.6384 847.102 L25.9905 847.102 L25.9905 841.214 L31.5287 841.214 Q28.314 839.113 26.7225 836.281 Q25.1311 833.416 25.1311 829.692 Q25.1311 823.549 28.9505 820.398 Q32.7381 817.247 40.1224 817.247 Z" fill="#000000" fill-rule="evenodd" fill-opacity="1" /><path clip-path="url(#clip970)" d="M12.1769 791.498 Q19.4975 795.763 26.6589 797.832 Q33.8203 799.901 41.1727 799.901 Q48.5251 799.901 55.7502 797.832 Q62.9434 795.731 70.2321 791.498 L70.2321 796.59 Q62.7524 801.365 55.5274 803.752 Q48.3023 806.107 41.1727 806.107 Q34.0749 806.107 26.8817 803.752 Q19.6884 801.397 12.1769 796.59 L12.1769 791.498 Z" fill="#000000" fill-rule="evenodd" fill-opacity="1" /><path clip-path="url(#clip970)" d="M25.9905 750.503 L43.337 763.393 L61.6384 749.834 L61.6384 756.741 L47.6339 767.117 L61.6384 777.493 L61.6384 784.4 L42.9869 770.555 L25.9905 783.222 L25.9905 776.316 L38.6901 766.863 L25.9905 757.409 L25.9905 750.503 Z" fill="#000000" fill-rule="evenodd" fill-opacity="1" /><path clip-path="url(#clip970)" d="M12.1769 742.482 L12.1769 737.389 Q19.6884 732.615 26.8817 730.26 Q34.0749 727.873 41.1727 727.873 Q48.3023 727.873 55.5274 730.26 Q62.7524 732.615 70.2321 737.389 L70.2321 742.482 Q62.9434 738.249 55.7502 736.18 Q48.5251 734.079 41.1727 734.079 Q33.8203 734.079 26.6589 736.18 Q19.4975 738.249 12.1769 742.482 Z" fill="#000000" fill-rule="evenodd" fill-opacity="1" /><path clip-path="url(#clip970)" d="M1163.92 63.9476 L1163.92 47.7034 L1150.55 47.7034 L1150.55 40.9789 L1172.02 40.9789 L1172.02 66.9452 Q1167.28 70.3075 1161.57 72.0494 Q1155.85 73.7508 1149.37 73.7508 Q1135.19 73.7508 1127.17 65.4869 Q1119.19 57.1826 1119.19 42.3968 Q1119.19 27.5705 1127.17 19.3066 Q1135.19 11.0023 1149.37 11.0023 Q1155.29 11.0023 1160.59 12.4606 Q1165.94 13.9189 1170.44 16.7545 L1170.44 25.464 Q1165.9 21.6156 1160.8 19.6712 Q1155.69 17.7268 1150.06 17.7268 Q1138.96 17.7268 1133.37 23.9246 Q1127.82 30.1225 1127.82 42.3968 Q1127.82 54.6305 1133.37 60.8284 Q1138.96 67.0263 1150.06 67.0263 Q1154.4 67.0263 1157.8 66.2971 Q1161.2 65.5274 1163.92 63.9476 Z" fill="#000000" fill-rule="evenodd" fill-opacity="1" /><path clip-path="url(#clip970)" d="M1212.93 34.1734 Q1211.68 33.4443 1210.18 33.1202 Q1208.72 32.7556 1206.94 32.7556 Q1200.62 32.7556 1197.21 36.8875 Q1193.85 40.9789 1193.85 48.6757 L1193.85 72.576 L1186.36 72.576 L1186.36 27.2059 L1193.85 27.2059 L1193.85 34.2544 Q1196.2 30.1225 1199.97 28.1376 Q1203.74 26.1121 1209.12 26.1121 Q1209.89 26.1121 1210.83 26.2337 Q1211.76 26.3147 1212.89 26.5172 L1212.93 34.1734 Z" fill="#000000" fill-rule="evenodd" fill-opacity="1" /><path clip-path="url(#clip970)" d="M1241.37 49.7694 Q1232.34 49.7694 1228.85 51.8354 Q1225.37 53.9013 1225.37 58.8839 Q1225.37 62.8538 1227.96 65.2034 Q1230.59 67.5124 1235.09 67.5124 Q1241.29 67.5124 1245.01 63.1374 Q1248.78 58.7219 1248.78 51.4303 L1248.78 49.7694 L1241.37 49.7694 M1256.24 46.6907 L1256.24 72.576 L1248.78 72.576 L1248.78 65.6895 Q1246.23 69.8214 1242.42 71.8063 Q1238.61 73.7508 1233.1 73.7508 Q1226.14 73.7508 1222.01 69.8619 Q1217.91 65.9325 1217.91 59.3701 Q1217.91 51.7138 1223.02 47.825 Q1228.16 43.9361 1238.33 43.9361 L1248.78 43.9361 L1248.78 43.2069 Q1248.78 38.0623 1245.38 35.2672 Q1242.02 32.4315 1235.9 32.4315 Q1232.01 32.4315 1228.32 33.3632 Q1224.64 34.295 1221.24 36.1584 L1221.24 29.2718 Q1225.33 27.692 1229.18 26.9223 Q1233.02 26.1121 1236.67 26.1121 Q1246.51 26.1121 1251.37 31.2163 Q1256.24 36.3204 1256.24 46.6907 M1242.62 6.22219 L1250.69 6.22219 L1237.48 21.4536 L1231.28 21.4536 L1242.62 6.22219 Z" fill="#000000" fill-rule="evenodd" fill-opacity="1" /><path clip-path="url(#clip970)" d="M1294.56 9.54393 L1294.56 15.7418 L1287.43 15.7418 Q1283.42 15.7418 1281.84 17.3622 Q1280.3 18.9825 1280.3 23.1955 L1280.3 27.2059 L1292.57 27.2059 L1292.57 32.9987 L1280.3 32.9987 L1280.3 72.576 L1272.8 72.576 L1272.8 32.9987 L1265.67 32.9987 L1265.67 27.2059 L1272.8 27.2059 L1272.8 24.0462 Q1272.8 16.471 1276.33 13.0277 Q1279.85 9.54393 1287.51 9.54393 L1294.56 9.54393 Z" fill="#000000" fill-rule="evenodd" fill-opacity="1" /><path clip-path="url(#clip970)" d="M1300.8 27.2059 L1308.25 27.2059 L1308.25 72.576 L1300.8 72.576 L1300.8 27.2059 M1300.8 9.54393 L1308.25 9.54393 L1308.25 18.9825 L1300.8 18.9825 L1300.8 9.54393 Z" fill="#000000" fill-rule="evenodd" fill-opacity="1" /><path clip-path="url(#clip970)" d="M1356.5 28.9478 L1356.5 35.9153 Q1353.34 34.1734 1350.14 33.3227 Q1346.98 32.4315 1343.74 32.4315 Q1336.48 32.4315 1332.47 37.0496 Q1328.46 41.6271 1328.46 49.9314 Q1328.46 58.2358 1332.47 62.8538 Q1336.48 67.4314 1343.74 67.4314 Q1346.98 67.4314 1350.14 66.5807 Q1353.34 65.6895 1356.5 63.9476 L1356.5 70.8341 Q1353.38 72.2924 1350.01 73.0216 Q1346.69 73.7508 1342.92 73.7508 Q1332.68 73.7508 1326.64 67.3098 Q1320.6 60.8689 1320.6 49.9314 Q1320.6 38.832 1326.68 32.472 Q1332.8 26.1121 1343.41 26.1121 Q1346.85 26.1121 1350.14 26.8413 Q1353.42 27.5299 1356.5 28.9478 Z" fill="#000000" fill-rule="evenodd" fill-opacity="1" /><path clip-path="url(#clip970)" d="M1390.08 49.7694 Q1381.04 49.7694 1377.56 51.8354 Q1374.08 53.9013 1374.08 58.8839 Q1374.08 62.8538 1376.67 65.2034 Q1379.3 67.5124 1383.8 67.5124 Q1390 67.5124 1393.72 63.1374 Q1397.49 58.7219 1397.49 51.4303 L1397.49 49.7694 L1390.08 49.7694 M1404.94 46.6907 L1404.94 72.576 L1397.49 72.576 L1397.49 65.6895 Q1394.94 69.8214 1391.13 71.8063 Q1387.32 73.7508 1381.81 73.7508 Q1374.85 73.7508 1370.71 69.8619 Q1366.62 65.9325 1366.62 59.3701 Q1366.62 51.7138 1371.73 47.825 Q1376.87 43.9361 1387.04 43.9361 L1397.49 43.9361 L1397.49 43.2069 Q1397.49 38.0623 1394.09 35.2672 Q1390.73 32.4315 1384.61 32.4315 Q1380.72 32.4315 1377.03 33.3632 Q1373.35 34.295 1369.94 36.1584 L1369.94 29.2718 Q1374.04 27.692 1377.88 26.9223 Q1381.73 26.1121 1385.38 26.1121 Q1395.22 26.1121 1400.08 31.2163 Q1404.94 36.3204 1404.94 46.6907 Z" fill="#000000" fill-rule="evenodd" fill-opacity="1" /><path clip-path="url(#clip970)" d="M1476.52 34.0924 L1476.52 9.54393 L1483.98 9.54393 L1483.98 72.576 L1476.52 72.576 L1476.52 65.7705 Q1474.17 69.8214 1470.57 71.8063 Q1467 73.7508 1461.98 73.7508 Q1453.76 73.7508 1448.57 67.1883 Q1443.43 60.6258 1443.43 49.9314 Q1443.43 39.2371 1448.57 32.6746 Q1453.76 26.1121 1461.98 26.1121 Q1467 26.1121 1470.57 28.0971 Q1474.17 30.0415 1476.52 34.0924 M1451.12 49.9314 Q1451.12 58.1548 1454.49 62.8538 Q1457.89 67.5124 1463.8 67.5124 Q1469.72 67.5124 1473.12 62.8538 Q1476.52 58.1548 1476.52 49.9314 Q1476.52 41.7081 1473.12 37.0496 Q1469.72 32.3505 1463.8 32.3505 Q1457.89 32.3505 1454.49 37.0496 Q1451.12 41.7081 1451.12 49.9314 Z" fill="#000000" fill-rule="evenodd" fill-opacity="1" /><path clip-path="url(#clip970)" d="M1538.14 48.0275 L1538.14 51.6733 L1503.87 51.6733 Q1504.35 59.3701 1508.49 63.421 Q1512.66 67.4314 1520.07 67.4314 Q1524.36 67.4314 1528.38 66.3781 Q1532.43 65.3249 1536.4 63.2184 L1536.4 70.267 Q1532.39 71.9684 1528.17 72.8596 Q1523.96 73.7508 1519.63 73.7508 Q1508.77 73.7508 1502.41 67.4314 Q1496.09 61.1119 1496.09 50.3365 Q1496.09 39.1965 1502.09 32.6746 Q1508.12 26.1121 1518.33 26.1121 Q1527.48 26.1121 1532.79 32.0264 Q1538.14 37.9003 1538.14 48.0275 M1530.68 45.84 Q1530.6 39.7232 1527.24 36.0774 Q1523.92 32.4315 1518.41 32.4315 Q1512.17 32.4315 1508.4 35.9558 Q1504.68 39.4801 1504.11 45.8805 L1530.68 45.84 Z" fill="#000000" fill-rule="evenodd" fill-opacity="1" /><path clip-path="url(#clip970)" d="M1550.37 9.54393 L1557.83 9.54393 L1557.83 72.576 L1550.37 72.576 L1550.37 9.54393 Z" fill="#000000" fill-rule="evenodd" fill-opacity="1" /><path clip-path="url(#clip970)" d="M1628.72 28.5427 L1628.72 35.5912 Q1625.56 33.9709 1622.15 33.1607 Q1618.75 32.3505 1615.11 32.3505 Q1609.56 32.3505 1606.76 34.0519 Q1604.01 35.7533 1604.01 39.156 Q1604.01 41.7486 1605.99 43.2475 Q1607.98 44.7058 1613.97 46.0426 L1616.52 46.6097 Q1624.46 48.3111 1627.78 51.4303 Q1631.15 54.509 1631.15 60.0587 Q1631.15 66.3781 1626.12 70.0644 Q1621.14 73.7508 1612.39 73.7508 Q1608.75 73.7508 1604.78 73.0216 Q1600.85 72.3329 1596.47 70.9151 L1596.47 63.2184 Q1600.6 65.3654 1604.61 66.4591 Q1608.62 67.5124 1612.55 67.5124 Q1617.82 67.5124 1620.65 65.73 Q1623.49 63.9071 1623.49 60.6258 Q1623.49 57.5877 1621.42 55.9673 Q1619.4 54.3469 1612.47 52.8481 L1609.88 52.2405 Q1602.95 50.7821 1599.87 47.7845 Q1596.8 44.7463 1596.8 39.4801 Q1596.8 33.0797 1601.33 29.5959 Q1605.87 26.1121 1614.21 26.1121 Q1618.35 26.1121 1621.99 26.7198 Q1625.64 27.3274 1628.72 28.5427 Z" fill="#000000" fill-rule="evenodd" fill-opacity="1" /><path clip-path="url(#clip970)" d="M1681.82 48.0275 L1681.82 51.6733 L1647.55 51.6733 Q1648.04 59.3701 1652.17 63.421 Q1656.34 67.4314 1663.76 67.4314 Q1668.05 67.4314 1672.06 66.3781 Q1676.11 65.3249 1680.08 63.2184 L1680.08 70.267 Q1676.07 71.9684 1671.86 72.8596 Q1667.65 73.7508 1663.31 73.7508 Q1652.45 73.7508 1646.09 67.4314 Q1639.78 61.1119 1639.78 50.3365 Q1639.78 39.1965 1645.77 32.6746 Q1651.81 26.1121 1662.01 26.1121 Q1671.17 26.1121 1676.48 32.0264 Q1681.82 37.9003 1681.82 48.0275 M1674.37 45.84 Q1674.29 39.7232 1670.93 36.0774 Q1667.6 32.4315 1662.1 32.4315 Q1655.86 32.4315 1652.09 35.9558 Q1648.36 39.4801 1647.8 45.8805 L1674.37 45.84 Z" fill="#000000" fill-rule="evenodd" fill-opacity="1" /><path clip-path="url(#clip970)" d="M1731.77 45.1919 L1731.77 72.576 L1724.32 72.576 L1724.32 45.4349 Q1724.32 38.994 1721.81 35.7938 Q1719.29 32.5936 1714.27 32.5936 Q1708.24 32.5936 1704.75 36.4419 Q1701.27 40.2903 1701.27 46.9338 L1701.27 72.576 L1693.77 72.576 L1693.77 27.2059 L1701.27 27.2059 L1701.27 34.2544 Q1703.94 30.163 1707.55 28.1376 Q1711.19 26.1121 1715.93 26.1121 Q1723.75 26.1121 1727.76 30.9732 Q1731.77 35.7938 1731.77 45.1919 Z" fill="#000000" fill-rule="evenodd" fill-opacity="1" /><path clip-path="url(#clip970)" d="M1764.22 32.4315 Q1758.22 32.4315 1754.74 37.1306 Q1751.26 41.7891 1751.26 49.9314 Q1751.26 58.0738 1754.7 62.7728 Q1758.18 67.4314 1764.22 67.4314 Q1770.17 67.4314 1773.66 62.7323 Q1777.14 58.0333 1777.14 49.9314 Q1777.14 41.8701 1773.66 37.1711 Q1770.17 32.4315 1764.22 32.4315 M1764.22 26.1121 Q1773.94 26.1121 1779.49 32.4315 Q1785.04 38.7509 1785.04 49.9314 Q1785.04 61.0714 1779.49 67.4314 Q1773.94 73.7508 1764.22 73.7508 Q1754.46 73.7508 1748.91 67.4314 Q1743.4 61.0714 1743.4 49.9314 Q1743.4 38.7509 1748.91 32.4315 Q1754.46 26.1121 1764.22 26.1121 Z" fill="#000000" fill-rule="evenodd" fill-opacity="1" /><polyline clip-path="url(#clip972)" style="stroke:#008000; stroke-linecap:butt; stroke-linejoin:round; stroke-width:12; stroke-opacity:1; fill:none" stroke-dasharray="48, 30" points="
  330.76,930.959 338.06,946.455 345.361,961.945 379.114,1033.29 412.866,1103.72 446.619,1172.61 480.371,1239.33 500.655,1278.15 520.939,1315.84 541.223,1352.29 
  561.507,1387.37 578.656,1415.9 595.806,1443.3 612.956,1469.52 630.106,1494.49 648.735,1520.15 667.364,1544.2 685.994,1566.58 704.623,1587.23 721.798,1604.69 
  738.973,1620.59 756.147,1634.89 773.322,1647.56 791.735,1659.3 810.148,1669.1 828.561,1676.94 846.974,1682.79 868.308,1687.07 889.641,1688.65 910.974,1687.53 
  932.308,1683.7 951.266,1678.05 970.225,1670.28 989.183,1660.43 1008.14,1648.52 1024.77,1636.42 1041.39,1622.78 1058.02,1607.64 1074.64,1591.03 1092.77,1571.3 
  1110.89,1549.91 1129.02,1526.93 1147.14,1502.41 1165.38,1476.26 1183.61,1448.68 1201.84,1419.76 1220.08,1389.56 1240.24,1354.78 1260.4,1318.65 1280.56,1281.28 
  1300.72,1242.8 1339.08,1166.93 1377.44,1088.33 1457.22,920.136 1524.37,778.627 1565.36,694.574 1606.36,613.635 1625.13,577.896 1643.91,543.134 1662.69,509.444 
  1681.46,476.921 1698.8,447.997 1716.15,420.213 1733.49,393.634 1750.83,368.324 1768.4,344.039 1785.96,321.175 1803.53,299.788 1821.09,279.929 1840.78,259.549 
  1860.47,241.21 1880.16,224.969 1899.84,210.876 1917.68,199.995 1935.52,190.94 1953.36,183.732 1971.2,178.391 1991.63,174.585 2012.05,173.254 2032.48,174.404 
  2052.9,178.03 2071.81,183.586 2090.72,191.239 2109.64,200.969 2128.55,212.747 2147.19,226.332 2165.84,241.84 2184.48,259.227 2203.13,278.447 2221.23,298.811 
  2239.33,320.801 2257.44,344.36 2275.54,369.428 2294.1,396.623 2312.65,425.263 2331.21,455.27 2349.77,486.561 2370.1,522.221 2390.43,559.206 2410.76,597.397 
  2431.1,636.67 2490.17,755.715 2549.24,879.548 2561.36,905.238 2573.47,930.959 
  "/>
</svg>
