<?xml version="1.0" encoding="utf-8"?>
<svg xmlns="http://www.w3.org/2000/svg" xmlns:xlink="http://www.w3.org/1999/xlink" width="528" height="336" viewBox="0 0 2112 1344">
<defs>
  <clipPath id="clip970">
    <rect x="0" y="0" width="2112" height="1344"/>
  </clipPath>
</defs>
<path clip-path="url(#clip970)" d="M0 1344 L2112 1344 L2112 0 L0 0  Z" fill="#ffffff" fill-rule="evenodd" fill-opacity="1"/>
<defs>
  <clipPath id="clip971">
    <rect x="422" y="0" width="1479" height="1344"/>
  </clipPath>
</defs>
<path clip-path="url(#clip970)" d="M183.394 1234.58 L2064.76 1234.58 L2064.76 47.2441 L183.394 47.2441  Z" fill="#ffffff" fill-rule="evenodd" fill-opacity="1"/>
<defs>
  <clipPath id="clip972">
    <rect x="183" y="47" width="1882" height="1188"/>
  </clipPath>
</defs>
<polyline clip-path="url(#clip972)" style="stroke:#000000; stroke-linecap:round; stroke-linejoin:round; stroke-width:2; stroke-opacity:0.1; fill:none" points="236.64,1234.58 236.64,47.2441 "/>
<polyline clip-path="url(#clip972)" style="stroke:#000000; stroke-linecap:round; stroke-linejoin:round; stroke-width:2; stroke-opacity:0.1; fill:none" points="532.452,1234.58 532.452,47.2441 "/>
<polyline clip-path="url(#clip972)" style="stroke:#000000; stroke-linecap:round; stroke-linejoin:round; stroke-width:2; stroke-opacity:0.1; fill:none" points="828.263,1234.58 828.263,47.2441 "/>
<polyline clip-path="url(#clip972)" style="stroke:#000000; stroke-linecap:round; stroke-linejoin:round; stroke-width:2; stroke-opacity:0.1; fill:none" points="1124.07,1234.58 1124.07,47.2441 "/>
<polyline clip-path="url(#clip972)" style="stroke:#000000; stroke-linecap:round; stroke-linejoin:round; stroke-width:2; stroke-opacity:0.1; fill:none" points="1419.89,1234.58 1419.89,47.2441 "/>
<polyline clip-path="url(#clip972)" style="stroke:#000000; stroke-linecap:round; stroke-linejoin:round; stroke-width:2; stroke-opacity:0.1; fill:none" points="1715.7,1234.58 1715.7,47.2441 "/>
<polyline clip-path="url(#clip972)" style="stroke:#000000; stroke-linecap:round; stroke-linejoin:round; stroke-width:2; stroke-opacity:0.1; fill:none" points="2011.51,1234.58 2011.51,47.2441 "/>
<polyline clip-path="url(#clip970)" style="stroke:#000000; stroke-linecap:round; stroke-linejoin:round; stroke-width:4; stroke-opacity:1; fill:none" points="183.394,1234.58 2064.76,1234.58 "/>
<polyline clip-path="url(#clip970)" style="stroke:#000000; stroke-linecap:round; stroke-linejoin:round; stroke-width:4; stroke-opacity:1; fill:none" points="236.64,1234.58 236.64,1215.68 "/>
<polyline clip-path="url(#clip970)" style="stroke:#000000; stroke-linecap:round; stroke-linejoin:round; stroke-width:4; stroke-opacity:1; fill:none" points="532.452,1234.58 532.452,1215.68 "/>
<polyline clip-path="url(#clip970)" style="stroke:#000000; stroke-linecap:round; stroke-linejoin:round; stroke-width:4; stroke-opacity:1; fill:none" points="828.263,1234.58 828.263,1215.68 "/>
<polyline clip-path="url(#clip970)" style="stroke:#000000; stroke-linecap:round; stroke-linejoin:round; stroke-width:4; stroke-opacity:1; fill:none" points="1124.07,1234.58 1124.07,1215.68 "/>
<polyline clip-path="url(#clip970)" style="stroke:#000000; stroke-linecap:round; stroke-linejoin:round; stroke-width:4; stroke-opacity:1; fill:none" points="1419.89,1234.58 1419.89,1215.68 "/>
<polyline clip-path="url(#clip970)" style="stroke:#000000; stroke-linecap:round; stroke-linejoin:round; stroke-width:4; stroke-opacity:1; fill:none" points="1715.7,1234.58 1715.7,1215.68 "/>
<polyline clip-path="url(#clip970)" style="stroke:#000000; stroke-linecap:round; stroke-linejoin:round; stroke-width:4; stroke-opacity:1; fill:none" points="2011.51,1234.58 2011.51,1215.68 "/>
<path clip-path="url(#clip970)" d="M206.108 1277.85 L235.784 1277.85 L235.784 1281.78 L206.108 1281.78 L206.108 1277.85 Z" fill="#000000" fill-rule="nonzero" fill-opacity="1" /><path clip-path="url(#clip970)" d="M260.043 1276.04 Q263.399 1276.76 265.274 1279.03 Q267.172 1281.3 267.172 1284.63 Q267.172 1289.74 263.654 1292.55 Q260.135 1295.35 253.654 1295.35 Q251.478 1295.35 249.163 1294.91 Q246.872 1294.49 244.418 1293.63 L244.418 1289.12 Q246.362 1290.25 248.677 1290.83 Q250.992 1291.41 253.515 1291.41 Q257.913 1291.41 260.205 1289.67 Q262.52 1287.94 262.52 1284.63 Q262.52 1281.57 260.367 1279.86 Q258.237 1278.12 254.418 1278.12 L250.39 1278.12 L250.39 1274.28 L254.603 1274.28 Q258.052 1274.28 259.881 1272.92 Q261.709 1271.53 261.709 1268.93 Q261.709 1266.27 259.811 1264.86 Q257.936 1263.42 254.418 1263.42 Q252.496 1263.42 250.297 1263.84 Q248.098 1264.26 245.459 1265.14 L245.459 1260.97 Q248.122 1260.23 250.436 1259.86 Q252.774 1259.49 254.834 1259.49 Q260.158 1259.49 263.26 1261.92 Q266.362 1264.33 266.362 1268.45 Q266.362 1271.32 264.719 1273.31 Q263.075 1275.28 260.043 1276.04 Z" fill="#000000" fill-rule="nonzero" fill-opacity="1" /><path clip-path="url(#clip970)" d="M502.394 1277.85 L532.07 1277.85 L532.07 1281.78 L502.394 1281.78 L502.394 1277.85 Z" fill="#000000" fill-rule="nonzero" fill-opacity="1" /><path clip-path="url(#clip970)" d="M546.19 1290.74 L562.509 1290.74 L562.509 1294.67 L540.565 1294.67 L540.565 1290.74 Q543.227 1287.99 547.81 1283.36 Q552.417 1278.7 553.597 1277.36 Q555.843 1274.84 556.722 1273.1 Q557.625 1271.34 557.625 1269.65 Q557.625 1266.9 555.681 1265.16 Q553.759 1263.42 550.658 1263.42 Q548.459 1263.42 546.005 1264.19 Q543.574 1264.95 540.797 1266.5 L540.797 1261.78 Q543.621 1260.65 546.074 1260.07 Q548.528 1259.49 550.565 1259.49 Q555.935 1259.49 559.13 1262.17 Q562.324 1264.86 562.324 1269.35 Q562.324 1271.48 561.514 1273.4 Q560.727 1275.3 558.621 1277.89 Q558.042 1278.56 554.94 1281.78 Q551.838 1284.98 546.19 1290.74 Z" fill="#000000" fill-rule="nonzero" fill-opacity="1" /><path clip-path="url(#clip970)" d="M798.02 1277.85 L827.696 1277.85 L827.696 1281.78 L798.02 1281.78 L798.02 1277.85 Z" fill="#000000" fill-rule="nonzero" fill-opacity="1" /><path clip-path="url(#clip970)" d="M838.599 1290.74 L846.238 1290.74 L846.238 1264.37 L837.928 1266.04 L837.928 1261.78 L846.191 1260.11 L850.867 1260.11 L850.867 1290.74 L858.506 1290.74 L858.506 1294.67 L838.599 1294.67 L838.599 1290.74 Z" fill="#000000" fill-rule="nonzero" fill-opacity="1" /><path clip-path="url(#clip970)" d="M1124.07 1263.19 Q1120.46 1263.19 1118.64 1266.76 Q1116.83 1270.3 1116.83 1277.43 Q1116.83 1284.54 1118.64 1288.1 Q1120.46 1291.64 1124.07 1291.64 Q1127.71 1291.64 1129.51 1288.1 Q1131.34 1284.54 1131.34 1277.43 Q1131.34 1270.3 1129.51 1266.76 Q1127.71 1263.19 1124.07 1263.19 M1124.07 1259.49 Q1129.89 1259.49 1132.94 1264.1 Q1136.02 1268.68 1136.02 1277.43 Q1136.02 1286.16 1132.94 1290.76 Q1129.89 1295.35 1124.07 1295.35 Q1118.26 1295.35 1115.19 1290.76 Q1112.13 1286.16 1112.13 1277.43 Q1112.13 1268.68 1115.19 1264.1 Q1118.26 1259.49 1124.07 1259.49 Z" fill="#000000" fill-rule="nonzero" fill-opacity="1" /><path clip-path="url(#clip970)" d="M1410.27 1290.74 L1417.91 1290.74 L1417.91 1264.37 L1409.6 1266.04 L1409.6 1261.78 L1417.86 1260.11 L1422.54 1260.11 L1422.54 1290.74 L1430.18 1290.74 L1430.18 1294.67 L1410.27 1294.67 L1410.27 1290.74 Z" fill="#000000" fill-rule="nonzero" fill-opacity="1" /><path clip-path="url(#clip970)" d="M1710.35 1290.74 L1726.67 1290.74 L1726.67 1294.67 L1704.73 1294.67 L1704.73 1290.74 Q1707.39 1287.99 1711.97 1283.36 Q1716.58 1278.7 1717.76 1277.36 Q1720 1274.84 1720.88 1273.1 Q1721.79 1271.34 1721.79 1269.65 Q1721.79 1266.9 1719.84 1265.16 Q1717.92 1263.42 1714.82 1263.42 Q1712.62 1263.42 1710.17 1264.19 Q1707.74 1264.95 1704.96 1266.5 L1704.96 1261.78 Q1707.78 1260.65 1710.24 1260.07 Q1712.69 1259.49 1714.73 1259.49 Q1720.1 1259.49 1723.29 1262.17 Q1726.49 1264.86 1726.49 1269.35 Q1726.49 1271.48 1725.67 1273.4 Q1724.89 1275.3 1722.78 1277.89 Q1722.2 1278.56 1719.1 1281.78 Q1716 1284.98 1710.35 1290.74 Z" fill="#000000" fill-rule="nonzero" fill-opacity="1" /><path clip-path="url(#clip970)" d="M2015.76 1276.04 Q2019.11 1276.76 2020.99 1279.03 Q2022.89 1281.3 2022.89 1284.63 Q2022.89 1289.74 2019.37 1292.55 Q2015.85 1295.35 2009.37 1295.35 Q2007.19 1295.35 2004.88 1294.91 Q2002.59 1294.49 2000.13 1293.63 L2000.13 1289.12 Q2002.08 1290.25 2004.39 1290.83 Q2006.71 1291.41 2009.23 1291.41 Q2013.63 1291.41 2015.92 1289.67 Q2018.23 1287.94 2018.23 1284.63 Q2018.23 1281.57 2016.08 1279.86 Q2013.95 1278.12 2010.13 1278.12 L2006.1 1278.12 L2006.1 1274.28 L2010.32 1274.28 Q2013.77 1274.28 2015.6 1272.92 Q2017.42 1271.53 2017.42 1268.93 Q2017.42 1266.27 2015.53 1264.86 Q2013.65 1263.42 2010.13 1263.42 Q2008.21 1263.42 2006.01 1263.84 Q2003.81 1264.26 2001.17 1265.14 L2001.17 1260.97 Q2003.84 1260.23 2006.15 1259.86 Q2008.49 1259.49 2010.55 1259.49 Q2015.87 1259.49 2018.98 1261.92 Q2022.08 1264.33 2022.08 1268.45 Q2022.08 1271.32 2020.43 1273.31 Q2018.79 1275.28 2015.76 1276.04 Z" fill="#000000" fill-rule="nonzero" fill-opacity="1" /><polyline clip-path="url(#clip972)" style="stroke:#000000; stroke-linecap:round; stroke-linejoin:round; stroke-width:2; stroke-opacity:0.1; fill:none" points="183.394,1213.56 2064.76,1213.56 "/>
<polyline clip-path="url(#clip972)" style="stroke:#000000; stroke-linecap:round; stroke-linejoin:round; stroke-width:2; stroke-opacity:0.1; fill:none" points="183.394,930.357 2064.76,930.357 "/>
<polyline clip-path="url(#clip972)" style="stroke:#000000; stroke-linecap:round; stroke-linejoin:round; stroke-width:2; stroke-opacity:0.1; fill:none" points="183.394,647.155 2064.76,647.155 "/>
<polyline clip-path="url(#clip972)" style="stroke:#000000; stroke-linecap:round; stroke-linejoin:round; stroke-width:2; stroke-opacity:0.1; fill:none" points="183.394,363.954 2064.76,363.954 "/>
<polyline clip-path="url(#clip972)" style="stroke:#000000; stroke-linecap:round; stroke-linejoin:round; stroke-width:2; stroke-opacity:0.1; fill:none" points="183.394,80.7516 2064.76,80.7516 "/>
<polyline clip-path="url(#clip970)" style="stroke:#000000; stroke-linecap:round; stroke-linejoin:round; stroke-width:4; stroke-opacity:1; fill:none" points="183.394,1234.58 183.394,47.2441 "/>
<polyline clip-path="url(#clip970)" style="stroke:#000000; stroke-linecap:round; stroke-linejoin:round; stroke-width:4; stroke-opacity:1; fill:none" points="183.394,1213.56 202.292,1213.56 "/>
<polyline clip-path="url(#clip970)" style="stroke:#000000; stroke-linecap:round; stroke-linejoin:round; stroke-width:4; stroke-opacity:1; fill:none" points="183.394,930.357 202.292,930.357 "/>
<polyline clip-path="url(#clip970)" style="stroke:#000000; stroke-linecap:round; stroke-linejoin:round; stroke-width:4; stroke-opacity:1; fill:none" points="183.394,647.155 202.292,647.155 "/>
<polyline clip-path="url(#clip970)" style="stroke:#000000; stroke-linecap:round; stroke-linejoin:round; stroke-width:4; stroke-opacity:1; fill:none" points="183.394,363.954 202.292,363.954 "/>
<polyline clip-path="url(#clip970)" style="stroke:#000000; stroke-linecap:round; stroke-linejoin:round; stroke-width:4; stroke-opacity:1; fill:none" points="183.394,80.7516 202.292,80.7516 "/>
<path clip-path="url(#clip970)" d="M64.3765 1199.36 Q60.7654 1199.36 58.9367 1202.92 Q57.1312 1206.46 57.1312 1213.59 Q57.1312 1220.7 58.9367 1224.27 Q60.7654 1227.81 64.3765 1227.81 Q68.0107 1227.81 69.8163 1224.27 Q71.645 1220.7 71.645 1213.59 Q71.645 1206.46 69.8163 1202.92 Q68.0107 1199.36 64.3765 1199.36 M64.3765 1195.65 Q70.1867 1195.65 73.2422 1200.26 Q76.3209 1204.84 76.3209 1213.59 Q76.3209 1222.32 73.2422 1226.93 Q70.1867 1231.51 64.3765 1231.51 Q58.5664 1231.51 55.4877 1226.93 Q52.4321 1222.32 52.4321 1213.59 Q52.4321 1204.84 55.4877 1200.26 Q58.5664 1195.65 64.3765 1195.65 Z" fill="#000000" fill-rule="nonzero" fill-opacity="1" /><path clip-path="url(#clip970)" d="M84.5384 1224.96 L89.4227 1224.96 L89.4227 1230.84 L84.5384 1230.84 L84.5384 1224.96 Z" fill="#000000" fill-rule="nonzero" fill-opacity="1" /><path clip-path="url(#clip970)" d="M109.608 1199.36 Q105.997 1199.36 104.168 1202.92 Q102.362 1206.46 102.362 1213.59 Q102.362 1220.7 104.168 1224.27 Q105.997 1227.81 109.608 1227.81 Q113.242 1227.81 115.048 1224.27 Q116.876 1220.7 116.876 1213.59 Q116.876 1206.46 115.048 1202.92 Q113.242 1199.36 109.608 1199.36 M109.608 1195.65 Q115.418 1195.65 118.473 1200.26 Q121.552 1204.84 121.552 1213.59 Q121.552 1222.32 118.473 1226.93 Q115.418 1231.51 109.608 1231.51 Q103.798 1231.51 100.719 1226.93 Q97.6634 1222.32 97.6634 1213.59 Q97.6634 1204.84 100.719 1200.26 Q103.798 1195.65 109.608 1195.65 Z" fill="#000000" fill-rule="nonzero" fill-opacity="1" /><path clip-path="url(#clip970)" d="M139.77 1199.36 Q136.159 1199.36 134.33 1202.92 Q132.524 1206.46 132.524 1213.59 Q132.524 1220.7 134.33 1224.27 Q136.159 1227.81 139.77 1227.81 Q143.404 1227.81 145.209 1224.27 Q147.038 1220.7 147.038 1213.59 Q147.038 1206.46 145.209 1202.92 Q143.404 1199.36 139.77 1199.36 M139.77 1195.65 Q145.58 1195.65 148.635 1200.26 Q151.714 1204.84 151.714 1213.59 Q151.714 1222.32 148.635 1226.93 Q145.58 1231.51 139.77 1231.51 Q133.959 1231.51 130.881 1226.93 Q127.825 1222.32 127.825 1213.59 Q127.825 1204.84 130.881 1200.26 Q133.959 1195.65 139.77 1195.65 Z" fill="#000000" fill-rule="nonzero" fill-opacity="1" /><path clip-path="url(#clip970)" d="M65.3719 916.156 Q61.7608 916.156 59.9321 919.721 Q58.1265 923.263 58.1265 930.392 Q58.1265 937.499 59.9321 941.063 Q61.7608 944.605 65.3719 944.605 Q69.0061 944.605 70.8117 941.063 Q72.6404 937.499 72.6404 930.392 Q72.6404 923.263 70.8117 919.721 Q69.0061 916.156 65.3719 916.156 M65.3719 912.452 Q71.182 912.452 74.2376 917.059 Q77.3163 921.642 77.3163 930.392 Q77.3163 939.119 74.2376 943.725 Q71.182 948.309 65.3719 948.309 Q59.5617 948.309 56.483 943.725 Q53.4275 939.119 53.4275 930.392 Q53.4275 921.642 56.483 917.059 Q59.5617 912.452 65.3719 912.452 Z" fill="#000000" fill-rule="nonzero" fill-opacity="1" /><path clip-path="url(#clip970)" d="M85.5338 941.758 L90.418 941.758 L90.418 947.637 L85.5338 947.637 L85.5338 941.758 Z" fill="#000000" fill-rule="nonzero" fill-opacity="1" /><path clip-path="url(#clip970)" d="M104.631 943.702 L120.95 943.702 L120.95 947.637 L99.006 947.637 L99.006 943.702 Q101.668 940.948 106.251 936.318 Q110.858 931.665 112.038 930.323 Q114.284 927.8 115.163 926.063 Q116.066 924.304 116.066 922.614 Q116.066 919.86 114.122 918.124 Q112.2 916.388 109.098 916.388 Q106.899 916.388 104.446 917.151 Q102.015 917.915 99.2374 919.466 L99.2374 914.744 Q102.061 913.61 104.515 913.031 Q106.969 912.452 109.006 912.452 Q114.376 912.452 117.571 915.138 Q120.765 917.823 120.765 922.313 Q120.765 924.443 119.955 926.364 Q119.168 928.263 117.061 930.855 Q116.483 931.526 113.381 934.744 Q110.279 937.938 104.631 943.702 Z" fill="#000000" fill-rule="nonzero" fill-opacity="1" /><path clip-path="url(#clip970)" d="M130.811 913.077 L149.168 913.077 L149.168 917.013 L135.094 917.013 L135.094 925.485 Q136.112 925.138 137.131 924.975 Q138.149 924.79 139.168 924.79 Q144.955 924.79 148.334 927.962 Q151.714 931.133 151.714 936.549 Q151.714 942.128 148.242 945.23 Q144.77 948.309 138.45 948.309 Q136.274 948.309 134.006 947.938 Q131.76 947.568 129.353 946.827 L129.353 942.128 Q131.436 943.262 133.659 943.818 Q135.881 944.374 138.358 944.374 Q142.362 944.374 144.7 942.267 Q147.038 940.161 147.038 936.549 Q147.038 932.938 144.7 930.832 Q142.362 928.725 138.358 928.725 Q136.483 928.725 134.608 929.142 Q132.756 929.559 130.811 930.438 L130.811 913.077 Z" fill="#000000" fill-rule="nonzero" fill-opacity="1" /><path clip-path="url(#clip970)" d="M64.3765 632.954 Q60.7654 632.954 58.9367 636.519 Q57.1312 640.061 57.1312 647.19 Q57.1312 654.297 58.9367 657.861 Q60.7654 661.403 64.3765 661.403 Q68.0107 661.403 69.8163 657.861 Q71.645 654.297 71.645 647.19 Q71.645 640.061 69.8163 636.519 Q68.0107 632.954 64.3765 632.954 M64.3765 629.25 Q70.1867 629.25 73.2422 633.857 Q76.3209 638.44 76.3209 647.19 Q76.3209 655.917 73.2422 660.523 Q70.1867 665.107 64.3765 665.107 Q58.5664 665.107 55.4877 660.523 Q52.4321 655.917 52.4321 647.19 Q52.4321 638.44 55.4877 633.857 Q58.5664 629.25 64.3765 629.25 Z" fill="#000000" fill-rule="nonzero" fill-opacity="1" /><path clip-path="url(#clip970)" d="M84.5384 658.556 L89.4227 658.556 L89.4227 664.435 L84.5384 664.435 L84.5384 658.556 Z" fill="#000000" fill-rule="nonzero" fill-opacity="1" /><path clip-path="url(#clip970)" d="M99.6541 629.875 L118.01 629.875 L118.01 633.811 L103.936 633.811 L103.936 642.283 Q104.955 641.936 105.974 641.774 Q106.992 641.588 108.011 641.588 Q113.798 641.588 117.177 644.76 Q120.557 647.931 120.557 653.348 Q120.557 658.926 117.085 662.028 Q113.612 665.107 107.293 665.107 Q105.117 665.107 102.849 664.736 Q100.603 664.366 98.1958 663.625 L98.1958 658.926 Q100.279 660.06 102.501 660.616 Q104.724 661.172 107.2 661.172 Q111.205 661.172 113.543 659.065 Q115.881 656.959 115.881 653.348 Q115.881 649.736 113.543 647.63 Q111.205 645.524 107.2 645.524 Q105.325 645.524 103.45 645.94 Q101.599 646.357 99.6541 647.236 L99.6541 629.875 Z" fill="#000000" fill-rule="nonzero" fill-opacity="1" /><path clip-path="url(#clip970)" d="M139.77 632.954 Q136.159 632.954 134.33 636.519 Q132.524 640.061 132.524 647.19 Q132.524 654.297 134.33 657.861 Q136.159 661.403 139.77 661.403 Q143.404 661.403 145.209 657.861 Q147.038 654.297 147.038 647.19 Q147.038 640.061 145.209 636.519 Q143.404 632.954 139.77 632.954 M139.77 629.25 Q145.58 629.25 148.635 633.857 Q151.714 638.44 151.714 647.19 Q151.714 655.917 148.635 660.523 Q145.58 665.107 139.77 665.107 Q133.959 665.107 130.881 660.523 Q127.825 655.917 127.825 647.19 Q127.825 638.44 130.881 633.857 Q133.959 629.25 139.77 629.25 Z" fill="#000000" fill-rule="nonzero" fill-opacity="1" /><path clip-path="url(#clip970)" d="M65.3719 349.752 Q61.7608 349.752 59.9321 353.317 Q58.1265 356.859 58.1265 363.988 Q58.1265 371.095 59.9321 374.66 Q61.7608 378.201 65.3719 378.201 Q69.0061 378.201 70.8117 374.66 Q72.6404 371.095 72.6404 363.988 Q72.6404 356.859 70.8117 353.317 Q69.0061 349.752 65.3719 349.752 M65.3719 346.049 Q71.182 346.049 74.2376 350.655 Q77.3163 355.238 77.3163 363.988 Q77.3163 372.715 74.2376 377.322 Q71.182 381.905 65.3719 381.905 Q59.5617 381.905 56.483 377.322 Q53.4275 372.715 53.4275 363.988 Q53.4275 355.238 56.483 350.655 Q59.5617 346.049 65.3719 346.049 Z" fill="#000000" fill-rule="nonzero" fill-opacity="1" /><path clip-path="url(#clip970)" d="M85.5338 375.354 L90.418 375.354 L90.418 381.234 L85.5338 381.234 L85.5338 375.354 Z" fill="#000000" fill-rule="nonzero" fill-opacity="1" /><path clip-path="url(#clip970)" d="M99.4226 346.674 L121.645 346.674 L121.645 348.664 L109.098 381.234 L104.214 381.234 L116.02 350.609 L99.4226 350.609 L99.4226 346.674 Z" fill="#000000" fill-rule="nonzero" fill-opacity="1" /><path clip-path="url(#clip970)" d="M130.811 346.674 L149.168 346.674 L149.168 350.609 L135.094 350.609 L135.094 359.081 Q136.112 358.734 137.131 358.572 Q138.149 358.386 139.168 358.386 Q144.955 358.386 148.334 361.558 Q151.714 364.729 151.714 370.146 Q151.714 375.724 148.242 378.826 Q144.77 381.905 138.45 381.905 Q136.274 381.905 134.006 381.534 Q131.76 381.164 129.353 380.423 L129.353 375.724 Q131.436 376.859 133.659 377.414 Q135.881 377.97 138.358 377.97 Q142.362 377.97 144.7 375.863 Q147.038 373.757 147.038 370.146 Q147.038 366.535 144.7 364.428 Q142.362 362.322 138.358 362.322 Q136.483 362.322 134.608 362.738 Q132.756 363.155 130.811 364.035 L130.811 346.674 Z" fill="#000000" fill-rule="nonzero" fill-opacity="1" /><path clip-path="url(#clip970)" d="M55.1867 94.0965 L62.8256 94.0965 L62.8256 67.7309 L54.5154 69.3975 L54.5154 65.1383 L62.7793 63.4716 L67.4552 63.4716 L67.4552 94.0965 L75.094 94.0965 L75.094 98.0316 L55.1867 98.0316 L55.1867 94.0965 Z" fill="#000000" fill-rule="nonzero" fill-opacity="1" /><path clip-path="url(#clip970)" d="M84.5384 92.152 L89.4227 92.152 L89.4227 98.0316 L84.5384 98.0316 L84.5384 92.152 Z" fill="#000000" fill-rule="nonzero" fill-opacity="1" /><path clip-path="url(#clip970)" d="M109.608 66.5503 Q105.997 66.5503 104.168 70.1151 Q102.362 73.6568 102.362 80.7863 Q102.362 87.8928 104.168 91.4576 Q105.997 94.9992 109.608 94.9992 Q113.242 94.9992 115.048 91.4576 Q116.876 87.8928 116.876 80.7863 Q116.876 73.6568 115.048 70.1151 Q113.242 66.5503 109.608 66.5503 M109.608 62.8466 Q115.418 62.8466 118.473 67.4531 Q121.552 72.0364 121.552 80.7863 Q121.552 89.5131 118.473 94.1196 Q115.418 98.7029 109.608 98.7029 Q103.798 98.7029 100.719 94.1196 Q97.6634 89.5131 97.6634 80.7863 Q97.6634 72.0364 100.719 67.4531 Q103.798 62.8466 109.608 62.8466 Z" fill="#000000" fill-rule="nonzero" fill-opacity="1" /><path clip-path="url(#clip970)" d="M139.77 66.5503 Q136.159 66.5503 134.33 70.1151 Q132.524 73.6568 132.524 80.7863 Q132.524 87.8928 134.33 91.4576 Q136.159 94.9992 139.77 94.9992 Q143.404 94.9992 145.209 91.4576 Q147.038 87.8928 147.038 80.7863 Q147.038 73.6568 145.209 70.1151 Q143.404 66.5503 139.77 66.5503 M139.77 62.8466 Q145.58 62.8466 148.635 67.4531 Q151.714 72.0364 151.714 80.7863 Q151.714 89.5131 148.635 94.1196 Q145.58 98.7029 139.77 98.7029 Q133.959 98.7029 130.881 94.1196 Q127.825 89.5131 127.825 80.7863 Q127.825 72.0364 130.881 67.4531 Q133.959 62.8466 139.77 62.8466 Z" fill="#000000" fill-rule="nonzero" fill-opacity="1" /><polyline clip-path="url(#clip972)" style="stroke:#009af9; stroke-linecap:round; stroke-linejoin:round; stroke-width:4; stroke-opacity:1; fill:none" points="236.64,1200.97 239.529,1200.6 242.418,1200.22 245.307,1199.82 248.195,1199.42 274.907,1195.16 301.619,1189.82 328.33,1183.16 355.042,1174.96 371.094,1169.18 387.147,1162.68 403.199,1155.4 419.252,1147.28 446.396,1131.43 473.54,1112.64 488.284,1101.09 503.027,1088.53 517.77,1074.91 532.513,1060.19 546.105,1045.6 559.697,1030.02 573.289,1013.42 586.881,995.771 601.453,975.678 616.025,954.362 630.597,931.821 645.169,908.061 662.052,879.033 678.935,848.438 695.818,816.341 712.701,782.828 727.705,751.943 742.709,720.115 757.712,687.448 772.716,654.059 799.03,594.162 825.343,533.258 854.033,466.777 882.722,401.473 897.151,369.505 911.581,338.364 926.011,308.23 940.441,279.285 956.395,248.88 972.349,220.378 988.303,194.004 1004.26,169.969 1019.44,149.453 1034.62,131.386 1049.8,115.908 1064.98,103.135 1072.87,97.5982 1080.76,92.8314 1088.65,88.845 1096.54,85.6476 1104.43,83.2457 1112.33,81.6447 1120.22,80.8479 1128.11,80.857 1141.4,82.692 1154.68,86.7993 1167.97,93.1542 1181.26,101.719 1189.37,108.011 1197.48,115.094 1205.59,122.952 1213.7,131.568 1229.92,150.994 1246.14,173.204 1261,195.832 1275.86,220.476 1290.72,246.966 1305.58,275.121 1319.3,302.439 1333.03,330.864 1346.75,360.241 1360.47,390.414 1388.28,453.344 1416.08,517.638 1447.24,589.837 1478.4,660.714 1506.64,722.686 1534.87,781.664 1551.04,813.823 1567.2,844.69 1583.37,874.189 1599.53,902.26 1614.5,926.94 1629.46,950.339 1644.43,972.445 1659.4,993.259 1674.15,1012.52 1688.91,1030.56 1703.66,1047.39 1718.42,1063.05 1732.75,1077.17 1747.07,1090.25 1761.4,1102.34 1775.73,1113.47 1790.41,1123.95 1805.1,1133.53 1819.78,1142.26 1834.47,1150.2 1850.56,1158.04 1866.65,1165.06 1882.74,1171.31 1898.83,1176.86 1922.21,1183.82 1945.58,1189.6 1968.95,1194.38 1992.33,1198.3 1997.12,1199.02 2001.92,1199.7 2006.71,1200.35 2011.51,1200.97 "/>
<path clip-path="url(#clip970)" d="M1761.48 190.502 L2002.04 190.502 L2002.04 86.8219 L1761.48 86.8219  Z" fill="#ffffff" fill-rule="evenodd" fill-opacity="1"/>
<polyline clip-path="url(#clip970)" style="stroke:#000000; stroke-linecap:round; stroke-linejoin:round; stroke-width:4; stroke-opacity:1; fill:none" points="1761.48,190.502 2002.04,190.502 2002.04,86.8219 1761.48,86.8219 1761.48,190.502 "/>
<polyline clip-path="url(#clip970)" style="stroke:#009af9; stroke-linecap:round; stroke-linejoin:round; stroke-width:4; stroke-opacity:1; fill:none" points="1782.38,138.662 1907.81,138.662 "/>
<path clip-path="url(#clip970)" d="M1942.55 158.349 Q1940.75 162.979 1939.03 164.391 Q1937.32 165.803 1934.45 165.803 L1931.05 165.803 L1931.05 162.238 L1933.55 162.238 Q1935.31 162.238 1936.28 161.405 Q1937.25 160.572 1938.43 157.47 L1939.2 155.525 L1928.71 130.016 L1933.22 130.016 L1941.33 150.294 L1949.43 130.016 L1953.94 130.016 L1942.55 158.349 Z" fill="#000000" fill-rule="nonzero" fill-opacity="1" /><path clip-path="url(#clip970)" d="M1961.23 152.007 L1968.87 152.007 L1968.87 125.641 L1960.56 127.308 L1960.56 123.049 L1968.83 121.382 L1973.5 121.382 L1973.5 152.007 L1981.14 152.007 L1981.14 155.942 L1961.23 155.942 L1961.23 152.007 Z" fill="#000000" fill-rule="nonzero" fill-opacity="1" /></svg>
