<?xml version="1.0" encoding="utf-8"?>
<svg xmlns="http://www.w3.org/2000/svg" xmlns:xlink="http://www.w3.org/1999/xlink" width="528" height="336" viewBox="0 0 2112 1344">
<defs>
  <clipPath id="clip210">
    <rect x="0" y="0" width="2112" height="1344"/>
  </clipPath>
</defs>
<path clip-path="url(#clip210)" d="M0 1344 L2112 1344 L2112 0 L0 0  Z" fill="#ffffff" fill-rule="evenodd" fill-opacity="1"/>
<defs>
  <clipPath id="clip211">
    <rect x="422" y="0" width="1479" height="1344"/>
  </clipPath>
</defs>
<path clip-path="url(#clip210)" d="M175.987 1234.58 L2064.76 1234.58 L2064.76 47.2441 L175.987 47.2441  Z" fill="#ffffff" fill-rule="evenodd" fill-opacity="1"/>
<defs>
  <clipPath id="clip212">
    <rect x="175" y="47" width="1890" height="1188"/>
  </clipPath>
</defs>
<polyline clip-path="url(#clip212)" style="stroke:#000000; stroke-linecap:round; stroke-linejoin:round; stroke-width:2; stroke-opacity:0.1; fill:none" points="229.442,1234.58 229.442,47.2441 "/>
<polyline clip-path="url(#clip212)" style="stroke:#000000; stroke-linecap:round; stroke-linejoin:round; stroke-width:2; stroke-opacity:0.1; fill:none" points="674.907,1234.58 674.907,47.2441 "/>
<polyline clip-path="url(#clip212)" style="stroke:#000000; stroke-linecap:round; stroke-linejoin:round; stroke-width:2; stroke-opacity:0.1; fill:none" points="1120.37,1234.58 1120.37,47.2441 "/>
<polyline clip-path="url(#clip212)" style="stroke:#000000; stroke-linecap:round; stroke-linejoin:round; stroke-width:2; stroke-opacity:0.1; fill:none" points="1565.84,1234.58 1565.84,47.2441 "/>
<polyline clip-path="url(#clip212)" style="stroke:#000000; stroke-linecap:round; stroke-linejoin:round; stroke-width:2; stroke-opacity:0.1; fill:none" points="2011.3,1234.58 2011.3,47.2441 "/>
<polyline clip-path="url(#clip210)" style="stroke:#000000; stroke-linecap:round; stroke-linejoin:round; stroke-width:4; stroke-opacity:1; fill:none" points="175.987,1234.58 2064.76,1234.58 "/>
<polyline clip-path="url(#clip210)" style="stroke:#000000; stroke-linecap:round; stroke-linejoin:round; stroke-width:4; stroke-opacity:1; fill:none" points="229.442,1234.58 229.442,1215.68 "/>
<polyline clip-path="url(#clip210)" style="stroke:#000000; stroke-linecap:round; stroke-linejoin:round; stroke-width:4; stroke-opacity:1; fill:none" points="674.907,1234.58 674.907,1215.68 "/>
<polyline clip-path="url(#clip210)" style="stroke:#000000; stroke-linecap:round; stroke-linejoin:round; stroke-width:4; stroke-opacity:1; fill:none" points="1120.37,1234.58 1120.37,1215.68 "/>
<polyline clip-path="url(#clip210)" style="stroke:#000000; stroke-linecap:round; stroke-linejoin:round; stroke-width:4; stroke-opacity:1; fill:none" points="1565.84,1234.58 1565.84,1215.68 "/>
<polyline clip-path="url(#clip210)" style="stroke:#000000; stroke-linecap:round; stroke-linejoin:round; stroke-width:4; stroke-opacity:1; fill:none" points="2011.3,1234.58 2011.3,1215.68 "/>
<path clip-path="url(#clip210)" d="M175.97 1277.85 L205.646 1277.85 L205.646 1281.78 L175.97 1281.78 L175.97 1277.85 Z" fill="#000000" fill-rule="nonzero" fill-opacity="1" /><path clip-path="url(#clip210)" d="M216.549 1290.74 L224.188 1290.74 L224.188 1264.37 L215.878 1266.04 L215.878 1261.78 L224.141 1260.11 L228.817 1260.11 L228.817 1290.74 L236.456 1290.74 L236.456 1294.67 L216.549 1294.67 L216.549 1290.74 Z" fill="#000000" fill-rule="nonzero" fill-opacity="1" /><path clip-path="url(#clip210)" d="M245.901 1288.8 L250.785 1288.8 L250.785 1294.67 L245.901 1294.67 L245.901 1288.8 Z" fill="#000000" fill-rule="nonzero" fill-opacity="1" /><path clip-path="url(#clip210)" d="M270.97 1263.19 Q267.359 1263.19 265.53 1266.76 Q263.725 1270.3 263.725 1277.43 Q263.725 1284.54 265.53 1288.1 Q267.359 1291.64 270.97 1291.64 Q274.604 1291.64 276.41 1288.1 Q278.238 1284.54 278.238 1277.43 Q278.238 1270.3 276.41 1266.76 Q274.604 1263.19 270.97 1263.19 M270.97 1259.49 Q276.78 1259.49 279.836 1264.1 Q282.914 1268.68 282.914 1277.43 Q282.914 1286.16 279.836 1290.76 Q276.78 1295.35 270.97 1295.35 Q265.16 1295.35 262.081 1290.76 Q259.026 1286.16 259.026 1277.43 Q259.026 1268.68 262.081 1264.1 Q265.16 1259.49 270.97 1259.49 Z" fill="#000000" fill-rule="nonzero" fill-opacity="1" /><path clip-path="url(#clip210)" d="M621.933 1277.85 L651.608 1277.85 L651.608 1281.78 L621.933 1281.78 L621.933 1277.85 Z" fill="#000000" fill-rule="nonzero" fill-opacity="1" /><path clip-path="url(#clip210)" d="M671.701 1263.19 Q668.09 1263.19 666.261 1266.76 Q664.455 1270.3 664.455 1277.43 Q664.455 1284.54 666.261 1288.1 Q668.09 1291.64 671.701 1291.64 Q675.335 1291.64 677.141 1288.1 Q678.969 1284.54 678.969 1277.43 Q678.969 1270.3 677.141 1266.76 Q675.335 1263.19 671.701 1263.19 M671.701 1259.49 Q677.511 1259.49 680.567 1264.1 Q683.645 1268.68 683.645 1277.43 Q683.645 1286.16 680.567 1290.76 Q677.511 1295.35 671.701 1295.35 Q665.891 1295.35 662.812 1290.76 Q659.756 1286.16 659.756 1277.43 Q659.756 1268.68 662.812 1264.1 Q665.891 1259.49 671.701 1259.49 Z" fill="#000000" fill-rule="nonzero" fill-opacity="1" /><path clip-path="url(#clip210)" d="M691.863 1288.8 L696.747 1288.8 L696.747 1294.67 L691.863 1294.67 L691.863 1288.8 Z" fill="#000000" fill-rule="nonzero" fill-opacity="1" /><path clip-path="url(#clip210)" d="M706.978 1260.11 L725.335 1260.11 L725.335 1264.05 L711.261 1264.05 L711.261 1272.52 Q712.279 1272.17 713.298 1272.01 Q714.316 1271.83 715.335 1271.83 Q721.122 1271.83 724.501 1275 Q727.881 1278.17 727.881 1283.59 Q727.881 1289.17 724.409 1292.27 Q720.937 1295.35 714.617 1295.35 Q712.441 1295.35 710.173 1294.98 Q707.927 1294.61 705.52 1293.86 L705.52 1289.17 Q707.603 1290.3 709.826 1290.86 Q712.048 1291.41 714.525 1291.41 Q718.529 1291.41 720.867 1289.3 Q723.205 1287.2 723.205 1283.59 Q723.205 1279.98 720.867 1277.87 Q718.529 1275.76 714.525 1275.76 Q712.65 1275.76 710.775 1276.18 Q708.923 1276.6 706.978 1277.48 L706.978 1260.11 Z" fill="#000000" fill-rule="nonzero" fill-opacity="1" /><path clip-path="url(#clip210)" d="M1097.76 1263.19 Q1094.14 1263.19 1092.32 1266.76 Q1090.51 1270.3 1090.51 1277.43 Q1090.51 1284.54 1092.32 1288.1 Q1094.14 1291.64 1097.76 1291.64 Q1101.39 1291.64 1103.2 1288.1 Q1105.02 1284.54 1105.02 1277.43 Q1105.02 1270.3 1103.2 1266.76 Q1101.39 1263.19 1097.76 1263.19 M1097.76 1259.49 Q1103.57 1259.49 1106.62 1264.1 Q1109.7 1268.68 1109.7 1277.43 Q1109.7 1286.16 1106.62 1290.76 Q1103.57 1295.35 1097.76 1295.35 Q1091.95 1295.35 1088.87 1290.76 Q1085.81 1286.16 1085.81 1277.43 Q1085.81 1268.68 1088.87 1264.1 Q1091.95 1259.49 1097.76 1259.49 Z" fill="#000000" fill-rule="nonzero" fill-opacity="1" /><path clip-path="url(#clip210)" d="M1117.92 1288.8 L1122.8 1288.8 L1122.8 1294.67 L1117.92 1294.67 L1117.92 1288.8 Z" fill="#000000" fill-rule="nonzero" fill-opacity="1" /><path clip-path="url(#clip210)" d="M1142.99 1263.19 Q1139.38 1263.19 1137.55 1266.76 Q1135.74 1270.3 1135.74 1277.43 Q1135.74 1284.54 1137.55 1288.1 Q1139.38 1291.64 1142.99 1291.64 Q1146.62 1291.64 1148.43 1288.1 Q1150.26 1284.54 1150.26 1277.43 Q1150.26 1270.3 1148.43 1266.76 Q1146.62 1263.19 1142.99 1263.19 M1142.99 1259.49 Q1148.8 1259.49 1151.85 1264.1 Q1154.93 1268.68 1154.93 1277.43 Q1154.93 1286.16 1151.85 1290.76 Q1148.8 1295.35 1142.99 1295.35 Q1137.18 1295.35 1134.1 1290.76 Q1131.04 1286.16 1131.04 1277.43 Q1131.04 1268.68 1134.1 1264.1 Q1137.18 1259.49 1142.99 1259.49 Z" fill="#000000" fill-rule="nonzero" fill-opacity="1" /><path clip-path="url(#clip210)" d="M1543.72 1263.19 Q1540.11 1263.19 1538.28 1266.76 Q1536.47 1270.3 1536.47 1277.43 Q1536.47 1284.54 1538.28 1288.1 Q1540.11 1291.64 1543.72 1291.64 Q1547.35 1291.64 1549.16 1288.1 Q1550.99 1284.54 1550.99 1277.43 Q1550.99 1270.3 1549.16 1266.76 Q1547.35 1263.19 1543.72 1263.19 M1543.72 1259.49 Q1549.53 1259.49 1552.58 1264.1 Q1555.66 1268.68 1555.66 1277.43 Q1555.66 1286.16 1552.58 1290.76 Q1549.53 1295.35 1543.72 1295.35 Q1537.91 1295.35 1534.83 1290.76 Q1531.77 1286.16 1531.77 1277.43 Q1531.77 1268.68 1534.83 1264.1 Q1537.91 1259.49 1543.72 1259.49 Z" fill="#000000" fill-rule="nonzero" fill-opacity="1" /><path clip-path="url(#clip210)" d="M1563.88 1288.8 L1568.76 1288.8 L1568.76 1294.67 L1563.88 1294.67 L1563.88 1288.8 Z" fill="#000000" fill-rule="nonzero" fill-opacity="1" /><path clip-path="url(#clip210)" d="M1579 1260.11 L1597.35 1260.11 L1597.35 1264.05 L1583.28 1264.05 L1583.28 1272.52 Q1584.3 1272.17 1585.31 1272.01 Q1586.33 1271.83 1587.35 1271.83 Q1593.14 1271.83 1596.52 1275 Q1599.9 1278.17 1599.9 1283.59 Q1599.9 1289.17 1596.43 1292.27 Q1592.95 1295.35 1586.63 1295.35 Q1584.46 1295.35 1582.19 1294.98 Q1579.94 1294.61 1577.54 1293.86 L1577.54 1289.17 Q1579.62 1290.3 1581.84 1290.86 Q1584.06 1291.41 1586.54 1291.41 Q1590.55 1291.41 1592.88 1289.3 Q1595.22 1287.2 1595.22 1283.59 Q1595.22 1279.98 1592.88 1277.87 Q1590.55 1275.76 1586.54 1275.76 Q1584.67 1275.76 1582.79 1276.18 Q1580.94 1276.6 1579 1277.48 L1579 1260.11 Z" fill="#000000" fill-rule="nonzero" fill-opacity="1" /><path clip-path="url(#clip210)" d="M1978.45 1290.74 L1986.09 1290.74 L1986.09 1264.37 L1977.78 1266.04 L1977.78 1261.78 L1986.05 1260.11 L1990.72 1260.11 L1990.72 1290.74 L1998.36 1290.74 L1998.36 1294.67 L1978.45 1294.67 L1978.45 1290.74 Z" fill="#000000" fill-rule="nonzero" fill-opacity="1" /><path clip-path="url(#clip210)" d="M2007.8 1288.8 L2012.69 1288.8 L2012.69 1294.67 L2007.8 1294.67 L2007.8 1288.8 Z" fill="#000000" fill-rule="nonzero" fill-opacity="1" /><path clip-path="url(#clip210)" d="M2032.87 1263.19 Q2029.26 1263.19 2027.43 1266.76 Q2025.63 1270.3 2025.63 1277.43 Q2025.63 1284.54 2027.43 1288.1 Q2029.26 1291.64 2032.87 1291.64 Q2036.51 1291.64 2038.31 1288.1 Q2040.14 1284.54 2040.14 1277.43 Q2040.14 1270.3 2038.31 1266.76 Q2036.51 1263.19 2032.87 1263.19 M2032.87 1259.49 Q2038.68 1259.49 2041.74 1264.1 Q2044.82 1268.68 2044.82 1277.43 Q2044.82 1286.16 2041.74 1290.76 Q2038.68 1295.35 2032.87 1295.35 Q2027.06 1295.35 2023.99 1290.76 Q2020.93 1286.16 2020.93 1277.43 Q2020.93 1268.68 2023.99 1264.1 Q2027.06 1259.49 2032.87 1259.49 Z" fill="#000000" fill-rule="nonzero" fill-opacity="1" /><polyline clip-path="url(#clip212)" style="stroke:#000000; stroke-linecap:round; stroke-linejoin:round; stroke-width:2; stroke-opacity:0.1; fill:none" points="175.987,1206.32 2064.76,1206.32 "/>
<polyline clip-path="url(#clip212)" style="stroke:#000000; stroke-linecap:round; stroke-linejoin:round; stroke-width:2; stroke-opacity:0.1; fill:none" points="175.987,923.837 2064.76,923.837 "/>
<polyline clip-path="url(#clip212)" style="stroke:#000000; stroke-linecap:round; stroke-linejoin:round; stroke-width:2; stroke-opacity:0.1; fill:none" points="175.987,641.357 2064.76,641.357 "/>
<polyline clip-path="url(#clip212)" style="stroke:#000000; stroke-linecap:round; stroke-linejoin:round; stroke-width:2; stroke-opacity:0.1; fill:none" points="175.987,358.876 2064.76,358.876 "/>
<polyline clip-path="url(#clip212)" style="stroke:#000000; stroke-linecap:round; stroke-linejoin:round; stroke-width:2; stroke-opacity:0.1; fill:none" points="175.987,76.396 2064.76,76.396 "/>
<polyline clip-path="url(#clip210)" style="stroke:#000000; stroke-linecap:round; stroke-linejoin:round; stroke-width:4; stroke-opacity:1; fill:none" points="175.987,1234.58 175.987,47.2441 "/>
<polyline clip-path="url(#clip210)" style="stroke:#000000; stroke-linecap:round; stroke-linejoin:round; stroke-width:4; stroke-opacity:1; fill:none" points="175.987,1206.32 194.884,1206.32 "/>
<polyline clip-path="url(#clip210)" style="stroke:#000000; stroke-linecap:round; stroke-linejoin:round; stroke-width:4; stroke-opacity:1; fill:none" points="175.987,923.837 194.884,923.837 "/>
<polyline clip-path="url(#clip210)" style="stroke:#000000; stroke-linecap:round; stroke-linejoin:round; stroke-width:4; stroke-opacity:1; fill:none" points="175.987,641.357 194.884,641.357 "/>
<polyline clip-path="url(#clip210)" style="stroke:#000000; stroke-linecap:round; stroke-linejoin:round; stroke-width:4; stroke-opacity:1; fill:none" points="175.987,358.876 194.884,358.876 "/>
<polyline clip-path="url(#clip210)" style="stroke:#000000; stroke-linecap:round; stroke-linejoin:round; stroke-width:4; stroke-opacity:1; fill:none" points="175.987,76.396 194.884,76.396 "/>
<path clip-path="url(#clip210)" d="M52.4321 1206.77 L82.1079 1206.77 L82.1079 1210.7 L52.4321 1210.7 L52.4321 1206.77 Z" fill="#000000" fill-rule="nonzero" fill-opacity="1" /><path clip-path="url(#clip210)" d="M96.2282 1219.66 L112.548 1219.66 L112.548 1223.6 L90.6032 1223.6 L90.6032 1219.66 Q93.2652 1216.91 97.8485 1212.28 Q102.455 1207.62 103.636 1206.28 Q105.881 1203.76 106.761 1202.02 Q107.663 1200.26 107.663 1198.57 Q107.663 1195.82 105.719 1194.08 Q103.798 1192.35 100.696 1192.35 Q98.4967 1192.35 96.043 1193.11 Q93.6125 1193.88 90.8347 1195.43 L90.8347 1190.7 Q93.6588 1189.57 96.1124 1188.99 Q98.5661 1188.41 100.603 1188.41 Q105.974 1188.41 109.168 1191.1 Q112.362 1193.78 112.362 1198.27 Q112.362 1200.4 111.552 1202.32 Q110.765 1204.22 108.659 1206.81 Q108.08 1207.49 104.978 1210.7 Q101.876 1213.9 96.2282 1219.66 Z" fill="#000000" fill-rule="nonzero" fill-opacity="1" /><path clip-path="url(#clip210)" d="M132.362 1192.12 Q128.751 1192.12 126.922 1195.68 Q125.117 1199.22 125.117 1206.35 Q125.117 1213.46 126.922 1217.02 Q128.751 1220.56 132.362 1220.56 Q135.996 1220.56 137.802 1217.02 Q139.631 1213.46 139.631 1206.35 Q139.631 1199.22 137.802 1195.68 Q135.996 1192.12 132.362 1192.12 M132.362 1188.41 Q138.172 1188.41 141.228 1193.02 Q144.307 1197.6 144.307 1206.35 Q144.307 1215.08 141.228 1219.69 Q138.172 1224.27 132.362 1224.27 Q126.552 1224.27 123.473 1219.69 Q120.418 1215.08 120.418 1206.35 Q120.418 1197.6 123.473 1193.02 Q126.552 1188.41 132.362 1188.41 Z" fill="#000000" fill-rule="nonzero" fill-opacity="1" /><path clip-path="url(#clip210)" d="M52.4321 924.288 L82.1079 924.288 L82.1079 928.223 L52.4321 928.223 L52.4321 924.288 Z" fill="#000000" fill-rule="nonzero" fill-opacity="1" /><path clip-path="url(#clip210)" d="M93.0106 937.182 L100.649 937.182 L100.649 910.816 L92.3393 912.483 L92.3393 908.224 L100.603 906.557 L105.279 906.557 L105.279 937.182 L112.918 937.182 L112.918 941.117 L93.0106 941.117 L93.0106 937.182 Z" fill="#000000" fill-rule="nonzero" fill-opacity="1" /><path clip-path="url(#clip210)" d="M132.362 909.636 Q128.751 909.636 126.922 913.2 Q125.117 916.742 125.117 923.872 Q125.117 930.978 126.922 934.543 Q128.751 938.084 132.362 938.084 Q135.996 938.084 137.802 934.543 Q139.631 930.978 139.631 923.872 Q139.631 916.742 137.802 913.2 Q135.996 909.636 132.362 909.636 M132.362 905.932 Q138.172 905.932 141.228 910.538 Q144.307 915.122 144.307 923.872 Q144.307 932.598 141.228 937.205 Q138.172 941.788 132.362 941.788 Q126.552 941.788 123.473 937.205 Q120.418 932.598 120.418 923.872 Q120.418 915.122 123.473 910.538 Q126.552 905.932 132.362 905.932 Z" fill="#000000" fill-rule="nonzero" fill-opacity="1" /><path clip-path="url(#clip210)" d="M132.362 627.155 Q128.751 627.155 126.922 630.72 Q125.117 634.262 125.117 641.391 Q125.117 648.498 126.922 652.063 Q128.751 655.604 132.362 655.604 Q135.996 655.604 137.802 652.063 Q139.631 648.498 139.631 641.391 Q139.631 634.262 137.802 630.72 Q135.996 627.155 132.362 627.155 M132.362 623.452 Q138.172 623.452 141.228 628.058 Q144.307 632.641 144.307 641.391 Q144.307 650.118 141.228 654.725 Q138.172 659.308 132.362 659.308 Q126.552 659.308 123.473 654.725 Q120.418 650.118 120.418 641.391 Q120.418 632.641 123.473 628.058 Q126.552 623.452 132.362 623.452 Z" fill="#000000" fill-rule="nonzero" fill-opacity="1" /><path clip-path="url(#clip210)" d="M93.0106 372.221 L100.649 372.221 L100.649 345.856 L92.3393 347.522 L92.3393 343.263 L100.603 341.596 L105.279 341.596 L105.279 372.221 L112.918 372.221 L112.918 376.156 L93.0106 376.156 L93.0106 372.221 Z" fill="#000000" fill-rule="nonzero" fill-opacity="1" /><path clip-path="url(#clip210)" d="M132.362 344.675 Q128.751 344.675 126.922 348.24 Q125.117 351.781 125.117 358.911 Q125.117 366.017 126.922 369.582 Q128.751 373.124 132.362 373.124 Q135.996 373.124 137.802 369.582 Q139.631 366.017 139.631 358.911 Q139.631 351.781 137.802 348.24 Q135.996 344.675 132.362 344.675 M132.362 340.971 Q138.172 340.971 141.228 345.578 Q144.307 350.161 144.307 358.911 Q144.307 367.638 141.228 372.244 Q138.172 376.828 132.362 376.828 Q126.552 376.828 123.473 372.244 Q120.418 367.638 120.418 358.911 Q120.418 350.161 123.473 345.578 Q126.552 340.971 132.362 340.971 Z" fill="#000000" fill-rule="nonzero" fill-opacity="1" /><path clip-path="url(#clip210)" d="M96.2282 89.7409 L112.548 89.7409 L112.548 93.676 L90.6032 93.676 L90.6032 89.7409 Q93.2652 86.9863 97.8485 82.3567 Q102.455 77.7039 103.636 76.3613 Q105.881 73.8382 106.761 72.1021 Q107.663 70.3428 107.663 68.653 Q107.663 65.8984 105.719 64.1623 Q103.798 62.4262 100.696 62.4262 Q98.4967 62.4262 96.043 63.1901 Q93.6125 63.954 90.8347 65.5049 L90.8347 60.7827 Q93.6588 59.6485 96.1124 59.0698 Q98.5661 58.4911 100.603 58.4911 Q105.974 58.4911 109.168 61.1762 Q112.362 63.8614 112.362 68.3521 Q112.362 70.4817 111.552 72.403 Q110.765 74.3012 108.659 76.8937 Q108.08 77.565 104.978 80.7826 Q101.876 83.977 96.2282 89.7409 Z" fill="#000000" fill-rule="nonzero" fill-opacity="1" /><path clip-path="url(#clip210)" d="M132.362 62.1947 Q128.751 62.1947 126.922 65.7595 Q125.117 69.3012 125.117 76.4308 Q125.117 83.5372 126.922 87.102 Q128.751 90.6437 132.362 90.6437 Q135.996 90.6437 137.802 87.102 Q139.631 83.5372 139.631 76.4308 Q139.631 69.3012 137.802 65.7595 Q135.996 62.1947 132.362 62.1947 M132.362 58.4911 Q138.172 58.4911 141.228 63.0975 Q144.307 67.6808 144.307 76.4308 Q144.307 85.1576 141.228 89.764 Q138.172 94.3473 132.362 94.3473 Q126.552 94.3473 123.473 89.764 Q120.418 85.1576 120.418 76.4308 Q120.418 67.6808 123.473 63.0975 Q126.552 58.4911 132.362 58.4911 Z" fill="#000000" fill-rule="nonzero" fill-opacity="1" /><polyline clip-path="url(#clip212)" style="stroke:#009af9; stroke-linecap:round; stroke-linejoin:round; stroke-width:4; stroke-opacity:1; fill:none" points="229.442,669.605 241.043,669.977 348.31,673.954 412.773,676.923 467.275,679.891 526.48,683.733 581.062,688.022 639.58,693.701 707.378,702.295 737.503,707.089 767.629,712.703 794.046,718.479 820.464,725.272 834.865,729.505 849.266,734.187 863.667,739.395 878.068,745.222 892.554,751.827 907.041,759.328 914.284,763.475 921.527,767.923 925.149,770.271 928.771,772.708 932.392,775.239 936.014,777.869 952.031,790.857 968.048,806.577 976.056,815.746 984.064,825.991 992.073,837.516 1000.08,850.576 1007.7,864.725 1015.32,880.927 1019.13,889.942 1022.94,899.663 1026.75,910.175 1030.56,921.578 1034.37,933.992 1038.18,947.557 1041.99,962.441 1045.8,978.845 1049.61,997.016 1053.42,1017.25 1057.23,1039.94 1061.04,1065.53 1062.03,1072.73 1063.02,1080.18 1064.01,1087.89 1065,1095.88 1066.98,1112.74 1068.96,1130.9 1070.94,1150.52 1072.92,1171.77 1073.91,1183.08 1074.9,1194.88 1075.4,1200.97 "/>
<polyline clip-path="url(#clip212)" style="stroke:#009af9; stroke-linecap:round; stroke-linejoin:round; stroke-width:4; stroke-opacity:1; fill:none" points="1165.27,80.8479 1165.69,86.0035 1166.11,91.0652 1166.94,100.917 1167.77,110.422 1169.44,128.463 1171.11,145.318 1172.77,161.1 1174.44,175.91 1175.28,182.977 1176.11,189.833 1176.94,196.487 1177.78,202.947 1179.81,217.961 1181.85,231.981 1183.88,245.102 1185.92,257.407 1189.99,279.86 1194.06,299.832 1198.13,317.713 1202.2,333.815 1206.28,348.39 1210.35,361.646 1214.42,373.755 1218.49,384.858 1222.56,395.077 1226.63,404.513 1234.77,421.37 1242.92,435.987 1250.38,447.77 1257.83,458.275 1265.29,467.698 1272.75,476.198 1287.67,490.926 1302.59,503.241 1306.03,505.804 1309.48,508.273 1312.92,510.653 1316.37,512.95 1323.26,517.311 1330.14,521.384 1343.92,528.778 1357.7,535.314 1371.66,541.204 1385.61,546.474 1399.57,551.217 1413.53,555.508 1444.81,563.786 1476.09,570.608 1504.44,575.829 1532.79,580.333 1597.7,588.632 1657.8,594.528 1717.06,599.179 1774.59,602.888 1833.56,606.069 1898.18,609 1992.04,612.485 2011.3,613.109 "/>
<path clip-path="url(#clip210)" d="M1760.49 190.502 L2001.8 190.502 L2001.8 86.8219 L1760.49 86.8219  Z" fill="#ffffff" fill-rule="evenodd" fill-opacity="1"/>
<polyline clip-path="url(#clip210)" style="stroke:#000000; stroke-linecap:round; stroke-linejoin:round; stroke-width:4; stroke-opacity:1; fill:none" points="1760.49,190.502 2001.8,190.502 2001.8,86.8219 1760.49,86.8219 1760.49,190.502 "/>
<polyline clip-path="url(#clip210)" style="stroke:#009af9; stroke-linecap:round; stroke-linejoin:round; stroke-width:4; stroke-opacity:1; fill:none" points="1781.48,138.662 1907.39,138.662 "/>
<path clip-path="url(#clip210)" d="M1942.22 158.349 Q1940.42 162.979 1938.7 164.391 Q1936.99 165.803 1934.12 165.803 L1930.72 165.803 L1930.72 162.238 L1933.22 162.238 Q1934.98 162.238 1935.95 161.405 Q1936.92 160.572 1938.1 157.47 L1938.87 155.525 L1928.38 130.016 L1932.89 130.016 L1941 150.294 L1949.1 130.016 L1953.61 130.016 L1942.22 158.349 Z" fill="#000000" fill-rule="nonzero" fill-opacity="1" /><path clip-path="url(#clip210)" d="M1960.9 152.007 L1968.54 152.007 L1968.54 125.641 L1960.23 127.308 L1960.23 123.049 L1968.5 121.382 L1973.17 121.382 L1973.17 152.007 L1980.81 152.007 L1980.81 155.942 L1960.9 155.942 L1960.9 152.007 Z" fill="#000000" fill-rule="nonzero" fill-opacity="1" /></svg>
