<?xml version="1.0" encoding="utf-8"?>
<svg xmlns="http://www.w3.org/2000/svg" xmlns:xlink="http://www.w3.org/1999/xlink" width="528" height="336" viewBox="0 0 2112 1344">
<defs>
  <clipPath id="clip270">
    <rect x="0" y="0" width="2112" height="1344"/>
  </clipPath>
</defs>
<path clip-path="url(#clip270)" d="M0 1344 L2112 1344 L2112 0 L0 0  Z" fill="#ffffff" fill-rule="evenodd" fill-opacity="1"/>
<defs>
  <clipPath id="clip271">
    <rect x="422" y="0" width="1479" height="1344"/>
  </clipPath>
</defs>
<path clip-path="url(#clip270)" d="M191.056 1234.58 L2064.76 1234.58 L2064.76 47.2441 L191.056 47.2441  Z" fill="#ffffff" fill-rule="evenodd" fill-opacity="1"/>
<defs>
  <clipPath id="clip272">
    <rect x="191" y="47" width="1875" height="1188"/>
  </clipPath>
</defs>
<polyline clip-path="url(#clip272)" style="stroke:#000000; stroke-linecap:round; stroke-linejoin:round; stroke-width:2; stroke-opacity:0.1; fill:none" points="244.058,1234.58 244.058,47.2441 "/>
<polyline clip-path="url(#clip272)" style="stroke:#000000; stroke-linecap:round; stroke-linejoin:round; stroke-width:2; stroke-opacity:0.1; fill:none" points="685.982,1234.58 685.982,47.2441 "/>
<polyline clip-path="url(#clip272)" style="stroke:#000000; stroke-linecap:round; stroke-linejoin:round; stroke-width:2; stroke-opacity:0.1; fill:none" points="1127.91,1234.58 1127.91,47.2441 "/>
<polyline clip-path="url(#clip272)" style="stroke:#000000; stroke-linecap:round; stroke-linejoin:round; stroke-width:2; stroke-opacity:0.1; fill:none" points="1569.83,1234.58 1569.83,47.2441 "/>
<polyline clip-path="url(#clip272)" style="stroke:#000000; stroke-linecap:round; stroke-linejoin:round; stroke-width:2; stroke-opacity:0.1; fill:none" points="2011.75,1234.58 2011.75,47.2441 "/>
<polyline clip-path="url(#clip270)" style="stroke:#000000; stroke-linecap:round; stroke-linejoin:round; stroke-width:4; stroke-opacity:1; fill:none" points="191.056,1234.58 2064.76,1234.58 "/>
<polyline clip-path="url(#clip270)" style="stroke:#000000; stroke-linecap:round; stroke-linejoin:round; stroke-width:4; stroke-opacity:1; fill:none" points="244.058,1234.58 244.058,1215.68 "/>
<polyline clip-path="url(#clip270)" style="stroke:#000000; stroke-linecap:round; stroke-linejoin:round; stroke-width:4; stroke-opacity:1; fill:none" points="685.982,1234.58 685.982,1215.68 "/>
<polyline clip-path="url(#clip270)" style="stroke:#000000; stroke-linecap:round; stroke-linejoin:round; stroke-width:4; stroke-opacity:1; fill:none" points="1127.91,1234.58 1127.91,1215.68 "/>
<polyline clip-path="url(#clip270)" style="stroke:#000000; stroke-linecap:round; stroke-linejoin:round; stroke-width:4; stroke-opacity:1; fill:none" points="1569.83,1234.58 1569.83,1215.68 "/>
<polyline clip-path="url(#clip270)" style="stroke:#000000; stroke-linecap:round; stroke-linejoin:round; stroke-width:4; stroke-opacity:1; fill:none" points="2011.75,1234.58 2011.75,1215.68 "/>
<path clip-path="url(#clip270)" d="M190.586 1277.85 L220.262 1277.85 L220.262 1281.78 L190.586 1281.78 L190.586 1277.85 Z" fill="#000000" fill-rule="nonzero" fill-opacity="1" /><path clip-path="url(#clip270)" d="M231.164 1290.74 L238.803 1290.74 L238.803 1264.37 L230.493 1266.04 L230.493 1261.78 L238.757 1260.11 L243.433 1260.11 L243.433 1290.74 L251.072 1290.74 L251.072 1294.67 L231.164 1294.67 L231.164 1290.74 Z" fill="#000000" fill-rule="nonzero" fill-opacity="1" /><path clip-path="url(#clip270)" d="M260.516 1288.8 L265.4 1288.8 L265.4 1294.67 L260.516 1294.67 L260.516 1288.8 Z" fill="#000000" fill-rule="nonzero" fill-opacity="1" /><path clip-path="url(#clip270)" d="M285.585 1263.19 Q281.974 1263.19 280.145 1266.76 Q278.34 1270.3 278.34 1277.43 Q278.34 1284.54 280.145 1288.1 Q281.974 1291.64 285.585 1291.64 Q289.22 1291.64 291.025 1288.1 Q292.854 1284.54 292.854 1277.43 Q292.854 1270.3 291.025 1266.76 Q289.22 1263.19 285.585 1263.19 M285.585 1259.49 Q291.395 1259.49 294.451 1264.1 Q297.53 1268.68 297.53 1277.43 Q297.53 1286.16 294.451 1290.76 Q291.395 1295.35 285.585 1295.35 Q279.775 1295.35 276.696 1290.76 Q273.641 1286.16 273.641 1277.43 Q273.641 1268.68 276.696 1264.1 Q279.775 1259.49 285.585 1259.49 Z" fill="#000000" fill-rule="nonzero" fill-opacity="1" /><path clip-path="url(#clip270)" d="M633.008 1277.85 L662.683 1277.85 L662.683 1281.78 L633.008 1281.78 L633.008 1277.85 Z" fill="#000000" fill-rule="nonzero" fill-opacity="1" /><path clip-path="url(#clip270)" d="M682.776 1263.19 Q679.165 1263.19 677.336 1266.76 Q675.53 1270.3 675.53 1277.43 Q675.53 1284.54 677.336 1288.1 Q679.165 1291.64 682.776 1291.64 Q686.41 1291.64 688.216 1288.1 Q690.044 1284.54 690.044 1277.43 Q690.044 1270.3 688.216 1266.76 Q686.41 1263.19 682.776 1263.19 M682.776 1259.49 Q688.586 1259.49 691.642 1264.1 Q694.72 1268.68 694.72 1277.43 Q694.72 1286.16 691.642 1290.76 Q688.586 1295.35 682.776 1295.35 Q676.966 1295.35 673.887 1290.76 Q670.831 1286.16 670.831 1277.43 Q670.831 1268.68 673.887 1264.1 Q676.966 1259.49 682.776 1259.49 Z" fill="#000000" fill-rule="nonzero" fill-opacity="1" /><path clip-path="url(#clip270)" d="M702.938 1288.8 L707.822 1288.8 L707.822 1294.67 L702.938 1294.67 L702.938 1288.8 Z" fill="#000000" fill-rule="nonzero" fill-opacity="1" /><path clip-path="url(#clip270)" d="M718.053 1260.11 L736.41 1260.11 L736.41 1264.05 L722.336 1264.05 L722.336 1272.52 Q723.354 1272.17 724.373 1272.01 Q725.391 1271.83 726.41 1271.83 Q732.197 1271.83 735.576 1275 Q738.956 1278.17 738.956 1283.59 Q738.956 1289.17 735.484 1292.27 Q732.012 1295.35 725.692 1295.35 Q723.516 1295.35 721.248 1294.98 Q719.002 1294.61 716.595 1293.86 L716.595 1289.17 Q718.678 1290.3 720.901 1290.86 Q723.123 1291.41 725.6 1291.41 Q729.604 1291.41 731.942 1289.3 Q734.28 1287.2 734.28 1283.59 Q734.28 1279.98 731.942 1277.87 Q729.604 1275.76 725.6 1275.76 Q723.725 1275.76 721.85 1276.18 Q719.998 1276.6 718.053 1277.48 L718.053 1260.11 Z" fill="#000000" fill-rule="nonzero" fill-opacity="1" /><path clip-path="url(#clip270)" d="M1105.29 1263.19 Q1101.68 1263.19 1099.85 1266.76 Q1098.05 1270.3 1098.05 1277.43 Q1098.05 1284.54 1099.85 1288.1 Q1101.68 1291.64 1105.29 1291.64 Q1108.92 1291.64 1110.73 1288.1 Q1112.56 1284.54 1112.56 1277.43 Q1112.56 1270.3 1110.73 1266.76 Q1108.92 1263.19 1105.29 1263.19 M1105.29 1259.49 Q1111.1 1259.49 1114.16 1264.1 Q1117.23 1268.68 1117.23 1277.43 Q1117.23 1286.16 1114.16 1290.76 Q1111.1 1295.35 1105.29 1295.35 Q1099.48 1295.35 1096.4 1290.76 Q1093.35 1286.16 1093.35 1277.43 Q1093.35 1268.68 1096.4 1264.1 Q1099.48 1259.49 1105.29 1259.49 Z" fill="#000000" fill-rule="nonzero" fill-opacity="1" /><path clip-path="url(#clip270)" d="M1125.45 1288.8 L1130.34 1288.8 L1130.34 1294.67 L1125.45 1294.67 L1125.45 1288.8 Z" fill="#000000" fill-rule="nonzero" fill-opacity="1" /><path clip-path="url(#clip270)" d="M1150.52 1263.19 Q1146.91 1263.19 1145.08 1266.76 Q1143.28 1270.3 1143.28 1277.43 Q1143.28 1284.54 1145.08 1288.1 Q1146.91 1291.64 1150.52 1291.64 Q1154.16 1291.64 1155.96 1288.1 Q1157.79 1284.54 1157.79 1277.43 Q1157.79 1270.3 1155.96 1266.76 Q1154.16 1263.19 1150.52 1263.19 M1150.52 1259.49 Q1156.33 1259.49 1159.39 1264.1 Q1162.47 1268.68 1162.47 1277.43 Q1162.47 1286.16 1159.39 1290.76 Q1156.33 1295.35 1150.52 1295.35 Q1144.71 1295.35 1141.63 1290.76 Q1138.58 1286.16 1138.58 1277.43 Q1138.58 1268.68 1141.63 1264.1 Q1144.71 1259.49 1150.52 1259.49 Z" fill="#000000" fill-rule="nonzero" fill-opacity="1" /><path clip-path="url(#clip270)" d="M1547.71 1263.19 Q1544.1 1263.19 1542.27 1266.76 Q1540.47 1270.3 1540.47 1277.43 Q1540.47 1284.54 1542.27 1288.1 Q1544.1 1291.64 1547.71 1291.64 Q1551.35 1291.64 1553.15 1288.1 Q1554.98 1284.54 1554.98 1277.43 Q1554.98 1270.3 1553.15 1266.76 Q1551.35 1263.19 1547.71 1263.19 M1547.71 1259.49 Q1553.52 1259.49 1556.58 1264.1 Q1559.66 1268.68 1559.66 1277.43 Q1559.66 1286.16 1556.58 1290.76 Q1553.52 1295.35 1547.71 1295.35 Q1541.9 1295.35 1538.82 1290.76 Q1535.77 1286.16 1535.77 1277.43 Q1535.77 1268.68 1538.82 1264.1 Q1541.9 1259.49 1547.71 1259.49 Z" fill="#000000" fill-rule="nonzero" fill-opacity="1" /><path clip-path="url(#clip270)" d="M1567.87 1288.8 L1572.76 1288.8 L1572.76 1294.67 L1567.87 1294.67 L1567.87 1288.8 Z" fill="#000000" fill-rule="nonzero" fill-opacity="1" /><path clip-path="url(#clip270)" d="M1582.99 1260.11 L1601.35 1260.11 L1601.35 1264.05 L1587.27 1264.05 L1587.27 1272.52 Q1588.29 1272.17 1589.31 1272.01 Q1590.33 1271.83 1591.35 1271.83 Q1597.13 1271.83 1600.51 1275 Q1603.89 1278.17 1603.89 1283.59 Q1603.89 1289.17 1600.42 1292.27 Q1596.95 1295.35 1590.63 1295.35 Q1588.45 1295.35 1586.18 1294.98 Q1583.94 1294.61 1581.53 1293.86 L1581.53 1289.17 Q1583.61 1290.3 1585.84 1290.86 Q1588.06 1291.41 1590.54 1291.41 Q1594.54 1291.41 1596.88 1289.3 Q1599.22 1287.2 1599.22 1283.59 Q1599.22 1279.98 1596.88 1277.87 Q1594.54 1275.76 1590.54 1275.76 Q1588.66 1275.76 1586.79 1276.18 Q1584.93 1276.6 1582.99 1277.48 L1582.99 1260.11 Z" fill="#000000" fill-rule="nonzero" fill-opacity="1" /><path clip-path="url(#clip270)" d="M1978.91 1290.74 L1986.55 1290.74 L1986.55 1264.37 L1978.24 1266.04 L1978.24 1261.78 L1986.5 1260.11 L1991.18 1260.11 L1991.18 1290.74 L1998.81 1290.74 L1998.81 1294.67 L1978.91 1294.67 L1978.91 1290.74 Z" fill="#000000" fill-rule="nonzero" fill-opacity="1" /><path clip-path="url(#clip270)" d="M2008.26 1288.8 L2013.14 1288.8 L2013.14 1294.67 L2008.26 1294.67 L2008.26 1288.8 Z" fill="#000000" fill-rule="nonzero" fill-opacity="1" /><path clip-path="url(#clip270)" d="M2033.33 1263.19 Q2029.72 1263.19 2027.89 1266.76 Q2026.08 1270.3 2026.08 1277.43 Q2026.08 1284.54 2027.89 1288.1 Q2029.72 1291.64 2033.33 1291.64 Q2036.96 1291.64 2038.77 1288.1 Q2040.6 1284.54 2040.6 1277.43 Q2040.6 1270.3 2038.77 1266.76 Q2036.96 1263.19 2033.33 1263.19 M2033.33 1259.49 Q2039.14 1259.49 2042.19 1264.1 Q2045.27 1268.68 2045.27 1277.43 Q2045.27 1286.16 2042.19 1290.76 Q2039.14 1295.35 2033.33 1295.35 Q2027.52 1295.35 2024.44 1290.76 Q2021.38 1286.16 2021.38 1277.43 Q2021.38 1268.68 2024.44 1264.1 Q2027.52 1259.49 2033.33 1259.49 Z" fill="#000000" fill-rule="nonzero" fill-opacity="1" /><polyline clip-path="url(#clip272)" style="stroke:#000000; stroke-linecap:round; stroke-linejoin:round; stroke-width:2; stroke-opacity:0.1; fill:none" points="191.056,1200.99 2064.76,1200.99 "/>
<polyline clip-path="url(#clip272)" style="stroke:#000000; stroke-linecap:round; stroke-linejoin:round; stroke-width:2; stroke-opacity:0.1; fill:none" points="191.056,920.952 2064.76,920.952 "/>
<polyline clip-path="url(#clip272)" style="stroke:#000000; stroke-linecap:round; stroke-linejoin:round; stroke-width:2; stroke-opacity:0.1; fill:none" points="191.056,640.911 2064.76,640.911 "/>
<polyline clip-path="url(#clip272)" style="stroke:#000000; stroke-linecap:round; stroke-linejoin:round; stroke-width:2; stroke-opacity:0.1; fill:none" points="191.056,360.871 2064.76,360.871 "/>
<polyline clip-path="url(#clip272)" style="stroke:#000000; stroke-linecap:round; stroke-linejoin:round; stroke-width:2; stroke-opacity:0.1; fill:none" points="191.056,80.8305 2064.76,80.8305 "/>
<polyline clip-path="url(#clip270)" style="stroke:#000000; stroke-linecap:round; stroke-linejoin:round; stroke-width:4; stroke-opacity:1; fill:none" points="191.056,1234.58 191.056,47.2441 "/>
<polyline clip-path="url(#clip270)" style="stroke:#000000; stroke-linecap:round; stroke-linejoin:round; stroke-width:4; stroke-opacity:1; fill:none" points="191.056,1200.99 209.954,1200.99 "/>
<polyline clip-path="url(#clip270)" style="stroke:#000000; stroke-linecap:round; stroke-linejoin:round; stroke-width:4; stroke-opacity:1; fill:none" points="191.056,920.952 209.954,920.952 "/>
<polyline clip-path="url(#clip270)" style="stroke:#000000; stroke-linecap:round; stroke-linejoin:round; stroke-width:4; stroke-opacity:1; fill:none" points="191.056,640.911 209.954,640.911 "/>
<polyline clip-path="url(#clip270)" style="stroke:#000000; stroke-linecap:round; stroke-linejoin:round; stroke-width:4; stroke-opacity:1; fill:none" points="191.056,360.871 209.954,360.871 "/>
<polyline clip-path="url(#clip270)" style="stroke:#000000; stroke-linecap:round; stroke-linejoin:round; stroke-width:4; stroke-opacity:1; fill:none" points="191.056,80.8305 209.954,80.8305 "/>
<path clip-path="url(#clip270)" d="M52.4321 1201.44 L82.1079 1201.44 L82.1079 1205.38 L52.4321 1205.38 L52.4321 1201.44 Z" fill="#000000" fill-rule="nonzero" fill-opacity="1" /><path clip-path="url(#clip270)" d="M93.0106 1214.34 L100.649 1214.34 L100.649 1187.97 L92.3393 1189.64 L92.3393 1185.38 L100.603 1183.71 L105.279 1183.71 L105.279 1214.34 L112.918 1214.34 L112.918 1218.27 L93.0106 1218.27 L93.0106 1214.34 Z" fill="#000000" fill-rule="nonzero" fill-opacity="1" /><path clip-path="url(#clip270)" d="M122.362 1212.39 L127.247 1212.39 L127.247 1218.27 L122.362 1218.27 L122.362 1212.39 Z" fill="#000000" fill-rule="nonzero" fill-opacity="1" /><path clip-path="url(#clip270)" d="M147.432 1186.79 Q143.821 1186.79 141.992 1190.36 Q140.186 1193.9 140.186 1201.03 Q140.186 1208.13 141.992 1211.7 Q143.821 1215.24 147.432 1215.24 Q151.066 1215.24 152.871 1211.7 Q154.7 1208.13 154.7 1201.03 Q154.7 1193.9 152.871 1190.36 Q151.066 1186.79 147.432 1186.79 M147.432 1183.09 Q153.242 1183.09 156.297 1187.69 Q159.376 1192.28 159.376 1201.03 Q159.376 1209.75 156.297 1214.36 Q153.242 1218.94 147.432 1218.94 Q141.621 1218.94 138.543 1214.36 Q135.487 1209.75 135.487 1201.03 Q135.487 1192.28 138.543 1187.69 Q141.621 1183.09 147.432 1183.09 Z" fill="#000000" fill-rule="nonzero" fill-opacity="1" /><path clip-path="url(#clip270)" d="M53.4275 921.403 L83.1033 921.403 L83.1033 925.338 L53.4275 925.338 L53.4275 921.403 Z" fill="#000000" fill-rule="nonzero" fill-opacity="1" /><path clip-path="url(#clip270)" d="M103.196 906.751 Q99.5847 906.751 97.756 910.315 Q95.9504 913.857 95.9504 920.987 Q95.9504 928.093 97.756 931.658 Q99.5847 935.2 103.196 935.2 Q106.83 935.2 108.636 931.658 Q110.464 928.093 110.464 920.987 Q110.464 913.857 108.636 910.315 Q106.83 906.751 103.196 906.751 M103.196 903.047 Q109.006 903.047 112.061 907.653 Q115.14 912.237 115.14 920.987 Q115.14 929.713 112.061 934.32 Q109.006 938.903 103.196 938.903 Q97.3856 938.903 94.3069 934.32 Q91.2514 929.713 91.2514 920.987 Q91.2514 912.237 94.3069 907.653 Q97.3856 903.047 103.196 903.047 Z" fill="#000000" fill-rule="nonzero" fill-opacity="1" /><path clip-path="url(#clip270)" d="M123.358 932.352 L128.242 932.352 L128.242 938.232 L123.358 938.232 L123.358 932.352 Z" fill="#000000" fill-rule="nonzero" fill-opacity="1" /><path clip-path="url(#clip270)" d="M138.473 903.672 L156.83 903.672 L156.83 907.607 L142.756 907.607 L142.756 916.079 Q143.774 915.732 144.793 915.57 Q145.811 915.385 146.83 915.385 Q152.617 915.385 155.996 918.556 Q159.376 921.727 159.376 927.144 Q159.376 932.723 155.904 935.825 Q152.432 938.903 146.112 938.903 Q143.936 938.903 141.668 938.533 Q139.422 938.162 137.015 937.422 L137.015 932.723 Q139.098 933.857 141.321 934.413 Q143.543 934.968 146.02 934.968 Q150.024 934.968 152.362 932.862 Q154.7 930.755 154.7 927.144 Q154.7 923.533 152.362 921.426 Q150.024 919.32 146.02 919.32 Q144.145 919.32 142.27 919.737 Q140.418 920.153 138.473 921.033 L138.473 903.672 Z" fill="#000000" fill-rule="nonzero" fill-opacity="1" /><path clip-path="url(#clip270)" d="M102.2 626.71 Q98.5893 626.71 96.7606 630.275 Q94.955 633.817 94.955 640.946 Q94.955 648.053 96.7606 651.617 Q98.5893 655.159 102.2 655.159 Q105.835 655.159 107.64 651.617 Q109.469 648.053 109.469 640.946 Q109.469 633.817 107.64 630.275 Q105.835 626.71 102.2 626.71 M102.2 623.006 Q108.011 623.006 111.066 627.613 Q114.145 632.196 114.145 640.946 Q114.145 649.673 111.066 654.279 Q108.011 658.863 102.2 658.863 Q96.3902 658.863 93.3115 654.279 Q90.256 649.673 90.256 640.946 Q90.256 632.196 93.3115 627.613 Q96.3902 623.006 102.2 623.006 Z" fill="#000000" fill-rule="nonzero" fill-opacity="1" /><path clip-path="url(#clip270)" d="M122.362 652.312 L127.247 652.312 L127.247 658.191 L122.362 658.191 L122.362 652.312 Z" fill="#000000" fill-rule="nonzero" fill-opacity="1" /><path clip-path="url(#clip270)" d="M147.432 626.71 Q143.821 626.71 141.992 630.275 Q140.186 633.817 140.186 640.946 Q140.186 648.053 141.992 651.617 Q143.821 655.159 147.432 655.159 Q151.066 655.159 152.871 651.617 Q154.7 648.053 154.7 640.946 Q154.7 633.817 152.871 630.275 Q151.066 626.71 147.432 626.71 M147.432 623.006 Q153.242 623.006 156.297 627.613 Q159.376 632.196 159.376 640.946 Q159.376 649.673 156.297 654.279 Q153.242 658.863 147.432 658.863 Q141.621 658.863 138.543 654.279 Q135.487 649.673 135.487 640.946 Q135.487 632.196 138.543 627.613 Q141.621 623.006 147.432 623.006 Z" fill="#000000" fill-rule="nonzero" fill-opacity="1" /><path clip-path="url(#clip270)" d="M103.196 346.67 Q99.5847 346.67 97.756 350.234 Q95.9504 353.776 95.9504 360.906 Q95.9504 368.012 97.756 371.577 Q99.5847 375.119 103.196 375.119 Q106.83 375.119 108.636 371.577 Q110.464 368.012 110.464 360.906 Q110.464 353.776 108.636 350.234 Q106.83 346.67 103.196 346.67 M103.196 342.966 Q109.006 342.966 112.061 347.572 Q115.14 352.156 115.14 360.906 Q115.14 369.632 112.061 374.239 Q109.006 378.822 103.196 378.822 Q97.3856 378.822 94.3069 374.239 Q91.2514 369.632 91.2514 360.906 Q91.2514 352.156 94.3069 347.572 Q97.3856 342.966 103.196 342.966 Z" fill="#000000" fill-rule="nonzero" fill-opacity="1" /><path clip-path="url(#clip270)" d="M123.358 372.271 L128.242 372.271 L128.242 378.151 L123.358 378.151 L123.358 372.271 Z" fill="#000000" fill-rule="nonzero" fill-opacity="1" /><path clip-path="url(#clip270)" d="M138.473 343.591 L156.83 343.591 L156.83 347.526 L142.756 347.526 L142.756 355.998 Q143.774 355.651 144.793 355.489 Q145.811 355.304 146.83 355.304 Q152.617 355.304 155.996 358.475 Q159.376 361.646 159.376 367.063 Q159.376 372.642 155.904 375.744 Q152.432 378.822 146.112 378.822 Q143.936 378.822 141.668 378.452 Q139.422 378.082 137.015 377.341 L137.015 372.642 Q139.098 373.776 141.321 374.332 Q143.543 374.887 146.02 374.887 Q150.024 374.887 152.362 372.781 Q154.7 370.674 154.7 367.063 Q154.7 363.452 152.362 361.345 Q150.024 359.239 146.02 359.239 Q144.145 359.239 142.27 359.656 Q140.418 360.072 138.473 360.952 L138.473 343.591 Z" fill="#000000" fill-rule="nonzero" fill-opacity="1" /><path clip-path="url(#clip270)" d="M93.0106 94.1753 L100.649 94.1753 L100.649 67.8097 L92.3393 69.4764 L92.3393 65.2171 L100.603 63.5505 L105.279 63.5505 L105.279 94.1753 L112.918 94.1753 L112.918 98.1105 L93.0106 98.1105 L93.0106 94.1753 Z" fill="#000000" fill-rule="nonzero" fill-opacity="1" /><path clip-path="url(#clip270)" d="M122.362 92.2309 L127.247 92.2309 L127.247 98.1105 L122.362 98.1105 L122.362 92.2309 Z" fill="#000000" fill-rule="nonzero" fill-opacity="1" /><path clip-path="url(#clip270)" d="M147.432 66.6291 Q143.821 66.6291 141.992 70.1939 Q140.186 73.7356 140.186 80.8652 Q140.186 87.9716 141.992 91.5364 Q143.821 95.0781 147.432 95.0781 Q151.066 95.0781 152.871 91.5364 Q154.7 87.9716 154.7 80.8652 Q154.7 73.7356 152.871 70.1939 Q151.066 66.6291 147.432 66.6291 M147.432 62.9255 Q153.242 62.9255 156.297 67.5319 Q159.376 72.1152 159.376 80.8652 Q159.376 89.592 156.297 94.1984 Q153.242 98.7818 147.432 98.7818 Q141.621 98.7818 138.543 94.1984 Q135.487 89.592 135.487 80.8652 Q135.487 72.1152 138.543 67.5319 Q141.621 62.9255 147.432 62.9255 Z" fill="#000000" fill-rule="nonzero" fill-opacity="1" /><polyline clip-path="url(#clip272)" style="stroke:#009af9; stroke-linecap:round; stroke-linejoin:round; stroke-width:4; stroke-opacity:1; fill:none" points="1127.91,640.911 1155.81,605.567 1183.68,570.364 1211.5,535.442 1239.24,500.94 1266.86,466.996 1294.34,433.746 1321.66,401.321 1348.79,369.852 1375.7,339.462 1402.36,310.275 1428.74,282.406 1454.83,255.965 1480.59,231.06 1506,207.788 1531.03,186.242 1555.66,166.509 1579.86,148.668 1603.61,132.788 1626.89,118.934 1649.67,107.16 1671.94,97.5148 1693.65,90.0353 1714.81,84.7518 1735.38,81.6852 1755.34,80.8479 1774.68,82.2432 1793.38,85.8655 1811.41,91.7003 1828.76,99.7245 1845.41,109.906 1861.34,122.204 1876.55,136.57 1891,152.947 1904.7,171.268 1917.63,191.462 1929.76,213.447 1941.1,237.137 1951.62,262.436 1961.33,289.243 1970.2,317.453 1978.24,346.952 1985.43,377.622 1991.76,409.343 1997.23,441.986 2001.83,475.422 2005.57,509.518 2008.42,544.138 2010.41,579.144 2011.51,614.396 2011.73,649.753 2011.07,685.075 2009.52,720.221 2007.1,755.051 2003.81,789.427 1999.64,823.21 1994.6,856.266 1988.7,888.464 1981.94,919.675 1974.33,949.775 1965.87,978.643 1956.58,1006.17 1946.46,1032.23 1935.53,1056.74 1923.79,1079.59 1911.26,1100.69 1897.95,1119.95 1883.87,1137.31 1869.04,1152.69 1853.46,1166.03 1837.17,1177.27 1820.17,1186.38 1802.48,1193.32 1784.11,1198.05 1765.09,1200.56 1745.44,1200.84 1725.17,1198.88 1704.3,1194.71 1682.86,1188.32 1660.87,1179.75 1638.35,1169.04 1615.31,1156.22 1591.8,1141.34 1567.81,1124.48 1543.4,1105.68 1518.56,1085.03 1493.34,1062.61 1467.75,1038.51 1441.82,1012.82 1415.59,985.654 1389.06,957.112 1362.27,927.309 1335.25,896.364 1308.03,864.401 1280.62,831.547 1253.06,797.933 1225.38,763.693 1197.6,728.964 1169.75,693.884 1141.86,658.592 1113.95,623.23 1086.06,587.939 1058.21,552.859 1030.43,518.13 1002.75,483.89 975.191,450.276 947.785,417.422 920.558,385.459 893.538,354.514 866.752,324.711 840.226,296.169 813.987,269 788.061,243.314 762.474,219.214 737.251,196.794 712.417,176.144 687.997,157.347 664.016,140.478 640.498,125.604 617.465,112.784 594.941,102.069 572.948,93.5022 551.509,87.1175 530.644,82.9404 510.374,80.9875 490.72,81.2666 471.701,83.7766 453.337,88.5076 435.645,95.4406 418.642,104.548 402.347,115.793 386.775,129.132 371.942,144.511 357.862,161.869 344.55,181.136 332.019,202.236 320.281,225.085 309.349,249.591 299.232,275.657 289.941,303.18 281.486,332.048 273.874,362.148 267.113,393.359 261.211,425.557 256.173,458.613 252.003,492.396 248.707,526.771 246.287,561.601 244.746,596.748 244.085,632.07 244.306,667.427 245.407,702.679 247.387,737.685 250.246,772.304 253.979,806.4 258.584,839.837 264.055,872.48 270.387,904.2 277.574,934.871 285.608,964.37 294.483,992.58 304.188,1019.39 314.714,1044.69 326.05,1068.38 338.186,1090.36 351.11,1110.55 364.807,1128.88 379.265,1145.25 394.47,1159.62 410.405,1171.92 427.056,1182.1 444.405,1190.12 462.436,1195.96 481.13,1199.58 500.469,1200.97 520.433,1200.14 541.003,1197.07 562.158,1191.79 583.877,1184.31 606.138,1174.66 628.919,1162.89 652.198,1149.03 675.95,1133.16 700.154,1115.31 724.784,1095.58 749.815,1074.04 775.223,1050.76 800.983,1025.86 827.069,999.417 853.455,971.548 880.114,942.36 907.021,911.971 934.147,880.502 961.467,848.077 988.953,814.827 1016.58,780.883 1044.31,746.381 1072.13,711.459 1100,676.256 1127.91,640.911 "/>
<path clip-path="url(#clip270)" d="M1762.5 190.502 L2002.3 190.502 L2002.3 86.8219 L1762.5 86.8219  Z" fill="#ffffff" fill-rule="evenodd" fill-opacity="1"/>
<polyline clip-path="url(#clip270)" style="stroke:#000000; stroke-linecap:round; stroke-linejoin:round; stroke-width:4; stroke-opacity:1; fill:none" points="1762.5,190.502 2002.3,190.502 2002.3,86.8219 1762.5,86.8219 1762.5,190.502 "/>
<polyline clip-path="url(#clip270)" style="stroke:#009af9; stroke-linecap:round; stroke-linejoin:round; stroke-width:4; stroke-opacity:1; fill:none" points="1783.32,138.662 1908.23,138.662 "/>
<path clip-path="url(#clip270)" d="M1942.89 158.349 Q1941.09 162.979 1939.37 164.391 Q1937.66 165.803 1934.79 165.803 L1931.39 165.803 L1931.39 162.238 L1933.89 162.238 Q1935.65 162.238 1936.62 161.405 Q1937.59 160.572 1938.77 157.47 L1939.54 155.525 L1929.05 130.016 L1933.56 130.016 L1941.67 150.294 L1949.77 130.016 L1954.28 130.016 L1942.89 158.349 Z" fill="#000000" fill-rule="nonzero" fill-opacity="1" /><path clip-path="url(#clip270)" d="M1961.57 152.007 L1969.21 152.007 L1969.21 125.641 L1960.9 127.308 L1960.9 123.049 L1969.17 121.382 L1973.84 121.382 L1973.84 152.007 L1981.48 152.007 L1981.48 155.942 L1961.57 155.942 L1961.57 152.007 Z" fill="#000000" fill-rule="nonzero" fill-opacity="1" /></svg>
