<?xml version="1.0" encoding="utf-8"?>
<svg xmlns="http://www.w3.org/2000/svg" xmlns:xlink="http://www.w3.org/1999/xlink" width="528" height="336" viewBox="0 0 2112 1344">
<defs>
  <clipPath id="clip030">
    <rect x="0" y="0" width="2112" height="1344"/>
  </clipPath>
</defs>
<path clip-path="url(#clip030)" d="M0 1344 L2112 1344 L2112 0 L0 0  Z" fill="#ffffff" fill-rule="evenodd" fill-opacity="1"/>
<defs>
  <clipPath id="clip031">
    <rect x="422" y="0" width="1479" height="1344"/>
  </clipPath>
</defs>
<path clip-path="url(#clip030)" d="M191.056 1234.58 L2064.76 1234.58 L2064.76 47.2441 L191.056 47.2441  Z" fill="#ffffff" fill-rule="evenodd" fill-opacity="1"/>
<defs>
  <clipPath id="clip032">
    <rect x="191" y="47" width="1875" height="1188"/>
  </clipPath>
</defs>
<polyline clip-path="url(#clip032)" style="stroke:#000000; stroke-linecap:round; stroke-linejoin:round; stroke-width:2; stroke-opacity:0.1; fill:none" points="244.085,1234.58 244.085,47.2441 "/>
<polyline clip-path="url(#clip032)" style="stroke:#000000; stroke-linecap:round; stroke-linejoin:round; stroke-width:2; stroke-opacity:0.1; fill:none" points="525.414,1234.58 525.414,47.2441 "/>
<polyline clip-path="url(#clip032)" style="stroke:#000000; stroke-linecap:round; stroke-linejoin:round; stroke-width:2; stroke-opacity:0.1; fill:none" points="806.743,1234.58 806.743,47.2441 "/>
<polyline clip-path="url(#clip032)" style="stroke:#000000; stroke-linecap:round; stroke-linejoin:round; stroke-width:2; stroke-opacity:0.1; fill:none" points="1088.07,1234.58 1088.07,47.2441 "/>
<polyline clip-path="url(#clip032)" style="stroke:#000000; stroke-linecap:round; stroke-linejoin:round; stroke-width:2; stroke-opacity:0.1; fill:none" points="1369.4,1234.58 1369.4,47.2441 "/>
<polyline clip-path="url(#clip032)" style="stroke:#000000; stroke-linecap:round; stroke-linejoin:round; stroke-width:2; stroke-opacity:0.1; fill:none" points="1650.73,1234.58 1650.73,47.2441 "/>
<polyline clip-path="url(#clip032)" style="stroke:#000000; stroke-linecap:round; stroke-linejoin:round; stroke-width:2; stroke-opacity:0.1; fill:none" points="1932.06,1234.58 1932.06,47.2441 "/>
<polyline clip-path="url(#clip030)" style="stroke:#000000; stroke-linecap:round; stroke-linejoin:round; stroke-width:4; stroke-opacity:1; fill:none" points="191.056,1234.58 2064.76,1234.58 "/>
<polyline clip-path="url(#clip030)" style="stroke:#000000; stroke-linecap:round; stroke-linejoin:round; stroke-width:4; stroke-opacity:1; fill:none" points="244.085,1234.58 244.085,1215.68 "/>
<polyline clip-path="url(#clip030)" style="stroke:#000000; stroke-linecap:round; stroke-linejoin:round; stroke-width:4; stroke-opacity:1; fill:none" points="525.414,1234.58 525.414,1215.68 "/>
<polyline clip-path="url(#clip030)" style="stroke:#000000; stroke-linecap:round; stroke-linejoin:round; stroke-width:4; stroke-opacity:1; fill:none" points="806.743,1234.58 806.743,1215.68 "/>
<polyline clip-path="url(#clip030)" style="stroke:#000000; stroke-linecap:round; stroke-linejoin:round; stroke-width:4; stroke-opacity:1; fill:none" points="1088.07,1234.58 1088.07,1215.68 "/>
<polyline clip-path="url(#clip030)" style="stroke:#000000; stroke-linecap:round; stroke-linejoin:round; stroke-width:4; stroke-opacity:1; fill:none" points="1369.4,1234.58 1369.4,1215.68 "/>
<polyline clip-path="url(#clip030)" style="stroke:#000000; stroke-linecap:round; stroke-linejoin:round; stroke-width:4; stroke-opacity:1; fill:none" points="1650.73,1234.58 1650.73,1215.68 "/>
<polyline clip-path="url(#clip030)" style="stroke:#000000; stroke-linecap:round; stroke-linejoin:round; stroke-width:4; stroke-opacity:1; fill:none" points="1932.06,1234.58 1932.06,1215.68 "/>
<path clip-path="url(#clip030)" d="M244.085 1263.19 Q240.474 1263.19 238.645 1266.76 Q236.84 1270.3 236.84 1277.43 Q236.84 1284.54 238.645 1288.1 Q240.474 1291.64 244.085 1291.64 Q247.719 1291.64 249.525 1288.1 Q251.354 1284.54 251.354 1277.43 Q251.354 1270.3 249.525 1266.76 Q247.719 1263.19 244.085 1263.19 M244.085 1259.49 Q249.895 1259.49 252.951 1264.1 Q256.03 1268.68 256.03 1277.43 Q256.03 1286.16 252.951 1290.76 Q249.895 1295.35 244.085 1295.35 Q238.275 1295.35 235.196 1290.76 Q232.141 1286.16 232.141 1277.43 Q232.141 1268.68 235.196 1264.1 Q238.275 1259.49 244.085 1259.49 Z" fill="#000000" fill-rule="nonzero" fill-opacity="1" /><path clip-path="url(#clip030)" d="M515.796 1290.74 L523.435 1290.74 L523.435 1264.37 L515.125 1266.04 L515.125 1261.78 L523.389 1260.11 L528.065 1260.11 L528.065 1290.74 L535.703 1290.74 L535.703 1294.67 L515.796 1294.67 L515.796 1290.74 Z" fill="#000000" fill-rule="nonzero" fill-opacity="1" /><path clip-path="url(#clip030)" d="M801.396 1290.74 L817.715 1290.74 L817.715 1294.67 L795.771 1294.67 L795.771 1290.74 Q798.433 1287.99 803.016 1283.36 Q807.623 1278.7 808.803 1277.36 Q811.049 1274.84 811.928 1273.1 Q812.831 1271.34 812.831 1269.65 Q812.831 1266.9 810.886 1265.16 Q808.965 1263.42 805.863 1263.42 Q803.664 1263.42 801.211 1264.19 Q798.78 1264.95 796.002 1266.5 L796.002 1261.78 Q798.826 1260.65 801.28 1260.07 Q803.734 1259.49 805.771 1259.49 Q811.141 1259.49 814.336 1262.17 Q817.53 1264.86 817.53 1269.35 Q817.53 1271.48 816.72 1273.4 Q815.933 1275.3 813.826 1277.89 Q813.248 1278.56 810.146 1281.78 Q807.044 1284.98 801.396 1290.74 Z" fill="#000000" fill-rule="nonzero" fill-opacity="1" /><path clip-path="url(#clip030)" d="M1092.32 1276.04 Q1095.68 1276.76 1097.55 1279.03 Q1099.45 1281.3 1099.45 1284.63 Q1099.45 1289.74 1095.93 1292.55 Q1092.41 1295.35 1085.93 1295.35 Q1083.75 1295.35 1081.44 1294.91 Q1079.15 1294.49 1076.69 1293.63 L1076.69 1289.12 Q1078.64 1290.25 1080.95 1290.83 Q1083.27 1291.41 1085.79 1291.41 Q1090.19 1291.41 1092.48 1289.67 Q1094.8 1287.94 1094.8 1284.63 Q1094.8 1281.57 1092.64 1279.86 Q1090.51 1278.12 1086.69 1278.12 L1082.67 1278.12 L1082.67 1274.28 L1086.88 1274.28 Q1090.33 1274.28 1092.16 1272.92 Q1093.99 1271.53 1093.99 1268.93 Q1093.99 1266.27 1092.09 1264.86 Q1090.21 1263.42 1086.69 1263.42 Q1084.77 1263.42 1082.57 1263.84 Q1080.38 1264.26 1077.74 1265.14 L1077.74 1260.97 Q1080.4 1260.23 1082.71 1259.86 Q1085.05 1259.49 1087.11 1259.49 Q1092.44 1259.49 1095.54 1261.92 Q1098.64 1264.33 1098.64 1268.45 Q1098.64 1271.32 1097 1273.31 Q1095.35 1275.28 1092.32 1276.04 Z" fill="#000000" fill-rule="nonzero" fill-opacity="1" /><path clip-path="url(#clip030)" d="M1372.41 1264.19 L1360.6 1282.64 L1372.41 1282.64 L1372.41 1264.19 M1371.18 1260.11 L1377.06 1260.11 L1377.06 1282.64 L1381.99 1282.64 L1381.99 1286.53 L1377.06 1286.53 L1377.06 1294.67 L1372.41 1294.67 L1372.41 1286.53 L1356.81 1286.53 L1356.81 1282.01 L1371.18 1260.11 Z" fill="#000000" fill-rule="nonzero" fill-opacity="1" /><path clip-path="url(#clip030)" d="M1641.01 1260.11 L1659.36 1260.11 L1659.36 1264.05 L1645.29 1264.05 L1645.29 1272.52 Q1646.31 1272.17 1647.33 1272.01 Q1648.35 1271.83 1649.36 1271.83 Q1655.15 1271.83 1658.53 1275 Q1661.91 1278.17 1661.91 1283.59 Q1661.91 1289.17 1658.44 1292.27 Q1654.97 1295.35 1648.65 1295.35 Q1646.47 1295.35 1644.2 1294.98 Q1641.96 1294.61 1639.55 1293.86 L1639.55 1289.17 Q1641.63 1290.3 1643.85 1290.86 Q1646.08 1291.41 1648.55 1291.41 Q1652.56 1291.41 1654.9 1289.3 Q1657.23 1287.2 1657.23 1283.59 Q1657.23 1279.98 1654.9 1277.87 Q1652.56 1275.76 1648.55 1275.76 Q1646.68 1275.76 1644.8 1276.18 Q1642.95 1276.6 1641.01 1277.48 L1641.01 1260.11 Z" fill="#000000" fill-rule="nonzero" fill-opacity="1" /><path clip-path="url(#clip030)" d="M1932.46 1275.53 Q1929.32 1275.53 1927.46 1277.68 Q1925.63 1279.84 1925.63 1283.59 Q1925.63 1287.31 1927.46 1289.49 Q1929.32 1291.64 1932.46 1291.64 Q1935.61 1291.64 1937.44 1289.49 Q1939.29 1287.31 1939.29 1283.59 Q1939.29 1279.84 1937.44 1277.68 Q1935.61 1275.53 1932.46 1275.53 M1941.75 1260.88 L1941.75 1265.14 Q1939.99 1264.3 1938.18 1263.86 Q1936.4 1263.42 1934.64 1263.42 Q1930.01 1263.42 1927.56 1266.55 Q1925.13 1269.67 1924.78 1275.99 Q1926.14 1273.98 1928.2 1272.92 Q1930.26 1271.83 1932.74 1271.83 Q1937.95 1271.83 1940.96 1275 Q1943.99 1278.15 1943.99 1283.59 Q1943.99 1288.91 1940.84 1292.13 Q1937.7 1295.35 1932.46 1295.35 Q1926.47 1295.35 1923.3 1290.76 Q1920.13 1286.16 1920.13 1277.43 Q1920.13 1269.24 1924.01 1264.37 Q1927.9 1259.49 1934.45 1259.49 Q1936.21 1259.49 1938 1259.84 Q1939.8 1260.18 1941.75 1260.88 Z" fill="#000000" fill-rule="nonzero" fill-opacity="1" /><polyline clip-path="url(#clip032)" style="stroke:#000000; stroke-linecap:round; stroke-linejoin:round; stroke-width:2; stroke-opacity:0.1; fill:none" points="191.056,1200.98 2064.76,1200.98 "/>
<polyline clip-path="url(#clip032)" style="stroke:#000000; stroke-linecap:round; stroke-linejoin:round; stroke-width:2; stroke-opacity:0.1; fill:none" points="191.056,920.944 2064.76,920.944 "/>
<polyline clip-path="url(#clip032)" style="stroke:#000000; stroke-linecap:round; stroke-linejoin:round; stroke-width:2; stroke-opacity:0.1; fill:none" points="191.056,640.912 2064.76,640.912 "/>
<polyline clip-path="url(#clip032)" style="stroke:#000000; stroke-linecap:round; stroke-linejoin:round; stroke-width:2; stroke-opacity:0.1; fill:none" points="191.056,360.88 2064.76,360.88 "/>
<polyline clip-path="url(#clip032)" style="stroke:#000000; stroke-linecap:round; stroke-linejoin:round; stroke-width:2; stroke-opacity:0.1; fill:none" points="191.056,80.8479 2064.76,80.8479 "/>
<polyline clip-path="url(#clip030)" style="stroke:#000000; stroke-linecap:round; stroke-linejoin:round; stroke-width:4; stroke-opacity:1; fill:none" points="191.056,1234.58 191.056,47.2441 "/>
<polyline clip-path="url(#clip030)" style="stroke:#000000; stroke-linecap:round; stroke-linejoin:round; stroke-width:4; stroke-opacity:1; fill:none" points="191.056,1200.98 209.954,1200.98 "/>
<polyline clip-path="url(#clip030)" style="stroke:#000000; stroke-linecap:round; stroke-linejoin:round; stroke-width:4; stroke-opacity:1; fill:none" points="191.056,920.944 209.954,920.944 "/>
<polyline clip-path="url(#clip030)" style="stroke:#000000; stroke-linecap:round; stroke-linejoin:round; stroke-width:4; stroke-opacity:1; fill:none" points="191.056,640.912 209.954,640.912 "/>
<polyline clip-path="url(#clip030)" style="stroke:#000000; stroke-linecap:round; stroke-linejoin:round; stroke-width:4; stroke-opacity:1; fill:none" points="191.056,360.88 209.954,360.88 "/>
<polyline clip-path="url(#clip030)" style="stroke:#000000; stroke-linecap:round; stroke-linejoin:round; stroke-width:4; stroke-opacity:1; fill:none" points="191.056,80.8479 209.954,80.8479 "/>
<path clip-path="url(#clip030)" d="M52.4321 1201.43 L82.1079 1201.43 L82.1079 1205.36 L52.4321 1205.36 L52.4321 1201.43 Z" fill="#000000" fill-rule="nonzero" fill-opacity="1" /><path clip-path="url(#clip030)" d="M93.0106 1214.32 L100.649 1214.32 L100.649 1187.96 L92.3393 1189.62 L92.3393 1185.36 L100.603 1183.7 L105.279 1183.7 L105.279 1214.32 L112.918 1214.32 L112.918 1218.26 L93.0106 1218.26 L93.0106 1214.32 Z" fill="#000000" fill-rule="nonzero" fill-opacity="1" /><path clip-path="url(#clip030)" d="M122.362 1212.38 L127.247 1212.38 L127.247 1218.26 L122.362 1218.26 L122.362 1212.38 Z" fill="#000000" fill-rule="nonzero" fill-opacity="1" /><path clip-path="url(#clip030)" d="M147.432 1186.77 Q143.821 1186.77 141.992 1190.34 Q140.186 1193.88 140.186 1201.01 Q140.186 1208.12 141.992 1211.68 Q143.821 1215.22 147.432 1215.22 Q151.066 1215.22 152.871 1211.68 Q154.7 1208.12 154.7 1201.01 Q154.7 1193.88 152.871 1190.34 Q151.066 1186.77 147.432 1186.77 M147.432 1183.07 Q153.242 1183.07 156.297 1187.68 Q159.376 1192.26 159.376 1201.01 Q159.376 1209.74 156.297 1214.34 Q153.242 1218.93 147.432 1218.93 Q141.621 1218.93 138.543 1214.34 Q135.487 1209.74 135.487 1201.01 Q135.487 1192.26 138.543 1187.68 Q141.621 1183.07 147.432 1183.07 Z" fill="#000000" fill-rule="nonzero" fill-opacity="1" /><path clip-path="url(#clip030)" d="M53.4275 921.396 L83.1033 921.396 L83.1033 925.331 L53.4275 925.331 L53.4275 921.396 Z" fill="#000000" fill-rule="nonzero" fill-opacity="1" /><path clip-path="url(#clip030)" d="M103.196 906.743 Q99.5847 906.743 97.756 910.308 Q95.9504 913.849 95.9504 920.979 Q95.9504 928.085 97.756 931.65 Q99.5847 935.192 103.196 935.192 Q106.83 935.192 108.636 931.65 Q110.464 928.085 110.464 920.979 Q110.464 913.849 108.636 910.308 Q106.83 906.743 103.196 906.743 M103.196 903.039 Q109.006 903.039 112.061 907.646 Q115.14 912.229 115.14 920.979 Q115.14 929.706 112.061 934.312 Q109.006 938.895 103.196 938.895 Q97.3856 938.895 94.3069 934.312 Q91.2514 929.706 91.2514 920.979 Q91.2514 912.229 94.3069 907.646 Q97.3856 903.039 103.196 903.039 Z" fill="#000000" fill-rule="nonzero" fill-opacity="1" /><path clip-path="url(#clip030)" d="M123.358 932.345 L128.242 932.345 L128.242 938.224 L123.358 938.224 L123.358 932.345 Z" fill="#000000" fill-rule="nonzero" fill-opacity="1" /><path clip-path="url(#clip030)" d="M138.473 903.664 L156.83 903.664 L156.83 907.599 L142.756 907.599 L142.756 916.071 Q143.774 915.724 144.793 915.562 Q145.811 915.377 146.83 915.377 Q152.617 915.377 155.996 918.548 Q159.376 921.72 159.376 927.136 Q159.376 932.715 155.904 935.817 Q152.432 938.895 146.112 938.895 Q143.936 938.895 141.668 938.525 Q139.422 938.155 137.015 937.414 L137.015 932.715 Q139.098 933.849 141.321 934.405 Q143.543 934.96 146.02 934.96 Q150.024 934.96 152.362 932.854 Q154.7 930.747 154.7 927.136 Q154.7 923.525 152.362 921.419 Q150.024 919.312 146.02 919.312 Q144.145 919.312 142.27 919.729 Q140.418 920.146 138.473 921.025 L138.473 903.664 Z" fill="#000000" fill-rule="nonzero" fill-opacity="1" /><path clip-path="url(#clip030)" d="M102.2 626.711 Q98.5893 626.711 96.7606 630.276 Q94.955 633.817 94.955 640.947 Q94.955 648.053 96.7606 651.618 Q98.5893 655.16 102.2 655.16 Q105.835 655.16 107.64 651.618 Q109.469 648.053 109.469 640.947 Q109.469 633.817 107.64 630.276 Q105.835 626.711 102.2 626.711 M102.2 623.007 Q108.011 623.007 111.066 627.614 Q114.145 632.197 114.145 640.947 Q114.145 649.674 111.066 654.28 Q108.011 658.863 102.2 658.863 Q96.3902 658.863 93.3115 654.28 Q90.256 649.674 90.256 640.947 Q90.256 632.197 93.3115 627.614 Q96.3902 623.007 102.2 623.007 Z" fill="#000000" fill-rule="nonzero" fill-opacity="1" /><path clip-path="url(#clip030)" d="M122.362 652.312 L127.247 652.312 L127.247 658.192 L122.362 658.192 L122.362 652.312 Z" fill="#000000" fill-rule="nonzero" fill-opacity="1" /><path clip-path="url(#clip030)" d="M147.432 626.711 Q143.821 626.711 141.992 630.276 Q140.186 633.817 140.186 640.947 Q140.186 648.053 141.992 651.618 Q143.821 655.16 147.432 655.16 Q151.066 655.16 152.871 651.618 Q154.7 648.053 154.7 640.947 Q154.7 633.817 152.871 630.276 Q151.066 626.711 147.432 626.711 M147.432 623.007 Q153.242 623.007 156.297 627.614 Q159.376 632.197 159.376 640.947 Q159.376 649.674 156.297 654.28 Q153.242 658.863 147.432 658.863 Q141.621 658.863 138.543 654.28 Q135.487 649.674 135.487 640.947 Q135.487 632.197 138.543 627.614 Q141.621 623.007 147.432 623.007 Z" fill="#000000" fill-rule="nonzero" fill-opacity="1" /><path clip-path="url(#clip030)" d="M103.196 346.679 Q99.5847 346.679 97.756 350.243 Q95.9504 353.785 95.9504 360.915 Q95.9504 368.021 97.756 371.586 Q99.5847 375.128 103.196 375.128 Q106.83 375.128 108.636 371.586 Q110.464 368.021 110.464 360.915 Q110.464 353.785 108.636 350.243 Q106.83 346.679 103.196 346.679 M103.196 342.975 Q109.006 342.975 112.061 347.581 Q115.14 352.165 115.14 360.915 Q115.14 369.642 112.061 374.248 Q109.006 378.831 103.196 378.831 Q97.3856 378.831 94.3069 374.248 Q91.2514 369.642 91.2514 360.915 Q91.2514 352.165 94.3069 347.581 Q97.3856 342.975 103.196 342.975 Z" fill="#000000" fill-rule="nonzero" fill-opacity="1" /><path clip-path="url(#clip030)" d="M123.358 372.28 L128.242 372.28 L128.242 378.16 L123.358 378.16 L123.358 372.28 Z" fill="#000000" fill-rule="nonzero" fill-opacity="1" /><path clip-path="url(#clip030)" d="M138.473 343.6 L156.83 343.6 L156.83 347.535 L142.756 347.535 L142.756 356.007 Q143.774 355.66 144.793 355.498 Q145.811 355.313 146.83 355.313 Q152.617 355.313 155.996 358.484 Q159.376 361.655 159.376 367.072 Q159.376 372.651 155.904 375.753 Q152.432 378.831 146.112 378.831 Q143.936 378.831 141.668 378.461 Q139.422 378.091 137.015 377.35 L137.015 372.651 Q139.098 373.785 141.321 374.341 Q143.543 374.896 146.02 374.896 Q150.024 374.896 152.362 372.79 Q154.7 370.683 154.7 367.072 Q154.7 363.461 152.362 361.355 Q150.024 359.248 146.02 359.248 Q144.145 359.248 142.27 359.665 Q140.418 360.081 138.473 360.961 L138.473 343.6 Z" fill="#000000" fill-rule="nonzero" fill-opacity="1" /><path clip-path="url(#clip030)" d="M93.0106 94.1927 L100.649 94.1927 L100.649 67.8271 L92.3393 69.4938 L92.3393 65.2346 L100.603 63.5679 L105.279 63.5679 L105.279 94.1927 L112.918 94.1927 L112.918 98.1279 L93.0106 98.1279 L93.0106 94.1927 Z" fill="#000000" fill-rule="nonzero" fill-opacity="1" /><path clip-path="url(#clip030)" d="M122.362 92.2483 L127.247 92.2483 L127.247 98.1279 L122.362 98.1279 L122.362 92.2483 Z" fill="#000000" fill-rule="nonzero" fill-opacity="1" /><path clip-path="url(#clip030)" d="M147.432 66.6466 Q143.821 66.6466 141.992 70.2114 Q140.186 73.753 140.186 80.8826 Q140.186 87.9891 141.992 91.5539 Q143.821 95.0955 147.432 95.0955 Q151.066 95.0955 152.871 91.5539 Q154.7 87.9891 154.7 80.8826 Q154.7 73.753 152.871 70.2114 Q151.066 66.6466 147.432 66.6466 M147.432 62.9429 Q153.242 62.9429 156.297 67.5494 Q159.376 72.1327 159.376 80.8826 Q159.376 89.6094 156.297 94.2159 Q153.242 98.7992 147.432 98.7992 Q141.621 98.7992 138.543 94.2159 Q135.487 89.6094 135.487 80.8826 Q135.487 72.1327 138.543 67.5494 Q141.621 62.9429 147.432 62.9429 Z" fill="#000000" fill-rule="nonzero" fill-opacity="1" /><polyline clip-path="url(#clip032)" style="stroke:#009af9; stroke-linecap:round; stroke-linejoin:round; stroke-width:4; stroke-opacity:1; fill:none" points="244.085,640.912 249.839,629.458 255.594,618.008 282.196,565.273 308.799,513.214 335.402,462.296 362.005,412.974 377.992,384.286 393.979,356.426 409.966,329.485 425.953,303.549 439.47,282.467 452.987,262.213 466.504,242.832 480.021,224.37 494.704,205.407 509.387,187.629 524.07,171.085 538.753,155.821 552.29,142.919 565.827,131.169 579.363,120.599 592.9,111.234 607.412,102.556 621.925,95.3096 636.438,89.5152 650.95,85.1878 667.765,82.0235 684.579,80.855 701.393,81.6866 718.208,84.5151 733.15,88.6968 748.093,94.436 763.035,101.716 777.978,110.518 791.081,119.468 804.184,129.549 817.288,140.739 830.391,153.014 844.677,167.602 858.963,183.41 873.249,200.397 887.536,218.521 901.907,237.85 916.278,258.231 930.649,279.611 945.02,301.933 960.909,327.64 976.798,354.346 992.687,381.966 1008.58,410.411 1038.81,466.495 1069.05,524.591 1131.92,648.911 1184.85,753.509 1217.16,815.638 1249.47,875.464 1264.27,901.881 1279.07,927.576 1293.87,952.478 1308.67,976.517 1322.34,997.897 1336.01,1018.43 1349.67,1038.08 1363.34,1056.79 1377.19,1074.74 1391.03,1091.64 1404.88,1107.45 1418.72,1122.13 1434.24,1137.19 1449.76,1150.74 1465.27,1162.75 1480.79,1173.17 1494.85,1181.21 1508.91,1187.9 1522.97,1193.23 1537.03,1197.18 1553.13,1199.99 1569.23,1200.97 1585.33,1200.13 1601.43,1197.44 1616.33,1193.34 1631.24,1187.68 1646.14,1180.49 1661.05,1171.78 1675.74,1161.74 1690.44,1150.28 1705.14,1137.43 1719.83,1123.22 1734.1,1108.17 1748.37,1091.91 1762.63,1074.5 1776.9,1055.97 1791.53,1035.87 1806.16,1014.7 1820.78,992.521 1835.41,969.391 1851.43,943.034 1867.46,915.696 1883.48,887.466 1899.51,858.437 1946.07,770.445 1992.62,678.913 2002.18,659.923 2011.73,640.912 "/>
<polyline clip-path="url(#clip032)" style="stroke:#e26f46; stroke-linecap:round; stroke-linejoin:round; stroke-width:4; stroke-opacity:1; fill:none" points="244.085,80.8479 246.962,80.8772 249.839,80.9651 252.716,81.1115 255.594,81.3164 268.895,83.0243 282.196,85.9791 295.498,90.1741 308.799,95.6001 322.1,102.245 335.402,110.094 348.703,119.129 362.005,129.33 377.992,143.102 393.979,158.481 409.966,175.418 425.953,193.857 439.47,210.576 452.987,228.288 466.504,246.952 480.021,266.526 494.704,288.766 509.387,311.965 524.07,336.06 538.753,360.986 565.827,408.891 592.9,458.943 650.95,571.325 718.208,704.899 748.093,763.532 777.978,820.783 804.184,869.34 830.391,915.916 844.677,940.326 858.963,963.965 873.249,986.771 887.536,1008.69 901.907,1029.77 916.278,1049.85 930.649,1068.85 945.02,1086.74 960.909,1105.17 976.798,1122.11 992.687,1137.52 1008.58,1151.34 1023.69,1162.99 1038.81,1173.12 1053.93,1181.72 1069.05,1188.76 1084.77,1194.4 1100.49,1198.32 1116.21,1200.49 1131.92,1200.92 1145.16,1199.92 1158.39,1197.69 1171.62,1194.23 1184.85,1189.54 1201.01,1182.17 1217.16,1173.02 1233.32,1162.12 1249.47,1149.5 1264.27,1136.46 1279.07,1122.05 1293.87,1106.31 1308.67,1089.29 1322.34,1072.46 1336.01,1054.61 1349.67,1035.79 1363.34,1016.04 1377.19,995.125 1391.03,973.354 1404.88,950.779 1418.72,927.453 1449.76,872.736 1480.79,815.201 1508.91,761.216 1537.03,706.03 1601.43,578.116 1661.05,462.454 1690.44,408.067 1719.83,356.22 1734.1,332.135 1748.37,308.845 1762.63,286.409 1776.9,264.884 1791.53,243.822 1806.16,223.834 1820.78,204.973 1835.41,187.29 1851.43,169.325 1867.46,152.89 1883.48,138.038 1899.51,124.817 1911.15,116.261 1922.79,108.603 1934.43,101.857 1946.07,96.0331 1969.34,87.1912 1992.62,82.1386 1997.4,81.574 2002.18,81.1707 2006.95,80.9286 2011.73,80.8479 "/>
<path clip-path="url(#clip030)" d="M253.513 1195 L493.313 1195 L493.313 1039.48 L253.513 1039.48  Z" fill="#ffffff" fill-rule="evenodd" fill-opacity="1"/>
<polyline clip-path="url(#clip030)" style="stroke:#000000; stroke-linecap:round; stroke-linejoin:round; stroke-width:4; stroke-opacity:1; fill:none" points="253.513,1195 493.313,1195 493.313,1039.48 253.513,1039.48 253.513,1195 "/>
<polyline clip-path="url(#clip030)" style="stroke:#009af9; stroke-linecap:round; stroke-linejoin:round; stroke-width:4; stroke-opacity:1; fill:none" points="274.332,1091.32 399.245,1091.32 "/>
<path clip-path="url(#clip030)" d="M433.906 1111.01 Q432.101 1115.64 430.388 1117.05 Q428.675 1118.46 425.804 1118.46 L422.402 1118.46 L422.402 1114.9 L424.902 1114.9 Q426.661 1114.9 427.633 1114.06 Q428.605 1113.23 429.786 1110.13 L430.55 1108.18 L420.064 1082.68 L424.578 1082.68 L432.679 1102.95 L440.781 1082.68 L445.295 1082.68 L433.906 1111.01 Z" fill="#000000" fill-rule="nonzero" fill-opacity="1" /><path clip-path="url(#clip030)" d="M452.587 1104.67 L460.226 1104.67 L460.226 1078.3 L451.915 1079.97 L451.915 1075.71 L460.179 1074.04 L464.855 1074.04 L464.855 1104.67 L472.494 1104.67 L472.494 1108.6 L452.587 1108.6 L452.587 1104.67 Z" fill="#000000" fill-rule="nonzero" fill-opacity="1" /><polyline clip-path="url(#clip030)" style="stroke:#e26f46; stroke-linecap:round; stroke-linejoin:round; stroke-width:4; stroke-opacity:1; fill:none" points="274.332,1143.16 399.245,1143.16 "/>
<path clip-path="url(#clip030)" d="M433.906 1162.85 Q432.101 1167.48 430.388 1168.89 Q428.675 1170.3 425.804 1170.3 L422.402 1170.3 L422.402 1166.74 L424.902 1166.74 Q426.661 1166.74 427.633 1165.9 Q428.605 1165.07 429.786 1161.97 L430.55 1160.02 L420.064 1134.52 L424.578 1134.52 L432.679 1154.79 L440.781 1134.52 L445.295 1134.52 L433.906 1162.85 Z" fill="#000000" fill-rule="nonzero" fill-opacity="1" /><path clip-path="url(#clip030)" d="M455.804 1156.51 L472.124 1156.51 L472.124 1160.44 L450.179 1160.44 L450.179 1156.51 Q452.841 1153.75 457.425 1149.12 Q462.031 1144.47 463.212 1143.13 Q465.457 1140.6 466.337 1138.87 Q467.239 1137.11 467.239 1135.42 Q467.239 1132.66 465.295 1130.93 Q463.374 1129.19 460.272 1129.19 Q458.073 1129.19 455.619 1129.96 Q453.189 1130.72 450.411 1132.27 L450.411 1127.55 Q453.235 1126.41 455.689 1125.83 Q458.142 1125.26 460.179 1125.26 Q465.55 1125.26 468.744 1127.94 Q471.938 1130.63 471.938 1135.12 Q471.938 1137.25 471.128 1139.17 Q470.341 1141.07 468.235 1143.66 Q467.656 1144.33 464.554 1147.55 Q461.452 1150.74 455.804 1156.51 Z" fill="#000000" fill-rule="nonzero" fill-opacity="1" /></svg>
