<?xml version="1.0" encoding="utf-8"?>
<svg xmlns="http://www.w3.org/2000/svg" xmlns:xlink="http://www.w3.org/1999/xlink" width="528" height="336" viewBox="0 0 2112 1344">
<defs>
  <clipPath id="clip150">
    <rect x="0" y="0" width="2112" height="1344"/>
  </clipPath>
</defs>
<path clip-path="url(#clip150)" d="M0 1344 L2112 1344 L2112 0 L0 0  Z" fill="#ffffff" fill-rule="evenodd" fill-opacity="1"/>
<defs>
  <clipPath id="clip151">
    <rect x="422" y="0" width="1479" height="1344"/>
  </clipPath>
</defs>
<path clip-path="url(#clip150)" d="M175.987 1234.58 L2064.76 1234.58 L2064.76 47.2441 L175.987 47.2441  Z" fill="#ffffff" fill-rule="evenodd" fill-opacity="1"/>
<defs>
  <clipPath id="clip152">
    <rect x="175" y="47" width="1890" height="1188"/>
  </clipPath>
</defs>
<polyline clip-path="url(#clip152)" style="stroke:#000000; stroke-linecap:round; stroke-linejoin:round; stroke-width:2; stroke-opacity:0.1; fill:none" points="229.442,1234.58 229.442,47.2441 "/>
<polyline clip-path="url(#clip152)" style="stroke:#000000; stroke-linecap:round; stroke-linejoin:round; stroke-width:2; stroke-opacity:0.1; fill:none" points="674.907,1234.58 674.907,47.2441 "/>
<polyline clip-path="url(#clip152)" style="stroke:#000000; stroke-linecap:round; stroke-linejoin:round; stroke-width:2; stroke-opacity:0.1; fill:none" points="1120.37,1234.58 1120.37,47.2441 "/>
<polyline clip-path="url(#clip152)" style="stroke:#000000; stroke-linecap:round; stroke-linejoin:round; stroke-width:2; stroke-opacity:0.1; fill:none" points="1565.84,1234.58 1565.84,47.2441 "/>
<polyline clip-path="url(#clip152)" style="stroke:#000000; stroke-linecap:round; stroke-linejoin:round; stroke-width:2; stroke-opacity:0.1; fill:none" points="2011.3,1234.58 2011.3,47.2441 "/>
<polyline clip-path="url(#clip150)" style="stroke:#000000; stroke-linecap:round; stroke-linejoin:round; stroke-width:4; stroke-opacity:1; fill:none" points="175.987,1234.58 2064.76,1234.58 "/>
<polyline clip-path="url(#clip150)" style="stroke:#000000; stroke-linecap:round; stroke-linejoin:round; stroke-width:4; stroke-opacity:1; fill:none" points="229.442,1234.58 229.442,1215.68 "/>
<polyline clip-path="url(#clip150)" style="stroke:#000000; stroke-linecap:round; stroke-linejoin:round; stroke-width:4; stroke-opacity:1; fill:none" points="674.907,1234.58 674.907,1215.68 "/>
<polyline clip-path="url(#clip150)" style="stroke:#000000; stroke-linecap:round; stroke-linejoin:round; stroke-width:4; stroke-opacity:1; fill:none" points="1120.37,1234.58 1120.37,1215.68 "/>
<polyline clip-path="url(#clip150)" style="stroke:#000000; stroke-linecap:round; stroke-linejoin:round; stroke-width:4; stroke-opacity:1; fill:none" points="1565.84,1234.58 1565.84,1215.68 "/>
<polyline clip-path="url(#clip150)" style="stroke:#000000; stroke-linecap:round; stroke-linejoin:round; stroke-width:4; stroke-opacity:1; fill:none" points="2011.3,1234.58 2011.3,1215.68 "/>
<path clip-path="url(#clip150)" d="M175.97 1277.85 L205.646 1277.85 L205.646 1281.78 L175.97 1281.78 L175.97 1277.85 Z" fill="#000000" fill-rule="nonzero" fill-opacity="1" /><path clip-path="url(#clip150)" d="M216.549 1290.74 L224.188 1290.74 L224.188 1264.37 L215.878 1266.04 L215.878 1261.78 L224.141 1260.11 L228.817 1260.11 L228.817 1290.74 L236.456 1290.74 L236.456 1294.67 L216.549 1294.67 L216.549 1290.74 Z" fill="#000000" fill-rule="nonzero" fill-opacity="1" /><path clip-path="url(#clip150)" d="M245.901 1288.8 L250.785 1288.8 L250.785 1294.67 L245.901 1294.67 L245.901 1288.8 Z" fill="#000000" fill-rule="nonzero" fill-opacity="1" /><path clip-path="url(#clip150)" d="M270.97 1263.19 Q267.359 1263.19 265.53 1266.76 Q263.725 1270.3 263.725 1277.43 Q263.725 1284.54 265.53 1288.1 Q267.359 1291.64 270.97 1291.64 Q274.604 1291.64 276.41 1288.1 Q278.238 1284.54 278.238 1277.43 Q278.238 1270.3 276.41 1266.76 Q274.604 1263.19 270.97 1263.19 M270.97 1259.49 Q276.78 1259.49 279.836 1264.1 Q282.914 1268.68 282.914 1277.43 Q282.914 1286.16 279.836 1290.76 Q276.78 1295.35 270.97 1295.35 Q265.16 1295.35 262.081 1290.76 Q259.026 1286.16 259.026 1277.43 Q259.026 1268.68 262.081 1264.1 Q265.16 1259.49 270.97 1259.49 Z" fill="#000000" fill-rule="nonzero" fill-opacity="1" /><path clip-path="url(#clip150)" d="M621.933 1277.85 L651.608 1277.85 L651.608 1281.78 L621.933 1281.78 L621.933 1277.85 Z" fill="#000000" fill-rule="nonzero" fill-opacity="1" /><path clip-path="url(#clip150)" d="M671.701 1263.19 Q668.09 1263.19 666.261 1266.76 Q664.455 1270.3 664.455 1277.43 Q664.455 1284.54 666.261 1288.1 Q668.09 1291.64 671.701 1291.64 Q675.335 1291.64 677.141 1288.1 Q678.969 1284.54 678.969 1277.43 Q678.969 1270.3 677.141 1266.76 Q675.335 1263.19 671.701 1263.19 M671.701 1259.49 Q677.511 1259.49 680.567 1264.1 Q683.645 1268.68 683.645 1277.43 Q683.645 1286.16 680.567 1290.76 Q677.511 1295.35 671.701 1295.35 Q665.891 1295.35 662.812 1290.76 Q659.756 1286.16 659.756 1277.43 Q659.756 1268.68 662.812 1264.1 Q665.891 1259.49 671.701 1259.49 Z" fill="#000000" fill-rule="nonzero" fill-opacity="1" /><path clip-path="url(#clip150)" d="M691.863 1288.8 L696.747 1288.8 L696.747 1294.67 L691.863 1294.67 L691.863 1288.8 Z" fill="#000000" fill-rule="nonzero" fill-opacity="1" /><path clip-path="url(#clip150)" d="M706.978 1260.11 L725.335 1260.11 L725.335 1264.05 L711.261 1264.05 L711.261 1272.52 Q712.279 1272.17 713.298 1272.01 Q714.316 1271.83 715.335 1271.83 Q721.122 1271.83 724.501 1275 Q727.881 1278.17 727.881 1283.59 Q727.881 1289.17 724.409 1292.27 Q720.937 1295.35 714.617 1295.35 Q712.441 1295.35 710.173 1294.98 Q707.927 1294.61 705.52 1293.86 L705.52 1289.17 Q707.603 1290.3 709.826 1290.86 Q712.048 1291.41 714.525 1291.41 Q718.529 1291.41 720.867 1289.3 Q723.205 1287.2 723.205 1283.59 Q723.205 1279.98 720.867 1277.87 Q718.529 1275.76 714.525 1275.76 Q712.65 1275.76 710.775 1276.18 Q708.923 1276.6 706.978 1277.48 L706.978 1260.11 Z" fill="#000000" fill-rule="nonzero" fill-opacity="1" /><path clip-path="url(#clip150)" d="M1097.76 1263.19 Q1094.14 1263.19 1092.32 1266.76 Q1090.51 1270.3 1090.51 1277.43 Q1090.51 1284.54 1092.32 1288.1 Q1094.14 1291.64 1097.76 1291.64 Q1101.39 1291.64 1103.2 1288.1 Q1105.02 1284.54 1105.02 1277.43 Q1105.02 1270.3 1103.2 1266.76 Q1101.39 1263.19 1097.76 1263.19 M1097.76 1259.49 Q1103.57 1259.49 1106.62 1264.1 Q1109.7 1268.68 1109.7 1277.43 Q1109.7 1286.16 1106.62 1290.76 Q1103.57 1295.35 1097.76 1295.35 Q1091.95 1295.35 1088.87 1290.76 Q1085.81 1286.16 1085.81 1277.43 Q1085.81 1268.68 1088.87 1264.1 Q1091.95 1259.49 1097.76 1259.49 Z" fill="#000000" fill-rule="nonzero" fill-opacity="1" /><path clip-path="url(#clip150)" d="M1117.92 1288.8 L1122.8 1288.8 L1122.8 1294.67 L1117.92 1294.67 L1117.92 1288.8 Z" fill="#000000" fill-rule="nonzero" fill-opacity="1" /><path clip-path="url(#clip150)" d="M1142.99 1263.19 Q1139.38 1263.19 1137.55 1266.76 Q1135.74 1270.3 1135.74 1277.43 Q1135.74 1284.54 1137.55 1288.1 Q1139.38 1291.64 1142.99 1291.64 Q1146.62 1291.64 1148.43 1288.1 Q1150.26 1284.54 1150.26 1277.43 Q1150.26 1270.3 1148.43 1266.76 Q1146.62 1263.19 1142.99 1263.19 M1142.99 1259.49 Q1148.8 1259.49 1151.85 1264.1 Q1154.93 1268.68 1154.93 1277.43 Q1154.93 1286.16 1151.85 1290.76 Q1148.8 1295.35 1142.99 1295.35 Q1137.18 1295.35 1134.1 1290.76 Q1131.04 1286.16 1131.04 1277.43 Q1131.04 1268.68 1134.1 1264.1 Q1137.18 1259.49 1142.99 1259.49 Z" fill="#000000" fill-rule="nonzero" fill-opacity="1" /><path clip-path="url(#clip150)" d="M1543.72 1263.19 Q1540.11 1263.19 1538.28 1266.76 Q1536.47 1270.3 1536.47 1277.43 Q1536.47 1284.54 1538.28 1288.1 Q1540.11 1291.64 1543.72 1291.64 Q1547.35 1291.64 1549.16 1288.1 Q1550.99 1284.54 1550.99 1277.43 Q1550.99 1270.3 1549.16 1266.76 Q1547.35 1263.19 1543.72 1263.19 M1543.72 1259.49 Q1549.53 1259.49 1552.58 1264.1 Q1555.66 1268.68 1555.66 1277.43 Q1555.66 1286.16 1552.58 1290.76 Q1549.53 1295.35 1543.72 1295.35 Q1537.91 1295.35 1534.83 1290.76 Q1531.77 1286.16 1531.77 1277.43 Q1531.77 1268.68 1534.83 1264.1 Q1537.91 1259.49 1543.72 1259.49 Z" fill="#000000" fill-rule="nonzero" fill-opacity="1" /><path clip-path="url(#clip150)" d="M1563.88 1288.8 L1568.76 1288.8 L1568.76 1294.67 L1563.88 1294.67 L1563.88 1288.8 Z" fill="#000000" fill-rule="nonzero" fill-opacity="1" /><path clip-path="url(#clip150)" d="M1579 1260.11 L1597.35 1260.11 L1597.35 1264.05 L1583.28 1264.05 L1583.28 1272.52 Q1584.3 1272.17 1585.31 1272.01 Q1586.33 1271.83 1587.35 1271.83 Q1593.14 1271.83 1596.52 1275 Q1599.9 1278.17 1599.9 1283.59 Q1599.9 1289.17 1596.43 1292.27 Q1592.95 1295.35 1586.63 1295.35 Q1584.46 1295.35 1582.19 1294.98 Q1579.94 1294.61 1577.54 1293.86 L1577.54 1289.17 Q1579.62 1290.3 1581.84 1290.86 Q1584.06 1291.41 1586.54 1291.41 Q1590.55 1291.41 1592.88 1289.3 Q1595.22 1287.2 1595.22 1283.59 Q1595.22 1279.98 1592.88 1277.87 Q1590.55 1275.76 1586.54 1275.76 Q1584.67 1275.76 1582.79 1276.18 Q1580.94 1276.6 1579 1277.48 L1579 1260.11 Z" fill="#000000" fill-rule="nonzero" fill-opacity="1" /><path clip-path="url(#clip150)" d="M1978.45 1290.74 L1986.09 1290.74 L1986.09 1264.37 L1977.78 1266.04 L1977.78 1261.78 L1986.05 1260.11 L1990.72 1260.11 L1990.72 1290.74 L1998.36 1290.74 L1998.36 1294.67 L1978.45 1294.67 L1978.45 1290.74 Z" fill="#000000" fill-rule="nonzero" fill-opacity="1" /><path clip-path="url(#clip150)" d="M2007.8 1288.8 L2012.69 1288.8 L2012.69 1294.67 L2007.8 1294.67 L2007.8 1288.8 Z" fill="#000000" fill-rule="nonzero" fill-opacity="1" /><path clip-path="url(#clip150)" d="M2032.87 1263.19 Q2029.26 1263.19 2027.43 1266.76 Q2025.63 1270.3 2025.63 1277.43 Q2025.63 1284.54 2027.43 1288.1 Q2029.26 1291.64 2032.87 1291.64 Q2036.51 1291.64 2038.31 1288.1 Q2040.14 1284.54 2040.14 1277.43 Q2040.14 1270.3 2038.31 1266.76 Q2036.51 1263.19 2032.87 1263.19 M2032.87 1259.49 Q2038.68 1259.49 2041.74 1264.1 Q2044.82 1268.68 2044.82 1277.43 Q2044.82 1286.16 2041.74 1290.76 Q2038.68 1295.35 2032.87 1295.35 Q2027.06 1295.35 2023.99 1290.76 Q2020.93 1286.16 2020.93 1277.43 Q2020.93 1268.68 2023.99 1264.1 Q2027.06 1259.49 2032.87 1259.49 Z" fill="#000000" fill-rule="nonzero" fill-opacity="1" /><polyline clip-path="url(#clip152)" style="stroke:#000000; stroke-linecap:round; stroke-linejoin:round; stroke-width:2; stroke-opacity:0.1; fill:none" points="175.987,1234.58 2064.76,1234.58 "/>
<polyline clip-path="url(#clip152)" style="stroke:#000000; stroke-linecap:round; stroke-linejoin:round; stroke-width:2; stroke-opacity:0.1; fill:none" points="175.987,937.745 2064.76,937.745 "/>
<polyline clip-path="url(#clip152)" style="stroke:#000000; stroke-linecap:round; stroke-linejoin:round; stroke-width:2; stroke-opacity:0.1; fill:none" points="175.987,640.911 2064.76,640.911 "/>
<polyline clip-path="url(#clip152)" style="stroke:#000000; stroke-linecap:round; stroke-linejoin:round; stroke-width:2; stroke-opacity:0.1; fill:none" points="175.987,344.078 2064.76,344.078 "/>
<polyline clip-path="url(#clip152)" style="stroke:#000000; stroke-linecap:round; stroke-linejoin:round; stroke-width:2; stroke-opacity:0.1; fill:none" points="175.987,47.2441 2064.76,47.2441 "/>
<polyline clip-path="url(#clip150)" style="stroke:#000000; stroke-linecap:round; stroke-linejoin:round; stroke-width:4; stroke-opacity:1; fill:none" points="175.987,1234.58 175.987,47.2441 "/>
<polyline clip-path="url(#clip150)" style="stroke:#000000; stroke-linecap:round; stroke-linejoin:round; stroke-width:4; stroke-opacity:1; fill:none" points="175.987,1234.58 194.884,1234.58 "/>
<polyline clip-path="url(#clip150)" style="stroke:#000000; stroke-linecap:round; stroke-linejoin:round; stroke-width:4; stroke-opacity:1; fill:none" points="175.987,937.745 194.884,937.745 "/>
<polyline clip-path="url(#clip150)" style="stroke:#000000; stroke-linecap:round; stroke-linejoin:round; stroke-width:4; stroke-opacity:1; fill:none" points="175.987,640.911 194.884,640.911 "/>
<polyline clip-path="url(#clip150)" style="stroke:#000000; stroke-linecap:round; stroke-linejoin:round; stroke-width:4; stroke-opacity:1; fill:none" points="175.987,344.078 194.884,344.078 "/>
<polyline clip-path="url(#clip150)" style="stroke:#000000; stroke-linecap:round; stroke-linejoin:round; stroke-width:4; stroke-opacity:1; fill:none" points="175.987,47.2441 194.884,47.2441 "/>
<path clip-path="url(#clip150)" d="M52.4321 1235.03 L82.1079 1235.03 L82.1079 1238.97 L52.4321 1238.97 L52.4321 1235.03 Z" fill="#000000" fill-rule="nonzero" fill-opacity="1" /><path clip-path="url(#clip150)" d="M93.0106 1247.92 L100.649 1247.92 L100.649 1221.56 L92.3393 1223.22 L92.3393 1218.97 L100.603 1217.3 L105.279 1217.3 L105.279 1247.92 L112.918 1247.92 L112.918 1251.86 L93.0106 1251.86 L93.0106 1247.92 Z" fill="#000000" fill-rule="nonzero" fill-opacity="1" /><path clip-path="url(#clip150)" d="M132.362 1220.38 Q128.751 1220.38 126.922 1223.94 Q125.117 1227.48 125.117 1234.61 Q125.117 1241.72 126.922 1245.28 Q128.751 1248.83 132.362 1248.83 Q135.996 1248.83 137.802 1245.28 Q139.631 1241.72 139.631 1234.61 Q139.631 1227.48 137.802 1223.94 Q135.996 1220.38 132.362 1220.38 M132.362 1216.67 Q138.172 1216.67 141.228 1221.28 Q144.307 1225.86 144.307 1234.61 Q144.307 1243.34 141.228 1247.95 Q138.172 1252.53 132.362 1252.53 Q126.552 1252.53 123.473 1247.95 Q120.418 1243.34 120.418 1234.61 Q120.418 1225.86 123.473 1221.28 Q126.552 1216.67 132.362 1216.67 Z" fill="#000000" fill-rule="nonzero" fill-opacity="1" /><path clip-path="url(#clip150)" d="M83.5894 938.196 L113.265 938.196 L113.265 942.132 L83.5894 942.132 L83.5894 938.196 Z" fill="#000000" fill-rule="nonzero" fill-opacity="1" /><path clip-path="url(#clip150)" d="M123.404 920.465 L141.76 920.465 L141.76 924.4 L127.686 924.4 L127.686 932.872 Q128.705 932.525 129.723 932.363 Q130.742 932.178 131.76 932.178 Q137.547 932.178 140.927 935.349 Q144.307 938.521 144.307 943.937 Q144.307 949.516 140.834 952.618 Q137.362 955.696 131.043 955.696 Q128.867 955.696 126.598 955.326 Q124.353 954.956 121.946 954.215 L121.946 949.516 Q124.029 950.65 126.251 951.206 Q128.473 951.761 130.95 951.761 Q134.955 951.761 137.293 949.655 Q139.631 947.548 139.631 943.937 Q139.631 940.326 137.293 938.22 Q134.955 936.113 130.95 936.113 Q129.075 936.113 127.2 936.53 Q125.348 936.947 123.404 937.826 L123.404 920.465 Z" fill="#000000" fill-rule="nonzero" fill-opacity="1" /><path clip-path="url(#clip150)" d="M132.362 626.71 Q128.751 626.71 126.922 630.275 Q125.117 633.817 125.117 640.946 Q125.117 648.053 126.922 651.617 Q128.751 655.159 132.362 655.159 Q135.996 655.159 137.802 651.617 Q139.631 648.053 139.631 640.946 Q139.631 633.817 137.802 630.275 Q135.996 626.71 132.362 626.71 M132.362 623.006 Q138.172 623.006 141.228 627.613 Q144.307 632.196 144.307 640.946 Q144.307 649.673 141.228 654.279 Q138.172 658.863 132.362 658.863 Q126.552 658.863 123.473 654.279 Q120.418 649.673 120.418 640.946 Q120.418 632.196 123.473 627.613 Q126.552 623.006 132.362 623.006 Z" fill="#000000" fill-rule="nonzero" fill-opacity="1" /><path clip-path="url(#clip150)" d="M123.404 326.798 L141.76 326.798 L141.76 330.733 L127.686 330.733 L127.686 339.205 Q128.705 338.858 129.723 338.696 Q130.742 338.511 131.76 338.511 Q137.547 338.511 140.927 341.682 Q144.307 344.853 144.307 350.27 Q144.307 355.849 140.834 358.95 Q137.362 362.029 131.043 362.029 Q128.867 362.029 126.598 361.659 Q124.353 361.288 121.946 360.548 L121.946 355.849 Q124.029 356.983 126.251 357.538 Q128.473 358.094 130.95 358.094 Q134.955 358.094 137.293 355.987 Q139.631 353.881 139.631 350.27 Q139.631 346.659 137.293 344.552 Q134.955 342.446 130.95 342.446 Q129.075 342.446 127.2 342.862 Q125.348 343.279 123.404 344.159 L123.404 326.798 Z" fill="#000000" fill-rule="nonzero" fill-opacity="1" /><path clip-path="url(#clip150)" d="M93.0106 60.5889 L100.649 60.5889 L100.649 34.2233 L92.3393 35.89 L92.3393 31.6308 L100.603 29.9641 L105.279 29.9641 L105.279 60.5889 L112.918 60.5889 L112.918 64.5241 L93.0106 64.5241 L93.0106 60.5889 Z" fill="#000000" fill-rule="nonzero" fill-opacity="1" /><path clip-path="url(#clip150)" d="M132.362 33.0428 Q128.751 33.0428 126.922 36.6076 Q125.117 40.1492 125.117 47.2788 Q125.117 54.3853 126.922 57.9501 Q128.751 61.4917 132.362 61.4917 Q135.996 61.4917 137.802 57.9501 Q139.631 54.3853 139.631 47.2788 Q139.631 40.1492 137.802 36.6076 Q135.996 33.0428 132.362 33.0428 M132.362 29.3391 Q138.172 29.3391 141.228 33.9456 Q144.307 38.5289 144.307 47.2788 Q144.307 56.0056 141.228 60.6121 Q138.172 65.1954 132.362 65.1954 Q126.552 65.1954 123.473 60.6121 Q120.418 56.0056 120.418 47.2788 Q120.418 38.5289 123.473 33.9456 Q126.552 29.3391 132.362 29.3391 Z" fill="#000000" fill-rule="nonzero" fill-opacity="1" /><polyline clip-path="url(#clip152)" style="stroke:#009af9; stroke-linecap:round; stroke-linejoin:round; stroke-width:4; stroke-opacity:1; fill:none" points="229.442,700.278 241.043,701.061 348.31,709.418 412.773,715.659 467.275,721.897 526.48,729.971 581.062,738.984 639.58,750.921 707.378,768.98 767.629,790.855 820.464,817.271 878.068,859.198 936.014,927.808 952.031,955.105 968.048,988.143 984.064,1028.94 1000.08,1080.61 1015.32,1144.4 1030.56,1229.83 1038.18,1284.43 1045.8,1350.19 1053.42,1430.91 1061.04,1532.37 1068.96,1669.75 1076.89,1857.2 1080.85,1979.1 1084.81,2128.16 1088.77,2314.59 1092.73,2554.46 1096.69,2874.59 1100.65,3323.35 1104.61,3997.76 1108.58,5125.17 1110.56,6030.18 1112.54,7392.86 1113.53,8370.01 1114.52,9677.84 1115.51,11518.4 1116.5,14300.5 1116.99,16303.5 1117.49,18994.8 1117.98,22802.9 1118.48,28604.9 1118.98,38522.3 1119.47,59339.8 1119.97,130951 1120.46,-591746 1120.96,-89855.4 1121.45,-48349.2 1121.95,-32945 1122.44,-24910.7 1122.94,-19978.3 1123.43,-16642 1123.93,-14235 1124.42,-12416.5 1125.26,-10187.9 1126.09,-8609.06 1126.92,-7432.06 1127.76,-6520.77 1129.42,-5201.73 1131.09,-4293 1134.43,-3122.36 1137.76,-2400.7 1141.1,-1911.28 1144.43,-1557.53 1147.76,-1289.91 1151.1,-1080.37 1154.43,-911.862 1157.77,-773.404 1161.1,-657.616 1164.44,-559.352 1171.11,-401.576 1177.78,-280.46 1185.92,-166.005 1194.06,-76.8441 1202.2,-5.42628 1210.35,53.0653 1226.63,143.156 1242.92,209.303 1272.75,293.811 1302.59,350.645 1357.7,418.05 1413.53,460.49 1476.09,492.224 1532.79,512.664 1597.7,530.104 1657.8,542.496 1717.06,552.269 1774.59,560.064 1833.56,566.75 1898.18,572.911 1992.04,580.233 2011.3,581.545 "/>
<path clip-path="url(#clip150)" d="M1760.49 190.502 L2001.8 190.502 L2001.8 86.8219 L1760.49 86.8219  Z" fill="#ffffff" fill-rule="evenodd" fill-opacity="1"/>
<polyline clip-path="url(#clip150)" style="stroke:#000000; stroke-linecap:round; stroke-linejoin:round; stroke-width:4; stroke-opacity:1; fill:none" points="1760.49,190.502 2001.8,190.502 2001.8,86.8219 1760.49,86.8219 1760.49,190.502 "/>
<polyline clip-path="url(#clip150)" style="stroke:#009af9; stroke-linecap:round; stroke-linejoin:round; stroke-width:4; stroke-opacity:1; fill:none" points="1781.48,138.662 1907.39,138.662 "/>
<path clip-path="url(#clip150)" d="M1942.22 158.349 Q1940.42 162.979 1938.7 164.391 Q1936.99 165.803 1934.12 165.803 L1930.72 165.803 L1930.72 162.238 L1933.22 162.238 Q1934.98 162.238 1935.95 161.405 Q1936.92 160.572 1938.1 157.47 L1938.87 155.525 L1928.38 130.016 L1932.89 130.016 L1941 150.294 L1949.1 130.016 L1953.61 130.016 L1942.22 158.349 Z" fill="#000000" fill-rule="nonzero" fill-opacity="1" /><path clip-path="url(#clip150)" d="M1960.9 152.007 L1968.54 152.007 L1968.54 125.641 L1960.23 127.308 L1960.23 123.049 L1968.5 121.382 L1973.17 121.382 L1973.17 152.007 L1980.81 152.007 L1980.81 155.942 L1960.9 155.942 L1960.9 152.007 Z" fill="#000000" fill-rule="nonzero" fill-opacity="1" /></svg>
