<?xml version="1.0" encoding="utf-8"?>
<svg xmlns="http://www.w3.org/2000/svg" xmlns:xlink="http://www.w3.org/1999/xlink" width="528" height="336" viewBox="0 0 2112 1344">
<defs>
  <clipPath id="clip330">
    <rect x="0" y="0" width="2112" height="1344"/>
  </clipPath>
</defs>
<path clip-path="url(#clip330)" d="M0 1344 L2112 1344 L2112 0 L0 0  Z" fill="#ffffff" fill-rule="evenodd" fill-opacity="1"/>
<defs>
  <clipPath id="clip331">
    <rect x="422" y="0" width="1479" height="1344"/>
  </clipPath>
</defs>
<path clip-path="url(#clip330)" d="M252.164 1173.47 L2064.76 1173.47 L2064.76 120.723 L252.164 120.723  Z" fill="#ffffff" fill-rule="evenodd" fill-opacity="1"/>
<defs>
  <clipPath id="clip332">
    <rect x="252" y="120" width="1814" height="1054"/>
  </clipPath>
</defs>
<polyline clip-path="url(#clip332)" style="stroke:#000000; stroke-linecap:round; stroke-linejoin:round; stroke-width:2; stroke-opacity:0.1; fill:none" points="341.999,1173.47 341.999,120.723 "/>
<polyline clip-path="url(#clip332)" style="stroke:#000000; stroke-linecap:round; stroke-linejoin:round; stroke-width:2; stroke-opacity:0.1; fill:none" points="614.153,1173.47 614.153,120.723 "/>
<polyline clip-path="url(#clip332)" style="stroke:#000000; stroke-linecap:round; stroke-linejoin:round; stroke-width:2; stroke-opacity:0.1; fill:none" points="886.306,1173.47 886.306,120.723 "/>
<polyline clip-path="url(#clip332)" style="stroke:#000000; stroke-linecap:round; stroke-linejoin:round; stroke-width:2; stroke-opacity:0.1; fill:none" points="1158.46,1173.47 1158.46,120.723 "/>
<polyline clip-path="url(#clip332)" style="stroke:#000000; stroke-linecap:round; stroke-linejoin:round; stroke-width:2; stroke-opacity:0.1; fill:none" points="1430.61,1173.47 1430.61,120.723 "/>
<polyline clip-path="url(#clip332)" style="stroke:#000000; stroke-linecap:round; stroke-linejoin:round; stroke-width:2; stroke-opacity:0.1; fill:none" points="1702.77,1173.47 1702.77,120.723 "/>
<polyline clip-path="url(#clip332)" style="stroke:#000000; stroke-linecap:round; stroke-linejoin:round; stroke-width:2; stroke-opacity:0.1; fill:none" points="1974.92,1173.47 1974.92,120.723 "/>
<polyline clip-path="url(#clip330)" style="stroke:#000000; stroke-linecap:round; stroke-linejoin:round; stroke-width:4; stroke-opacity:1; fill:none" points="252.164,1173.47 2064.76,1173.47 "/>
<polyline clip-path="url(#clip330)" style="stroke:#000000; stroke-linecap:round; stroke-linejoin:round; stroke-width:4; stroke-opacity:1; fill:none" points="341.999,1173.47 341.999,1154.57 "/>
<polyline clip-path="url(#clip330)" style="stroke:#000000; stroke-linecap:round; stroke-linejoin:round; stroke-width:4; stroke-opacity:1; fill:none" points="614.153,1173.47 614.153,1154.57 "/>
<polyline clip-path="url(#clip330)" style="stroke:#000000; stroke-linecap:round; stroke-linejoin:round; stroke-width:4; stroke-opacity:1; fill:none" points="886.306,1173.47 886.306,1154.57 "/>
<polyline clip-path="url(#clip330)" style="stroke:#000000; stroke-linecap:round; stroke-linejoin:round; stroke-width:4; stroke-opacity:1; fill:none" points="1158.46,1173.47 1158.46,1154.57 "/>
<polyline clip-path="url(#clip330)" style="stroke:#000000; stroke-linecap:round; stroke-linejoin:round; stroke-width:4; stroke-opacity:1; fill:none" points="1430.61,1173.47 1430.61,1154.57 "/>
<polyline clip-path="url(#clip330)" style="stroke:#000000; stroke-linecap:round; stroke-linejoin:round; stroke-width:4; stroke-opacity:1; fill:none" points="1702.77,1173.47 1702.77,1154.57 "/>
<polyline clip-path="url(#clip330)" style="stroke:#000000; stroke-linecap:round; stroke-linejoin:round; stroke-width:4; stroke-opacity:1; fill:none" points="1974.92,1173.47 1974.92,1154.57 "/>
<path clip-path="url(#clip330)" d="M311.467 1216.74 L341.142 1216.74 L341.142 1220.67 L311.467 1220.67 L311.467 1216.74 Z" fill="#000000" fill-rule="nonzero" fill-opacity="1" /><path clip-path="url(#clip330)" d="M365.401 1214.93 Q368.758 1215.65 370.633 1217.92 Q372.531 1220.19 372.531 1223.52 Q372.531 1228.64 369.013 1231.44 Q365.494 1234.24 359.013 1234.24 Q356.837 1234.24 354.522 1233.8 Q352.23 1233.38 349.777 1232.53 L349.777 1228.01 Q351.721 1229.15 354.036 1229.72 Q356.351 1230.3 358.874 1230.3 Q363.272 1230.3 365.563 1228.57 Q367.878 1226.83 367.878 1223.52 Q367.878 1220.46 365.725 1218.75 Q363.596 1217.02 359.776 1217.02 L355.749 1217.02 L355.749 1213.17 L359.962 1213.17 Q363.411 1213.17 365.239 1211.81 Q367.068 1210.42 367.068 1207.83 Q367.068 1205.16 365.17 1203.75 Q363.295 1202.32 359.776 1202.32 Q357.855 1202.32 355.656 1202.73 Q353.457 1203.15 350.818 1204.03 L350.818 1199.86 Q353.48 1199.12 355.795 1198.75 Q358.133 1198.38 360.193 1198.38 Q365.517 1198.38 368.619 1200.81 Q371.721 1203.22 371.721 1207.34 Q371.721 1210.21 370.077 1212.2 Q368.434 1214.17 365.401 1214.93 Z" fill="#000000" fill-rule="nonzero" fill-opacity="1" /><path clip-path="url(#clip330)" d="M584.095 1216.74 L613.771 1216.74 L613.771 1220.67 L584.095 1220.67 L584.095 1216.74 Z" fill="#000000" fill-rule="nonzero" fill-opacity="1" /><path clip-path="url(#clip330)" d="M627.891 1229.63 L644.21 1229.63 L644.21 1233.57 L622.266 1233.57 L622.266 1229.63 Q624.928 1226.88 629.511 1222.25 Q634.118 1217.59 635.298 1216.25 Q637.544 1213.73 638.423 1211.99 Q639.326 1210.23 639.326 1208.54 Q639.326 1205.79 637.382 1204.05 Q635.46 1202.32 632.358 1202.32 Q630.159 1202.32 627.706 1203.08 Q625.275 1203.84 622.497 1205.4 L622.497 1200.67 Q625.321 1199.54 627.775 1198.96 Q630.229 1198.38 632.266 1198.38 Q637.636 1198.38 640.831 1201.07 Q644.025 1203.75 644.025 1208.24 Q644.025 1210.37 643.215 1212.29 Q642.428 1214.19 640.321 1216.78 Q639.743 1217.46 636.641 1220.67 Q633.539 1223.87 627.891 1229.63 Z" fill="#000000" fill-rule="nonzero" fill-opacity="1" /><path clip-path="url(#clip330)" d="M856.063 1216.74 L885.739 1216.74 L885.739 1220.67 L856.063 1220.67 L856.063 1216.74 Z" fill="#000000" fill-rule="nonzero" fill-opacity="1" /><path clip-path="url(#clip330)" d="M896.642 1229.63 L904.281 1229.63 L904.281 1203.27 L895.971 1204.93 L895.971 1200.67 L904.234 1199.01 L908.91 1199.01 L908.91 1229.63 L916.549 1229.63 L916.549 1233.57 L896.642 1233.57 L896.642 1229.63 Z" fill="#000000" fill-rule="nonzero" fill-opacity="1" /><path clip-path="url(#clip330)" d="M1158.46 1202.09 Q1154.85 1202.09 1153.02 1205.65 Q1151.21 1209.19 1151.21 1216.32 Q1151.21 1223.43 1153.02 1226.99 Q1154.85 1230.53 1158.46 1230.53 Q1162.09 1230.53 1163.9 1226.99 Q1165.73 1223.43 1165.73 1216.32 Q1165.73 1209.19 1163.9 1205.65 Q1162.09 1202.09 1158.46 1202.09 M1158.46 1198.38 Q1164.27 1198.38 1167.33 1202.99 Q1170.4 1207.57 1170.4 1216.32 Q1170.4 1225.05 1167.33 1229.65 Q1164.27 1234.24 1158.46 1234.24 Q1152.65 1234.24 1149.57 1229.65 Q1146.52 1225.05 1146.52 1216.32 Q1146.52 1207.57 1149.57 1202.99 Q1152.65 1198.38 1158.46 1198.38 Z" fill="#000000" fill-rule="nonzero" fill-opacity="1" /><path clip-path="url(#clip330)" d="M1421 1229.63 L1428.63 1229.63 L1428.63 1203.27 L1420.32 1204.93 L1420.32 1200.67 L1428.59 1199.01 L1433.26 1199.01 L1433.26 1229.63 L1440.9 1229.63 L1440.9 1233.57 L1421 1233.57 L1421 1229.63 Z" fill="#000000" fill-rule="nonzero" fill-opacity="1" /><path clip-path="url(#clip330)" d="M1697.42 1229.63 L1713.74 1229.63 L1713.74 1233.57 L1691.8 1233.57 L1691.8 1229.63 Q1694.46 1226.88 1699.04 1222.25 Q1703.65 1217.59 1704.83 1216.25 Q1707.07 1213.73 1707.95 1211.99 Q1708.86 1210.23 1708.86 1208.54 Q1708.86 1205.79 1706.91 1204.05 Q1704.99 1202.32 1701.89 1202.32 Q1699.69 1202.32 1697.24 1203.08 Q1694.8 1203.84 1692.03 1205.4 L1692.03 1200.67 Q1694.85 1199.54 1697.3 1198.96 Q1699.76 1198.38 1701.8 1198.38 Q1707.17 1198.38 1710.36 1201.07 Q1713.55 1203.75 1713.55 1208.24 Q1713.55 1210.37 1712.74 1212.29 Q1711.96 1214.19 1709.85 1216.78 Q1709.27 1217.46 1706.17 1220.67 Q1703.07 1223.87 1697.42 1229.63 Z" fill="#000000" fill-rule="nonzero" fill-opacity="1" /><path clip-path="url(#clip330)" d="M1979.17 1214.93 Q1982.53 1215.65 1984.4 1217.92 Q1986.3 1220.19 1986.3 1223.52 Q1986.3 1228.64 1982.78 1231.44 Q1979.26 1234.24 1972.78 1234.24 Q1970.6 1234.24 1968.29 1233.8 Q1966 1233.38 1963.54 1232.53 L1963.54 1228.01 Q1965.49 1229.15 1967.8 1229.72 Q1970.12 1230.3 1972.64 1230.3 Q1977.04 1230.3 1979.33 1228.57 Q1981.65 1226.83 1981.65 1223.52 Q1981.65 1220.46 1979.49 1218.75 Q1977.36 1217.02 1973.54 1217.02 L1969.52 1217.02 L1969.52 1213.17 L1973.73 1213.17 Q1977.18 1213.17 1979.01 1211.81 Q1980.84 1210.42 1980.84 1207.83 Q1980.84 1205.16 1978.94 1203.75 Q1977.06 1202.32 1973.54 1202.32 Q1971.62 1202.32 1969.42 1202.73 Q1967.22 1203.15 1964.59 1204.03 L1964.59 1199.86 Q1967.25 1199.12 1969.56 1198.75 Q1971.9 1198.38 1973.96 1198.38 Q1979.28 1198.38 1982.39 1200.81 Q1985.49 1203.22 1985.49 1207.34 Q1985.49 1210.21 1983.84 1212.2 Q1982.2 1214.17 1979.17 1214.93 Z" fill="#000000" fill-rule="nonzero" fill-opacity="1" /><path clip-path="url(#clip330)" d="M1175.07 1278.37 L1162.18 1295.71 L1175.74 1314.01 L1168.84 1314.01 L1158.46 1300.01 L1148.08 1314.01 L1141.18 1314.01 L1155.02 1295.36 L1142.35 1278.37 L1149.26 1278.37 L1158.71 1291.07 L1168.17 1278.37 L1175.07 1278.37 Z" fill="#000000" fill-rule="nonzero" fill-opacity="1" /><polyline clip-path="url(#clip332)" style="stroke:#000000; stroke-linecap:round; stroke-linejoin:round; stroke-width:2; stroke-opacity:0.1; fill:none" points="252.164,1143.68 2064.76,1143.68 "/>
<polyline clip-path="url(#clip332)" style="stroke:#000000; stroke-linecap:round; stroke-linejoin:round; stroke-width:2; stroke-opacity:0.1; fill:none" points="252.164,895.391 2064.76,895.391 "/>
<polyline clip-path="url(#clip332)" style="stroke:#000000; stroke-linecap:round; stroke-linejoin:round; stroke-width:2; stroke-opacity:0.1; fill:none" points="252.164,647.1 2064.76,647.1 "/>
<polyline clip-path="url(#clip332)" style="stroke:#000000; stroke-linecap:round; stroke-linejoin:round; stroke-width:2; stroke-opacity:0.1; fill:none" points="252.164,398.808 2064.76,398.808 "/>
<polyline clip-path="url(#clip332)" style="stroke:#000000; stroke-linecap:round; stroke-linejoin:round; stroke-width:2; stroke-opacity:0.1; fill:none" points="252.164,150.517 2064.76,150.517 "/>
<polyline clip-path="url(#clip330)" style="stroke:#000000; stroke-linecap:round; stroke-linejoin:round; stroke-width:4; stroke-opacity:1; fill:none" points="252.164,1173.47 252.164,120.723 "/>
<polyline clip-path="url(#clip330)" style="stroke:#000000; stroke-linecap:round; stroke-linejoin:round; stroke-width:4; stroke-opacity:1; fill:none" points="252.164,1143.68 271.062,1143.68 "/>
<polyline clip-path="url(#clip330)" style="stroke:#000000; stroke-linecap:round; stroke-linejoin:round; stroke-width:4; stroke-opacity:1; fill:none" points="252.164,895.391 271.062,895.391 "/>
<polyline clip-path="url(#clip330)" style="stroke:#000000; stroke-linecap:round; stroke-linejoin:round; stroke-width:4; stroke-opacity:1; fill:none" points="252.164,647.1 271.062,647.1 "/>
<polyline clip-path="url(#clip330)" style="stroke:#000000; stroke-linecap:round; stroke-linejoin:round; stroke-width:4; stroke-opacity:1; fill:none" points="252.164,398.808 271.062,398.808 "/>
<polyline clip-path="url(#clip330)" style="stroke:#000000; stroke-linecap:round; stroke-linejoin:round; stroke-width:4; stroke-opacity:1; fill:none" points="252.164,150.517 271.062,150.517 "/>
<path clip-path="url(#clip330)" d="M113.54 1144.13 L143.216 1144.13 L143.216 1148.07 L113.54 1148.07 L113.54 1144.13 Z" fill="#000000" fill-rule="nonzero" fill-opacity="1" /><path clip-path="url(#clip330)" d="M154.119 1157.03 L161.757 1157.03 L161.757 1130.66 L153.447 1132.33 L153.447 1128.07 L161.711 1126.4 L166.387 1126.4 L166.387 1157.03 L174.026 1157.03 L174.026 1160.96 L154.119 1160.96 L154.119 1157.03 Z" fill="#000000" fill-rule="nonzero" fill-opacity="1" /><path clip-path="url(#clip330)" d="M183.47 1155.08 L188.355 1155.08 L188.355 1160.96 L183.47 1160.96 L183.47 1155.08 Z" fill="#000000" fill-rule="nonzero" fill-opacity="1" /><path clip-path="url(#clip330)" d="M208.54 1129.48 Q204.929 1129.48 203.1 1133.05 Q201.294 1136.59 201.294 1143.72 Q201.294 1150.82 203.1 1154.39 Q204.929 1157.93 208.54 1157.93 Q212.174 1157.93 213.979 1154.39 Q215.808 1150.82 215.808 1143.72 Q215.808 1136.59 213.979 1133.05 Q212.174 1129.48 208.54 1129.48 M208.54 1125.78 Q214.35 1125.78 217.405 1130.38 Q220.484 1134.97 220.484 1143.72 Q220.484 1152.44 217.405 1157.05 Q214.35 1161.63 208.54 1161.63 Q202.729 1161.63 199.651 1157.05 Q196.595 1152.44 196.595 1143.72 Q196.595 1134.97 199.651 1130.38 Q202.729 1125.78 208.54 1125.78 Z" fill="#000000" fill-rule="nonzero" fill-opacity="1" /><path clip-path="url(#clip330)" d="M114.536 895.842 L144.211 895.842 L144.211 899.777 L114.536 899.777 L114.536 895.842 Z" fill="#000000" fill-rule="nonzero" fill-opacity="1" /><path clip-path="url(#clip330)" d="M164.304 881.19 Q160.693 881.19 158.864 884.754 Q157.058 888.296 157.058 895.426 Q157.058 902.532 158.864 906.097 Q160.693 909.639 164.304 909.639 Q167.938 909.639 169.744 906.097 Q171.572 902.532 171.572 895.426 Q171.572 888.296 169.744 884.754 Q167.938 881.19 164.304 881.19 M164.304 877.486 Q170.114 877.486 173.169 882.092 Q176.248 886.676 176.248 895.426 Q176.248 904.152 173.169 908.759 Q170.114 913.342 164.304 913.342 Q158.494 913.342 155.415 908.759 Q152.359 904.152 152.359 895.426 Q152.359 886.676 155.415 882.092 Q158.494 877.486 164.304 877.486 Z" fill="#000000" fill-rule="nonzero" fill-opacity="1" /><path clip-path="url(#clip330)" d="M184.466 906.791 L189.35 906.791 L189.35 912.671 L184.466 912.671 L184.466 906.791 Z" fill="#000000" fill-rule="nonzero" fill-opacity="1" /><path clip-path="url(#clip330)" d="M199.581 878.111 L217.938 878.111 L217.938 882.046 L203.864 882.046 L203.864 890.518 Q204.882 890.171 205.901 890.009 Q206.919 889.824 207.938 889.824 Q213.725 889.824 217.104 892.995 Q220.484 896.166 220.484 901.583 Q220.484 907.162 217.012 910.264 Q213.54 913.342 207.22 913.342 Q205.044 913.342 202.776 912.972 Q200.53 912.601 198.123 911.861 L198.123 907.162 Q200.206 908.296 202.429 908.851 Q204.651 909.407 207.128 909.407 Q211.132 909.407 213.47 907.301 Q215.808 905.194 215.808 901.583 Q215.808 897.972 213.47 895.865 Q211.132 893.759 207.128 893.759 Q205.253 893.759 203.378 894.176 Q201.526 894.592 199.581 895.472 L199.581 878.111 Z" fill="#000000" fill-rule="nonzero" fill-opacity="1" /><path clip-path="url(#clip330)" d="M163.308 632.898 Q159.697 632.898 157.869 636.463 Q156.063 640.005 156.063 647.134 Q156.063 654.241 157.869 657.805 Q159.697 661.347 163.308 661.347 Q166.943 661.347 168.748 657.805 Q170.577 654.241 170.577 647.134 Q170.577 640.005 168.748 636.463 Q166.943 632.898 163.308 632.898 M163.308 629.195 Q169.119 629.195 172.174 633.801 Q175.253 638.384 175.253 647.134 Q175.253 655.861 172.174 660.467 Q169.119 665.051 163.308 665.051 Q157.498 665.051 154.42 660.467 Q151.364 655.861 151.364 647.134 Q151.364 638.384 154.42 633.801 Q157.498 629.195 163.308 629.195 Z" fill="#000000" fill-rule="nonzero" fill-opacity="1" /><path clip-path="url(#clip330)" d="M183.47 658.5 L188.355 658.5 L188.355 664.38 L183.47 664.38 L183.47 658.5 Z" fill="#000000" fill-rule="nonzero" fill-opacity="1" /><path clip-path="url(#clip330)" d="M208.54 632.898 Q204.929 632.898 203.1 636.463 Q201.294 640.005 201.294 647.134 Q201.294 654.241 203.1 657.805 Q204.929 661.347 208.54 661.347 Q212.174 661.347 213.979 657.805 Q215.808 654.241 215.808 647.134 Q215.808 640.005 213.979 636.463 Q212.174 632.898 208.54 632.898 M208.54 629.195 Q214.35 629.195 217.405 633.801 Q220.484 638.384 220.484 647.134 Q220.484 655.861 217.405 660.467 Q214.35 665.051 208.54 665.051 Q202.729 665.051 199.651 660.467 Q196.595 655.861 196.595 647.134 Q196.595 638.384 199.651 633.801 Q202.729 629.195 208.54 629.195 Z" fill="#000000" fill-rule="nonzero" fill-opacity="1" /><path clip-path="url(#clip330)" d="M164.304 384.607 Q160.693 384.607 158.864 388.172 Q157.058 391.713 157.058 398.843 Q157.058 405.949 158.864 409.514 Q160.693 413.056 164.304 413.056 Q167.938 413.056 169.744 409.514 Q171.572 405.949 171.572 398.843 Q171.572 391.713 169.744 388.172 Q167.938 384.607 164.304 384.607 M164.304 380.903 Q170.114 380.903 173.169 385.51 Q176.248 390.093 176.248 398.843 Q176.248 407.57 173.169 412.176 Q170.114 416.759 164.304 416.759 Q158.494 416.759 155.415 412.176 Q152.359 407.57 152.359 398.843 Q152.359 390.093 155.415 385.51 Q158.494 380.903 164.304 380.903 Z" fill="#000000" fill-rule="nonzero" fill-opacity="1" /><path clip-path="url(#clip330)" d="M184.466 410.209 L189.35 410.209 L189.35 416.088 L184.466 416.088 L184.466 410.209 Z" fill="#000000" fill-rule="nonzero" fill-opacity="1" /><path clip-path="url(#clip330)" d="M199.581 381.528 L217.938 381.528 L217.938 385.463 L203.864 385.463 L203.864 393.935 Q204.882 393.588 205.901 393.426 Q206.919 393.241 207.938 393.241 Q213.725 393.241 217.104 396.412 Q220.484 399.584 220.484 405 Q220.484 410.579 217.012 413.681 Q213.54 416.759 207.22 416.759 Q205.044 416.759 202.776 416.389 Q200.53 416.019 198.123 415.278 L198.123 410.579 Q200.206 411.713 202.429 412.269 Q204.651 412.824 207.128 412.824 Q211.132 412.824 213.47 410.718 Q215.808 408.611 215.808 405 Q215.808 401.389 213.47 399.283 Q211.132 397.176 207.128 397.176 Q205.253 397.176 203.378 397.593 Q201.526 398.009 199.581 398.889 L199.581 381.528 Z" fill="#000000" fill-rule="nonzero" fill-opacity="1" /><path clip-path="url(#clip330)" d="M154.119 163.862 L161.757 163.862 L161.757 137.496 L153.447 139.163 L153.447 134.903 L161.711 133.237 L166.387 133.237 L166.387 163.862 L174.026 163.862 L174.026 167.797 L154.119 167.797 L154.119 163.862 Z" fill="#000000" fill-rule="nonzero" fill-opacity="1" /><path clip-path="url(#clip330)" d="M183.47 161.917 L188.355 161.917 L188.355 167.797 L183.47 167.797 L183.47 161.917 Z" fill="#000000" fill-rule="nonzero" fill-opacity="1" /><path clip-path="url(#clip330)" d="M208.54 136.315 Q204.929 136.315 203.1 139.88 Q201.294 143.422 201.294 150.551 Q201.294 157.658 203.1 161.223 Q204.929 164.764 208.54 164.764 Q212.174 164.764 213.979 161.223 Q215.808 157.658 215.808 150.551 Q215.808 143.422 213.979 139.88 Q212.174 136.315 208.54 136.315 M208.54 132.612 Q214.35 132.612 217.405 137.218 Q220.484 141.801 220.484 150.551 Q220.484 159.278 217.405 163.885 Q214.35 168.468 208.54 168.468 Q202.729 168.468 199.651 163.885 Q196.595 159.278 196.595 150.551 Q196.595 141.801 199.651 137.218 Q202.729 132.612 208.54 132.612 Z" fill="#000000" fill-rule="nonzero" fill-opacity="1" /><path clip-path="url(#clip330)" d="M18.079 827.485 L22.9487 827.485 L22.9487 833.087 Q22.9487 836.238 24.2219 837.479 Q25.495 838.689 28.8052 838.689 L31.9562 838.689 L31.9562 829.045 L36.5077 829.045 L36.5077 838.689 L67.6042 838.689 L67.6042 844.577 L36.5077 844.577 L36.5077 850.179 L31.9562 850.179 L31.9562 844.577 L29.4736 844.577 Q23.5216 844.577 20.8162 841.808 Q18.079 839.039 18.079 833.023 L18.079 827.485 Z" fill="#000000" fill-rule="nonzero" fill-opacity="1" /><path clip-path="url(#clip330)" d="M18.1426 808.515 Q25.4632 812.78 32.6246 814.849 Q39.786 816.918 47.1384 816.918 Q54.4908 816.918 61.7159 814.849 Q68.9091 812.748 76.1979 808.515 L76.1979 813.608 Q68.7182 818.382 61.4931 820.769 Q54.268 823.125 47.1384 823.125 Q40.0406 823.125 32.8474 820.769 Q25.6542 818.414 18.1426 813.608 L18.1426 808.515 Z" fill="#000000" fill-rule="nonzero" fill-opacity="1" /><path clip-path="url(#clip330)" d="M31.9562 767.52 L49.3028 780.411 L67.6042 766.852 L67.6042 773.759 L53.5996 784.135 L67.6042 794.511 L67.6042 801.418 L48.9526 787.572 L31.9562 800.24 L31.9562 793.333 L44.6558 783.88 L31.9562 774.427 L31.9562 767.52 Z" fill="#000000" fill-rule="nonzero" fill-opacity="1" /><path clip-path="url(#clip330)" d="M18.1426 759.499 L18.1426 754.407 Q25.6542 749.633 32.8474 747.277 Q40.0406 744.89 47.1384 744.89 Q54.268 744.89 61.4931 747.277 Q68.7182 749.633 76.1979 754.407 L76.1979 759.499 Q68.9091 755.266 61.7159 753.197 Q54.4908 751.097 47.1384 751.097 Q39.786 751.097 32.6246 753.197 Q25.4632 755.266 18.1426 759.499 Z" fill="#000000" fill-rule="nonzero" fill-opacity="1" /><path clip-path="url(#clip330)" d="M38.0036 711.661 L38.0036 670.857 L43.3508 670.857 L43.3508 711.661 L38.0036 711.661 M50.9897 711.661 L50.9897 670.857 L56.4005 670.857 L56.4005 711.661 L50.9897 711.661 Z" fill="#000000" fill-rule="nonzero" fill-opacity="1" /><path clip-path="url(#clip330)" d="M33.0065 614.361 L38.5447 614.361 Q37.2716 616.844 36.635 619.517 Q35.9984 622.191 35.9984 625.056 Q35.9984 629.416 37.3352 631.612 Q38.672 633.777 41.3456 633.777 Q43.3826 633.777 44.5603 632.217 Q45.7061 630.657 46.7565 625.947 L47.2021 623.942 Q48.5389 617.703 50.9897 615.093 Q53.4086 612.452 57.7691 612.452 Q62.7344 612.452 65.6308 616.398 Q68.5272 620.313 68.5272 627.188 Q68.5272 630.053 67.9543 633.172 Q67.4132 636.259 66.2992 639.697 L60.2518 639.697 Q61.9387 636.45 62.798 633.299 Q63.6256 630.148 63.6256 627.061 Q63.6256 622.923 62.2251 620.695 Q60.7929 618.467 58.2147 618.467 Q55.8276 618.467 54.5545 620.09 Q53.2813 621.682 52.1037 627.124 L51.6262 629.162 Q50.4804 634.604 48.1251 637.023 Q45.738 639.442 41.6002 639.442 Q36.5713 639.442 33.8341 635.877 Q31.0968 632.313 31.0968 625.756 Q31.0968 622.509 31.5743 619.645 Q32.0517 616.78 33.0065 614.361 Z" fill="#000000" fill-rule="nonzero" fill-opacity="1" /><path clip-path="url(#clip330)" d="M48.3161 572.634 L51.1806 572.634 L51.1806 599.561 Q57.2281 599.179 60.4109 595.933 Q63.5619 592.654 63.5619 586.83 Q63.5619 583.456 62.7344 580.305 Q61.9069 577.122 60.2518 574.003 L65.7899 574.003 Q67.1267 577.154 67.827 580.464 Q68.5272 583.774 68.5272 587.18 Q68.5272 595.71 63.5619 600.707 Q58.5967 605.672 50.1303 605.672 Q41.3774 605.672 36.2531 600.961 Q31.0968 596.219 31.0968 588.198 Q31.0968 581.005 35.7438 576.835 Q40.3589 572.634 48.3161 572.634 M46.5973 578.49 Q41.7912 578.554 38.9266 581.196 Q36.0621 583.806 36.0621 588.135 Q36.0621 593.036 38.8312 595.996 Q41.6002 598.924 46.6292 599.37 L46.5973 578.49 Z" fill="#000000" fill-rule="nonzero" fill-opacity="1" /><path clip-path="url(#clip330)" d="M46.0881 533.389 L67.6042 533.389 L67.6042 539.246 L46.279 539.246 Q41.2183 539.246 38.7038 541.219 Q36.1894 543.193 36.1894 547.139 Q36.1894 551.882 39.2131 554.619 Q42.2368 557.356 47.4567 557.356 L67.6042 557.356 L67.6042 563.245 L31.9562 563.245 L31.9562 557.356 L37.4944 557.356 Q34.2797 555.256 32.6883 552.423 Q31.0968 549.558 31.0968 545.834 Q31.0968 539.692 34.9163 536.54 Q38.7038 533.389 46.0881 533.389 Z" fill="#000000" fill-rule="nonzero" fill-opacity="1" /><path clip-path="url(#clip330)" d="M18.1426 507.64 Q25.4632 511.905 32.6246 513.974 Q39.786 516.043 47.1384 516.043 Q54.4908 516.043 61.7159 513.974 Q68.9091 511.873 76.1979 507.64 L76.1979 512.733 Q68.7182 517.507 61.4931 519.894 Q54.268 522.249 47.1384 522.249 Q40.0406 522.249 32.8474 519.894 Q25.6542 517.539 18.1426 512.733 L18.1426 507.64 Z" fill="#000000" fill-rule="nonzero" fill-opacity="1" /><path clip-path="url(#clip330)" d="M31.9562 466.645 L49.3028 479.536 L67.6042 465.977 L67.6042 472.883 L53.5996 483.26 L67.6042 493.636 L67.6042 500.542 L48.9526 486.697 L31.9562 499.365 L31.9562 492.458 L44.6558 483.005 L31.9562 473.552 L31.9562 466.645 Z" fill="#000000" fill-rule="nonzero" fill-opacity="1" /><path clip-path="url(#clip330)" d="M18.1426 458.624 L18.1426 453.532 Q25.6542 448.757 32.8474 446.402 Q40.0406 444.015 47.1384 444.015 Q54.268 444.015 61.4931 446.402 Q68.7182 448.757 76.1979 453.532 L76.1979 458.624 Q68.9091 454.391 61.7159 452.322 Q54.4908 450.222 47.1384 450.222 Q39.786 450.222 32.6246 452.322 Q25.4632 454.391 18.1426 458.624 Z" fill="#000000" fill-rule="nonzero" fill-opacity="1" /><path clip-path="url(#clip330)" d="M870.258 63.9476 L870.258 47.7034 L856.89 47.7034 L856.89 40.9789 L878.36 40.9789 L878.36 66.9452 Q873.621 70.3075 867.909 72.0494 Q862.197 73.7508 855.716 73.7508 Q841.537 73.7508 833.517 65.4869 Q825.536 57.1826 825.536 42.3968 Q825.536 27.5705 833.517 19.3066 Q841.537 11.0023 855.716 11.0023 Q861.63 11.0023 866.937 12.4606 Q872.284 13.9189 876.78 16.7545 L876.78 25.464 Q872.243 21.6156 867.139 19.6712 Q862.035 17.7268 856.404 17.7268 Q845.305 17.7268 839.715 23.9246 Q834.165 30.1225 834.165 42.3968 Q834.165 54.6305 839.715 60.8284 Q845.305 67.0263 856.404 67.0263 Q860.739 67.0263 864.142 66.2971 Q867.544 65.5274 870.258 63.9476 Z" fill="#000000" fill-rule="nonzero" fill-opacity="1" /><path clip-path="url(#clip330)" d="M919.274 34.1734 Q918.019 33.4443 916.52 33.1202 Q915.061 32.7556 913.279 32.7556 Q906.96 32.7556 903.557 36.8875 Q900.195 40.9789 900.195 48.6757 L900.195 72.576 L892.7 72.576 L892.7 27.2059 L900.195 27.2059 L900.195 34.2544 Q902.544 30.1225 906.311 28.1376 Q910.079 26.1121 915.466 26.1121 Q916.236 26.1121 917.168 26.2337 Q918.1 26.3147 919.234 26.5172 L919.274 34.1734 Z" fill="#000000" fill-rule="nonzero" fill-opacity="1" /><path clip-path="url(#clip330)" d="M947.712 49.7694 Q938.678 49.7694 935.194 51.8354 Q931.711 53.9013 931.711 58.8839 Q931.711 62.8538 934.303 65.2034 Q936.936 67.5124 941.433 67.5124 Q947.631 67.5124 951.357 63.1374 Q955.125 58.7219 955.125 51.4303 L955.125 49.7694 L947.712 49.7694 M962.578 46.6907 L962.578 72.576 L955.125 72.576 L955.125 65.6895 Q952.573 69.8214 948.765 71.8063 Q944.957 73.7508 939.448 73.7508 Q932.48 73.7508 928.348 69.8619 Q924.257 65.9325 924.257 59.3701 Q924.257 51.7138 929.361 47.825 Q934.506 43.9361 944.673 43.9361 L955.125 43.9361 L955.125 43.2069 Q955.125 38.0623 951.722 35.2672 Q948.36 32.4315 942.243 32.4315 Q938.354 32.4315 934.668 33.3632 Q930.981 34.295 927.579 36.1584 L927.579 29.2718 Q931.67 27.692 935.518 26.9223 Q939.367 26.1121 943.013 26.1121 Q952.856 26.1121 957.717 31.2163 Q962.578 36.3204 962.578 46.6907 M948.967 6.22219 L957.029 6.22219 L943.823 21.4536 L937.625 21.4536 L948.967 6.22219 Z" fill="#000000" fill-rule="nonzero" fill-opacity="1" /><path clip-path="url(#clip330)" d="M1000.9 9.54393 L1000.9 15.7418 L993.77 15.7418 Q989.76 15.7418 988.18 17.3622 Q986.641 18.9825 986.641 23.1955 L986.641 27.2059 L998.915 27.2059 L998.915 32.9987 L986.641 32.9987 L986.641 72.576 L979.147 72.576 L979.147 32.9987 L972.017 32.9987 L972.017 27.2059 L979.147 27.2059 L979.147 24.0462 Q979.147 16.471 982.671 13.0277 Q986.195 9.54393 993.851 9.54393 L1000.9 9.54393 Z" fill="#000000" fill-rule="nonzero" fill-opacity="1" /><path clip-path="url(#clip330)" d="M1007.14 27.2059 L1014.59 27.2059 L1014.59 72.576 L1007.14 72.576 L1007.14 27.2059 M1007.14 9.54393 L1014.59 9.54393 L1014.59 18.9825 L1007.14 18.9825 L1007.14 9.54393 Z" fill="#000000" fill-rule="nonzero" fill-opacity="1" /><path clip-path="url(#clip330)" d="M1062.84 28.9478 L1062.84 35.9153 Q1059.68 34.1734 1056.48 33.3227 Q1053.32 32.4315 1050.08 32.4315 Q1042.83 32.4315 1038.82 37.0496 Q1034.81 41.6271 1034.81 49.9314 Q1034.81 58.2358 1038.82 62.8538 Q1042.83 67.4314 1050.08 67.4314 Q1053.32 67.4314 1056.48 66.5807 Q1059.68 65.6895 1062.84 63.9476 L1062.84 70.8341 Q1059.72 72.2924 1056.36 73.0216 Q1053.04 73.7508 1049.27 73.7508 Q1039.02 73.7508 1032.98 67.3098 Q1026.95 60.8689 1026.95 49.9314 Q1026.95 38.832 1033.02 32.472 Q1039.14 26.1121 1049.75 26.1121 Q1053.2 26.1121 1056.48 26.8413 Q1059.76 27.5299 1062.84 28.9478 Z" fill="#000000" fill-rule="nonzero" fill-opacity="1" /><path clip-path="url(#clip330)" d="M1096.42 49.7694 Q1087.39 49.7694 1083.9 51.8354 Q1080.42 53.9013 1080.42 58.8839 Q1080.42 62.8538 1083.01 65.2034 Q1085.64 67.5124 1090.14 67.5124 Q1096.34 67.5124 1100.07 63.1374 Q1103.83 58.7219 1103.83 51.4303 L1103.83 49.7694 L1096.42 49.7694 M1111.29 46.6907 L1111.29 72.576 L1103.83 72.576 L1103.83 65.6895 Q1101.28 69.8214 1097.47 71.8063 Q1093.67 73.7508 1088.16 73.7508 Q1081.19 73.7508 1077.06 69.8619 Q1072.97 65.9325 1072.97 59.3701 Q1072.97 51.7138 1078.07 47.825 Q1083.21 43.9361 1093.38 43.9361 L1103.83 43.9361 L1103.83 43.2069 Q1103.83 38.0623 1100.43 35.2672 Q1097.07 32.4315 1090.95 32.4315 Q1087.06 32.4315 1083.38 33.3632 Q1079.69 34.295 1076.29 36.1584 L1076.29 29.2718 Q1080.38 27.692 1084.23 26.9223 Q1088.08 26.1121 1091.72 26.1121 Q1101.57 26.1121 1106.43 31.2163 Q1111.29 36.3204 1111.29 46.6907 Z" fill="#000000" fill-rule="nonzero" fill-opacity="1" /><path clip-path="url(#clip330)" d="M1182.87 34.0924 L1182.87 9.54393 L1190.32 9.54393 L1190.32 72.576 L1182.87 72.576 L1182.87 65.7705 Q1180.52 69.8214 1176.91 71.8063 Q1173.35 73.7508 1168.32 73.7508 Q1160.1 73.7508 1154.92 67.1883 Q1149.77 60.6258 1149.77 49.9314 Q1149.77 39.2371 1154.92 32.6746 Q1160.1 26.1121 1168.32 26.1121 Q1173.35 26.1121 1176.91 28.0971 Q1180.52 30.0415 1182.87 34.0924 M1157.47 49.9314 Q1157.47 58.1548 1160.83 62.8538 Q1164.23 67.5124 1170.15 67.5124 Q1176.06 67.5124 1179.46 62.8538 Q1182.87 58.1548 1182.87 49.9314 Q1182.87 41.7081 1179.46 37.0496 Q1176.06 32.3505 1170.15 32.3505 Q1164.23 32.3505 1160.83 37.0496 Q1157.47 41.7081 1157.47 49.9314 Z" fill="#000000" fill-rule="nonzero" fill-opacity="1" /><path clip-path="url(#clip330)" d="M1244.48 48.0275 L1244.48 51.6733 L1210.21 51.6733 Q1210.7 59.3701 1214.83 63.421 Q1219 67.4314 1226.41 67.4314 Q1230.71 67.4314 1234.72 66.3781 Q1238.77 65.3249 1242.74 63.2184 L1242.74 70.267 Q1238.73 71.9684 1234.52 72.8596 Q1230.3 73.7508 1225.97 73.7508 Q1215.11 73.7508 1208.75 67.4314 Q1202.43 61.1119 1202.43 50.3365 Q1202.43 39.1965 1208.43 32.6746 Q1214.46 26.1121 1224.67 26.1121 Q1233.83 26.1121 1239.13 32.0264 Q1244.48 37.9003 1244.48 48.0275 M1237.03 45.84 Q1236.95 39.7232 1233.58 36.0774 Q1230.26 32.4315 1224.75 32.4315 Q1218.51 32.4315 1214.75 35.9558 Q1211.02 39.4801 1210.45 45.8805 L1237.03 45.84 Z" fill="#000000" fill-rule="nonzero" fill-opacity="1" /><path clip-path="url(#clip330)" d="M1256.71 9.54393 L1264.17 9.54393 L1264.17 72.576 L1256.71 72.576 L1256.71 9.54393 Z" fill="#000000" fill-rule="nonzero" fill-opacity="1" /><path clip-path="url(#clip330)" d="M1335.06 28.5427 L1335.06 35.5912 Q1331.9 33.9709 1328.5 33.1607 Q1325.09 32.3505 1321.45 32.3505 Q1315.9 32.3505 1313.1 34.0519 Q1310.35 35.7533 1310.35 39.156 Q1310.35 41.7486 1312.33 43.2475 Q1314.32 44.7058 1320.31 46.0426 L1322.87 46.6097 Q1330.81 48.3111 1334.13 51.4303 Q1337.49 54.509 1337.49 60.0587 Q1337.49 66.3781 1332.47 70.0644 Q1327.48 73.7508 1318.73 73.7508 Q1315.09 73.7508 1311.12 73.0216 Q1307.19 72.3329 1302.81 70.9151 L1302.81 63.2184 Q1306.95 65.3654 1310.96 66.4591 Q1314.97 67.5124 1318.9 67.5124 Q1324.16 67.5124 1327 65.73 Q1329.83 63.9071 1329.83 60.6258 Q1329.83 57.5877 1327.77 55.9673 Q1325.74 54.3469 1318.82 52.8481 L1316.22 52.2405 Q1309.3 50.7821 1306.22 47.7845 Q1303.14 44.7463 1303.14 39.4801 Q1303.14 33.0797 1307.68 29.5959 Q1312.21 26.1121 1320.56 26.1121 Q1324.69 26.1121 1328.33 26.7198 Q1331.98 27.3274 1335.06 28.5427 Z" fill="#000000" fill-rule="nonzero" fill-opacity="1" /><path clip-path="url(#clip330)" d="M1388.17 48.0275 L1388.17 51.6733 L1353.9 51.6733 Q1354.38 59.3701 1358.51 63.421 Q1362.69 67.4314 1370.1 67.4314 Q1374.39 67.4314 1378.4 66.3781 Q1382.45 65.3249 1386.42 63.2184 L1386.42 70.267 Q1382.41 71.9684 1378.2 72.8596 Q1373.99 73.7508 1369.65 73.7508 Q1358.8 73.7508 1352.44 67.4314 Q1346.12 61.1119 1346.12 50.3365 Q1346.12 39.1965 1352.11 32.6746 Q1358.15 26.1121 1368.36 26.1121 Q1377.51 26.1121 1382.82 32.0264 Q1388.17 37.9003 1388.17 48.0275 M1380.71 45.84 Q1380.63 39.7232 1377.27 36.0774 Q1373.95 32.4315 1368.44 32.4315 Q1362.2 32.4315 1358.43 35.9558 Q1354.71 39.4801 1354.14 45.8805 L1380.71 45.84 Z" fill="#000000" fill-rule="nonzero" fill-opacity="1" /><path clip-path="url(#clip330)" d="M1438.11 45.1919 L1438.11 72.576 L1430.66 72.576 L1430.66 45.4349 Q1430.66 38.994 1428.15 35.7938 Q1425.64 32.5936 1420.61 32.5936 Q1414.58 32.5936 1411.09 36.4419 Q1407.61 40.2903 1407.61 46.9338 L1407.61 72.576 L1400.12 72.576 L1400.12 27.2059 L1407.61 27.2059 L1407.61 34.2544 Q1410.28 30.163 1413.89 28.1376 Q1417.54 26.1121 1422.28 26.1121 Q1430.09 26.1121 1434.1 30.9732 Q1438.11 35.7938 1438.11 45.1919 Z" fill="#000000" fill-rule="nonzero" fill-opacity="1" /><path clip-path="url(#clip330)" d="M1470.56 32.4315 Q1464.57 32.4315 1461.08 37.1306 Q1457.6 41.7891 1457.6 49.9314 Q1457.6 58.0738 1461.04 62.7728 Q1464.53 67.4314 1470.56 67.4314 Q1476.52 67.4314 1480 62.7323 Q1483.48 58.0333 1483.48 49.9314 Q1483.48 41.8701 1480 37.1711 Q1476.52 32.4315 1470.56 32.4315 M1470.56 26.1121 Q1480.28 26.1121 1485.83 32.4315 Q1491.38 38.7509 1491.38 49.9314 Q1491.38 61.0714 1485.83 67.4314 Q1480.28 73.7508 1470.56 73.7508 Q1460.8 73.7508 1455.25 67.4314 Q1449.74 61.0714 1449.74 49.9314 Q1449.74 38.7509 1455.25 32.4315 Q1460.8 26.1121 1470.56 26.1121 Z" fill="#000000" fill-rule="nonzero" fill-opacity="1" /><polyline clip-path="url(#clip332)" style="stroke:#008000; stroke-linecap:round; stroke-linejoin:round; stroke-width:12; stroke-opacity:1; fill:none" stroke-dasharray="48, 30" points="303.464,647.1 309.03,657.256 314.597,667.408 340.332,714.165 366.067,760.323 391.802,805.47 417.537,849.201 433.003,874.638 448.469,899.34 463.935,923.227 479.4,946.223 492.476,964.916 505.552,982.874 518.629,1000.06 531.705,1016.43 545.909,1033.24 560.113,1049 574.317,1063.67 588.522,1077.21 601.617,1088.65 614.712,1099.06 627.807,1108.44 640.902,1116.74 654.942,1124.44 668.981,1130.86 683.02,1136 697.06,1139.83 713.325,1142.64 729.591,1143.68 745.857,1142.94 762.123,1140.43 776.579,1136.72 791.034,1131.63 805.489,1125.18 819.944,1117.38 832.62,1109.44 845.296,1100.5 857.972,1090.58 870.648,1079.7 884.468,1066.76 898.289,1052.75 912.109,1037.68 925.929,1021.61 939.831,1004.48 953.734,986.405 967.636,967.448 981.538,947.656 996.909,924.863 1012.28,901.184 1027.65,876.695 1043.02,851.474 1072.27,801.747 1101.52,750.236 1162.35,640.007 1213.55,547.265 1244.81,492.178 1276.06,439.133 1290.38,415.71 1304.7,392.928 1319.01,370.849 1333.33,349.534 1346.55,330.578 1359.77,312.369 1372.99,294.95 1386.22,278.362 1399.61,262.446 1413,247.462 1426.4,233.445 1439.79,220.43 1454.8,207.073 1469.81,195.054 1484.82,184.411 1499.83,175.174 1513.44,168.043 1527.04,162.108 1540.64,157.385 1554.24,153.885 1569.82,151.39 1585.39,150.518 1600.96,151.271 1616.54,153.648 1630.96,157.289 1645.38,162.305 1659.8,168.681 1674.22,176.4 1688.43,185.304 1702.65,195.467 1716.86,206.862 1731.08,219.458 1744.88,232.805 1758.68,247.217 1772.49,262.657 1786.29,279.085 1800.44,296.909 1814.59,315.679 1828.74,335.344 1842.89,355.852 1858.39,379.222 1873.89,403.462 1889.39,428.491 1904.9,454.23 1949.94,532.249 1994.98,613.406 2004.22,630.243 2013.46,647.1 "/>
</svg>
